<svg xmlns="http://www.w3.org/2000/svg" viewBox="0 0 323.82 367.57"><defs><style>.cls-1{fill:#11a14e;}.cls-2{fill:#f3e41e;}.cls-3{fill:#c0c9d4;}.cls-4{fill:#cfd6df;}.cls-5{fill:#d6dbe2;}.cls-6{fill:#e1e4ea;}.cls-7{fill:#dadee3;}.cls-8{fill:#2864ac;}.cls-9{fill:#fff;}.cls-10{fill:#2160aa;}</style></defs><g id="Capa_2" data-name="Capa 2"><g id="Capa_1-2" data-name="Capa 1"><path class="cls-1" d="M272.38,123.62c-.16,2.46-.44,4.92-.44,7.38q-.06,52.08-.06,104.15c0,7.66-1.44,9.11-9,9.11q-99.54,0-199.08,0c-7.91,0-9-1.07-9-9q-.12-56.1-.23-112.2L65.92,111.7v121H260.71c0-18.36,0-36.29,0-54.21q.11-33.15.33-66.29Z"/><path class="cls-2" d="M65.92,111.7,54.64,123.07c-4.73,4.61-9.44,9.24-14.19,13.81-3.09,3-6.29,7.28-10.86,2.93-4.73-4.51-.29-7.75,2.71-10.74,25.93-25.78,52-51.44,77.85-77.29C125.89,36.06,141.33,20,157,4.21c5.57-5.63,7-5.59,12.61,0,12.65,12.47,25.35,24.9,37.89,37.49q43.89,44.07,87.68,88.25c2.92,2.94,5.94,6,1.95,9.87-3.8,3.63-7.09,1.06-10.09-2-4.8-4.82-9.74-9.5-14.63-14.24l-11.32-11.39L163.11,18.15Z"/><path class="cls-1" d="M236.06,22.65v35c-12.11-8.6-20.12-18.68-15.41-35Z"/><path class="cls-3" d="M131.09,258.55l1.29,1.15c-.95,2.4-2.36,4.72-2.76,7.2-1.88,11.54-6.74,21.75-13.3,31.26a.91.91,0,0,1-.59-.59c2.56-5.53,5.47-10.92,7.57-16.62,1.8-4.9,2.45-10.21,4-15.21C128.12,263.2,129.81,260.94,131.09,258.55Z"/><path class="cls-3" d="M76.65,295.73,74,284.18c2.7-5.71,1.78-13.14-1.87-17.27-3.1-3.51-2.56-6.57,1.69-8.79l.06,1.43a24.9,24.9,0,0,0,.92,4.95c.58,1.43,2.57,2.62,2.56,3.9C77.35,277.51,76.94,286.62,76.65,295.73Z"/><path class="cls-4" d="M73.92,259.55l-.06-1.43a89.85,89.85,0,0,1,9.5-1c8.86-.08,17.72.09,26.58.15,0,.42,0,.83,0,1.25-5.07.39-10.14,1-15.22,1.11C87.81,259.76,80.86,259.58,73.92,259.55Z"/><path class="cls-5" d="M286.35,340.07a16.08,16.08,0,0,1-2.87-.72,8,8,0,0,1-1.72-1.49c7.14-7.93,7.73-11.44,3.36-19,5.85,2.51,7.47,9.47,3.79,15.74A59.41,59.41,0,0,0,286.35,340.07Z"/><path class="cls-6" d="M205.59,355.09,201.85,353c1-.92,1.87-2.58,2.87-2.63a82.59,82.59,0,0,1,12.18.35c.37,0,.5,2.63.74,4l-10.76-2.11-1.41.41Z"/><path class="cls-4" d="M267.73,354.93c-3.42-2.07-5.38-9.29-3-11.82.62-.66,2.71-1.06,3.07-.66,1,1.14,1.49,2.77,2.17,4.21L267.05,345C267.3,348.7,267.52,351.81,267.73,354.93Z"/><path class="cls-4" d="M226.85,258.18l-1.47,1.35c-8.2-1.68-15.73-1.66-19.52,7.76l-1.23-.88C209,256.54,215.46,254.14,226.85,258.18Z"/><path class="cls-3" d="M147.3,357.4c-.47.47-.94.94-1.4,1.42-2.81-3.56-5.55-7.16-8.47-10.61-.44-.52-1.72-.33-2.61-.47l2.53-5.1Z"/><path class="cls-5" d="M294.29,353.89c-1.37-1.35-3.18-2.48-4-4.1-1.63-3.12-2.72-6.52-4-9.81,2.06,2.29,4.49,4.35,6.06,6.92C293.5,348.9,293.66,351.54,294.29,353.89Z"/><path class="cls-3" d="M31.63,325.33q-.28,13.67-.55,27.32Q31.35,339,31.63,325.33Z"/><path class="cls-3" d="M28,318.77c1.22,2.21,2.45,4.42,3.67,6.64C28.26,324.39,25.34,323.11,28,318.77Z"/><path class="cls-4" d="M203.21,273.58c-.1-1.05-.21-2.1-.31-3.15.57-1.34,1.15-2.68,1.73-4l1.23.88C205,269.39,204.09,271.48,203.21,273.58Z"/><path class="cls-6" d="M138.35,329.14c-.4,1.22-.81,2.44-1.21,3.66C137.54,331.58,138,330.36,138.35,329.14Z"/><path class="cls-4" d="M205.47,353.08l1.41-.41Z"/><path class="cls-5" d="M27.83,360l.24,0Z"/><path class="cls-7" d="M168.87,260l1.37-.92.79.83-1.21,1.2Z"/><path class="cls-8" d="M234.13,269.31a16.94,16.94,0,0,0-1.61-2.5c-3.64-3.92-3.25-6.37,1.75-6.95a89.53,89.53,0,0,1,17.78-.24c3.68.31,5.95,2.42,1.93,6.09-1.24,1.14-2.51,3-2.56,4.57-.24,8.24-.21,16.5,0,24.75a6.3,6.3,0,0,0,2.31,4c3.84,3.15,2.69,5.68-1.3,6.34a85.8,85.8,0,0,1-17.18.87c-2.67-.1-6.15-1.19-4.21-5.55,1.24-1.48,3.54-2.95,3.56-4.45C234.74,287.28,234.35,278.29,234.13,269.31Z"/><path class="cls-9" d="M53.39,320.22c-.41-.43-.79-.85-1.17-1.24l-.44-.48a7,7,0,0,1,.76-1,5.21,5.21,0,0,1,.73-.68c0,.34,0,.67,0,1C53.37,318.63,53.39,319.42,53.39,320.22Z"/><path class="cls-9" d="M64.51,274.71c0,1.55,0,3,0,4.4,0,6.93-.22,10.6-.38,12.51a9.44,9.44,0,0,0-1.44.89l-.31.25a10.66,10.66,0,0,0-3.83,8.31,11.23,11.23,0,0,0,2.31,6.85,10,10,0,0,0,.73.86c-1,.06-1.92.15-2.81.26-.5.06-1,.13-1.45.21a34,34,0,0,0-7.84-10.72,2.33,2.33,0,0,0-1.16-.55,57,57,0,0,1,4.12,12.58,11,11,0,0,0-1.19.59A23.62,23.62,0,0,0,41,308.68q-2.49-2.21-5-4.35c-7.21-6.15-14.09-12.59-19.74-20.24a84.88,84.88,0,0,1-9.85-17.28,74.16,74.16,0,0,1-5-15.8A84.28,84.28,0,0,1,.19,240.62a180.09,180.09,0,0,1,1.47-32,12.75,12.75,0,0,1,6.18,3.7,8.16,8.16,0,0,1,1.77,3.61,75.65,75.65,0,0,1,1.11,7.83,140.22,140.22,0,0,0,3.36,20.67A55.5,55.5,0,0,0,27.9,269.71c6.48,6.66,14.69,10,23.76,11.26a11.48,11.48,0,0,0,1.44,0c-.66-.93-1.11-1.59-1.59-2.25-3.53-4.8-7.27-9.46-10-14.78a23.75,23.75,0,0,1-3.15-10.43,15.11,15.11,0,0,1,2.9-9.09c1,1.05,2,2,2.84,2.94,7,7.8,14,15.7,20.41,24C64.5,272.22,64.51,273.33,64.51,274.71Z"/><path class="cls-9" d="M80,321.08a5.15,5.15,0,0,1-3.17,4.74,4.3,4.3,0,0,0-1.1.64,4.4,4.4,0,0,0-.34,1.35c0,.14-.06.59-.13,2.09A41,41,0,0,1,72.13,333l-.24.21c-3.14,2.73-6.5,5.21-9.93,7.93.06-3.41.19-6.5.17-9.59a55.46,55.46,0,0,0-2.24-15.3c-.12-.45-.27-.9-.42-1.35a49.4,49.4,0,0,1,6.26-.36c4.52,0,7.82.42,10.07,1.28C79.27,317.1,80,319.39,80,321.08Z"/><path class="cls-9" d="M84,307.19c-1.6.08-3.34.13-5.23.13-5,0-8.39-.3-10.39-.91a5.66,5.66,0,0,1-2.88-2,5.27,5.27,0,0,1-1.13-3.31,4.86,4.86,0,0,1,1.74-3.83l.09-.07a10.44,10.44,0,0,1,2.31-1.09c.29-.11,1-.39,1.22-2.12a136.87,136.87,0,0,0,.6-14.81l.57.81c1.1,1.54,2.17,3.12,3.23,4.69.92,1.39,1.84,2.79,2.73,4.2.62,1,1.24,1.95,1.84,2.94a35.84,35.84,0,0,1,5,13.26c.06.36.11.71.15,1.07S84,306.84,84,307.19Z"/><path class="cls-9" d="M17.47,242.4c-.18-4.41-.46-8.82-.48-13.23a39,39,0,0,1,.76-6.8,8.33,8.33,0,0,1,2.57-4.61c1.86-1.76,4-1.4,5.24.89a9.54,9.54,0,0,1,1,5.19,27.39,27.39,0,0,1-4.25,12.42c-1.32,2.15-2.85,4.17-4.28,6.26Z"/><path class="cls-4" d="M229.1,299.49c1.22-1.8,3.34-3.52,3.49-5.4.51-6.53.34-13.12.43-19.69l1.11-5.09c.22,9,.61,18,.49,26.94,0,1.5-2.32,3-3.56,4.45Z"/><path class="cls-9" d="M276.22,314.63c-.49.42-1,.86-1.45,1.29l-.27.24c-1.32,1.22-2.52,2.61-4.07,4.23,0-1.36.06-2.7.17-4,0-.48.08-1,.14-1.44l.71-.05C273.74,314.71,275.29,314.63,276.22,314.63Z"/><path class="cls-9" d="M259,300.59c0,1.91-1,4.43-5.61,5.57a51.1,51.1,0,0,1-11.65,1.16c-.49,0-1.14,0-1.87,0,0-.32.06-.63.09-1a.09.09,0,0,0,0,0q.06-.53.15-1.05a35.65,35.65,0,0,1,5-13.27q2.61-4.26,5.41-8.4c.24-.36.49-.71.73-1.06.73-1.08,1.48-2.14,2.24-3.2,0,10.08.34,13.82.62,15.15a1.63,1.63,0,0,0,.3.72,4.86,4.86,0,0,0,1.22.77A5,5,0,0,1,259,300.59Z"/><path class="cls-9" d="M323.63,240.78a82.13,82.13,0,0,1-1.18,10.4,74,74,0,0,1-5,15.8,85.18,85.18,0,0,1-9.84,17.29c-5.67,7.65-12.54,14.09-19.75,20.23q-2.79,2.38-5.56,4.81a32.64,32.64,0,0,0-6-.53c-1,0-2.35.07-4.45.22a57.89,57.89,0,0,1,3.73-10.84,2.37,2.37,0,0,0-1.16.54,34.35,34.35,0,0,0-7.8,10.64c-.88.05-1.69.07-2.41.09h-.86c-1.42,0-1.91,0-2.07,0h-.12l-.76-.06a10.85,10.85,0,0,0,4.47-8.74,10.63,10.63,0,0,0-5.15-9.1c-.13-1.85-.29-5.41-.3-12.18v-.88c0-3.5.07-5.72.17-7.13.6-.78,1.22-1.57,1.85-2.35.79-1,1.58-2,2.38-2.95,5.16-6.31,10.55-12.43,16-18.48.89-1,1.83-1.89,2.85-2.93a14.94,14.94,0,0,1,2.88,9.08,23.53,23.53,0,0,1-3.14,10.43c-2.76,5.32-6.52,10-10,14.79-.48.65-.94,1.32-1.59,2.25a10.71,10.71,0,0,0,1.43,0c9.08-1.31,17.28-4.6,23.76-11.26a55.44,55.44,0,0,0,13.81-25.29,139,139,0,0,0,3.38-20.67c.28-2.62.56-5.25,1.1-7.84a8.25,8.25,0,0,1,1.77-3.59,12.59,12.59,0,0,1,6.19-3.7A181.75,181.75,0,0,1,323.63,240.78Z"/><path class="cls-9" d="M306.35,242.57c.18-4.41.46-8.82.48-13.23a39,39,0,0,0-.76-6.8,8.21,8.21,0,0,0-2.57-4.6c-1.86-1.76-4-1.41-5.24.88a9.46,9.46,0,0,0-1,5.2,27.26,27.26,0,0,0,4.24,12.41c1.32,2.15,2.85,4.18,4.28,6.26Z"/><path class="cls-9" d="M114.56,266.83a7.16,7.16,0,0,1-1.4,4.55,5,5,0,0,1-4,2,4.69,4.69,0,0,1-2.94-.86,31.36,31.36,0,0,1-3.44-3.64A5.41,5.41,0,0,0,99.87,267a41.58,41.58,0,0,0-7.8-.68,2.91,2.91,0,0,0-1.32.22,14.23,14.23,0,0,0-.61,3,33.83,33.83,0,0,0-.35,4.55,1.38,1.38,0,0,0,0,.25,7.39,7.39,0,0,0,2.14.21,2.18,2.18,0,0,0,1.17-.19,1.58,1.58,0,0,0,.35-.82c1-4.53,3.55-5.21,5-5.21,4,0,6,4,6,11.94,0,4.66-.68,8.05-2.09,10.38a5.21,5.21,0,0,1-4.6,2.7c-1.09,0-3.69-.42-4.14-4.34a10.61,10.61,0,0,0-.34-2.1,1.83,1.83,0,0,0-.51-.66,3,3,0,0,0-2.13-.61,5.05,5.05,0,0,0-.78.06,3.57,3.57,0,0,0,0,.74v.08c0,.18,0,1.27,0,3.25,0,5.11.73,6,.77,6.08a.43.43,0,0,0,.09.1.88.88,0,0,0,.11.13c.15,0,.62.14,1.88.33a4.12,4.12,0,0,1,2.67,1.61,4.65,4.65,0,0,1,1,2.95c0,1.53-.58,4.23-4.49,5.18a45.84,45.84,0,0,1-7.88,1c-1.6.08-3.34.13-5.23.13-5,0-8.39-.3-10.39-.91a5.66,5.66,0,0,1-2.88-2,5.27,5.27,0,0,1-1.13-3.31,4.86,4.86,0,0,1,1.74-3.83l.09-.07a10.44,10.44,0,0,1,2.31-1.09c.29-.11,1-.39,1.22-2.12a136.87,136.87,0,0,0,.6-14.81h0c0-1.39,0-2.87,0-4.43,0-5.25-.22-7.3-.41-8.1a1.9,1.9,0,0,0-1.16-1.48,8.82,8.82,0,0,1-2.86-1.74,4.12,4.12,0,0,1-1-2.88,4.76,4.76,0,0,1,2.27-4,8.06,8.06,0,0,1,4.7-1.35c1,0,2.35.08,4.2.22,3.71.29,8.22.44,13.41.44,8.27,0,13.9-.22,16.7-.67h.07a9.29,9.29,0,0,1,1.12-.09,4.79,4.79,0,0,1,3.73,2.07A15.44,15.44,0,0,1,114.56,266.83Z"/><path class="cls-9" d="M114.56,266.83a7.16,7.16,0,0,1-1.4,4.55,5,5,0,0,1-4,2,4.69,4.69,0,0,1-2.94-.86,31.36,31.36,0,0,1-3.44-3.64A5.41,5.41,0,0,0,99.87,267a41.58,41.58,0,0,0-7.8-.68,2.91,2.91,0,0,0-1.32.22,14.23,14.23,0,0,0-.61,3,33.83,33.83,0,0,0-.35,4.55,1.38,1.38,0,0,0,0,.25,7.39,7.39,0,0,0,2.14.21,2.18,2.18,0,0,0,1.17-.19,1.58,1.58,0,0,0,.35-.82c1-4.53,3.55-5.21,5-5.21,4,0,6,4,6,11.94,0,4.66-.68,8.05-2.09,10.38a5.21,5.21,0,0,1-4.6,2.7c-1.09,0-3.69-.42-4.14-4.34a10.61,10.61,0,0,0-.34-2.1,1.83,1.83,0,0,0-.51-.66,3,3,0,0,0-2.13-.61,5.05,5.05,0,0,0-.78.06,3.57,3.57,0,0,0,0,.74v.08c0,.18,0,1.27,0,3.25,0,5.11.73,6,.77,6.08a.43.43,0,0,0,.09.1.88.88,0,0,0,.11.13c.15,0,.62.14,1.88.33a4.12,4.12,0,0,1,2.67,1.61,4.65,4.65,0,0,1,1,2.95c0,1.53-.58,4.23-4.49,5.18a45.84,45.84,0,0,1-7.88,1c-1.6.08-3.34.13-5.23.13-5,0-8.39-.3-10.39-.91a5.66,5.66,0,0,1-2.88-2,5.27,5.27,0,0,1-1.13-3.31,4.86,4.86,0,0,1,1.74-3.83l.09-.07a10.44,10.44,0,0,1,2.31-1.09c.29-.11,1-.39,1.22-2.12a136.87,136.87,0,0,0,.6-14.81h0c0-1.39,0-2.87,0-4.43,0-5.25-.22-7.3-.41-8.1a1.9,1.9,0,0,0-1.16-1.48,8.82,8.82,0,0,1-2.86-1.74,4.12,4.12,0,0,1-1-2.88,4.76,4.76,0,0,1,2.27-4,8.06,8.06,0,0,1,4.7-1.35c1,0,2.35.08,4.2.22,3.71.29,8.22.44,13.41.44,8.27,0,13.9-.22,16.7-.67h.07a9.29,9.29,0,0,1,1.12-.09,4.79,4.79,0,0,1,3.73,2.07A15.44,15.44,0,0,1,114.56,266.83Z"/><path class="cls-9" d="M152.77,307.35a75.48,75.48,0,0,1-11.94-.68,7.07,7.07,0,0,1-3.68-1.73,4.84,4.84,0,0,1-1.59-3.62,4,4,0,0,1,1-2.84,6.41,6.41,0,0,1,2.74-1.54,1.45,1.45,0,0,0,.4-.19c0-.39,0-.77-1.28-.95a65.26,65.26,0,0,0-8.24-.4,19,19,0,0,0-4.6.31,2.17,2.17,0,0,0-.27.46,2.61,2.61,0,0,0-.22.69l.93.31a4.3,4.3,0,0,1,3.38,4.22c0,3.93-3.93,5.93-11.69,5.93a33.69,33.69,0,0,1-8.77-.84,4.84,4.84,0,0,1-3.73-4.92,4.1,4.1,0,0,1,1-2.87,6.24,6.24,0,0,1,2.66-1.56,5.72,5.72,0,0,0,2.62-1.68,30.49,30.49,0,0,0,3.08-5.78l4.9-10.73a82.1,82.1,0,0,0,3.55-8.64,18.18,18.18,0,0,0,.87-5.23,19.51,19.51,0,0,1,.43-4.62,7.1,7.1,0,0,1,1.94-3.06,10,10,0,0,1,7.38-2.95,11.94,11.94,0,0,1,7.87,3.18c3.19,2.68,7.57,10,13.38,22.45l6.57,14.07a8.55,8.55,0,0,0,1.18,2,1.82,1.82,0,0,0,1,.33c2.54.39,4,2,4,4.31,0,1.42-.55,4-4.24,5.33C161.13,307,157.66,307.35,152.77,307.35Zm-17.12-23.94c-.32-.71-.91-1.88-2-3.76a18.58,18.58,0,0,0-1.53-2.37,4.5,4.5,0,0,0-.44,1l-.05.12c0,.11-.24.56-1,2.41-.52,1.25-.84,2.08-1,2.64Z"/><path class="cls-9" d="M215.36,307.35a35.18,35.18,0,0,1-9.25-.9c-3.91-1.15-4.49-3.58-4.49-4.92a4,4,0,0,1,.79-2.47,15.69,15.69,0,0,1,2.44-2.25s.38-.32.6-1.71a51.85,51.85,0,0,0,.3-6.8c0-.9,0-1.55-.05-2a43.93,43.93,0,0,0-2.46,4.91l-4.16,9.33a17.43,17.43,0,0,1-2,3.58,3.61,3.61,0,0,1-2.85,1.48,3.55,3.55,0,0,1-2.7-1.26,18,18,0,0,1-2-3.42c-.92-1.79-1.71-3.4-2.32-4.8l-4.42-9.94c-.11,2.2-.17,4.27-.17,6.16a20.54,20.54,0,0,0,.28,4.4,1,1,0,0,0,.12.27,14.77,14.77,0,0,0,1.78,1,3.9,3.9,0,0,1,2.13,3.65c0,5.69-8.85,5.69-11.76,5.69-6.77,0-10.2-1.88-10.2-5.58a3.63,3.63,0,0,1,1-2.68,9.58,9.58,0,0,1,2.73-1.65l0,0a1.29,1.29,0,0,0,.65-.51,11.88,11.88,0,0,0,.53-3c.21-1.8.4-4.83.59-9s.27-7.81.27-10.78c0-4.6-.45-6.34-.72-7a1.53,1.53,0,0,0-.24-.4,6.62,6.62,0,0,0-1.14-.65c-2.85-1.37-3.46-3.29-3.46-4.66a5,5,0,0,1,1.4-3.44,6.78,6.78,0,0,1,3.28-1.94,28.5,28.5,0,0,1,4.34-.83,36.39,36.39,0,0,1,4.55-.35,20.06,20.06,0,0,1,6.95.86,5.32,5.32,0,0,1,2.11,1.42,14.12,14.12,0,0,1,1.74,2.78l7.21,13.28a23.06,23.06,0,0,0,1.29,2.21h0A5.69,5.69,0,0,0,199,274l4.9-9.56c.59-1.2,1-2,1.17-2.38a13.38,13.38,0,0,1,4-5.29c1.72-1.22,4.58-1.81,8.73-1.81,7.71,0,11.62,2.11,11.62,6.27a4.72,4.72,0,0,1-.66,2.57,7.42,7.42,0,0,1-2,2,3.72,3.72,0,0,0-1.31,2.38,71,71,0,0,0-.77,11.35,126.66,126.66,0,0,0,.82,15.31,4.66,4.66,0,0,0,.32,1.4,9.82,9.82,0,0,0,1.77,1.31,4.34,4.34,0,0,1,2.06,3.73c0,1.4-.58,3.93-4.49,5.15a17.8,17.8,0,0,1-3.88.8C219.9,307.29,218,307.35,215.36,307.35Z"/><path class="cls-9" d="M239.82,307.29c-4.14-.12-11.25-.9-11.25-6.07a4.88,4.88,0,0,1,2.26-3.9c.26-.19.53-.37.83-.56a2.23,2.23,0,0,0,1.18-1.62c.42-2.52.63-8.07.63-16.5,0-2.37-.05-4.24-.13-5.73a19.32,19.32,0,0,0-.67-5.05,3.49,3.49,0,0,0-1.58-1.66l0,0a9.75,9.75,0,0,1-2.34-2,4.32,4.32,0,0,1-.87-2.7,4.43,4.43,0,0,1,2.3-3.91,17.78,17.78,0,0,1,5.69-1.82,47.26,47.26,0,0,1,9.13-.9,39.82,39.82,0,0,1,7.81.74c5.11,1,6.18,3.68,6.18,5.74a3.87,3.87,0,0,1-1,2.75,10.11,10.11,0,0,1-2.87,1.84c-.68.34-1,1.41-1.15,2.24a68.52,68.52,0,0,0-.48,10.23v.88c0,10.08.34,13.82.62,15.15a1.63,1.63,0,0,0,.3.72,4.86,4.86,0,0,0,1.22.77,5,5,0,0,1,3.32,4.64c0,1.91-1,4.43-5.61,5.57a51.1,51.1,0,0,1-11.65,1.16C241.2,307.32,240.55,307.32,239.82,307.29Z"/><path class="cls-9" d="M263.74,266a9.34,9.34,0,0,1-1.49,2.12,7.1,7.1,0,0,1-.89.83C262.15,268,262.94,267,263.74,266Z"/><path class="cls-9" d="M259,300.59c0,1.91-1,4.43-5.61,5.57a51.1,51.1,0,0,1-11.65,1.16c-.49,0-1.14,0-1.87,0-4.14-.12-11.25-.9-11.25-6.07a4.88,4.88,0,0,1,2.26-3.9c.26-.19.53-.37.83-.56a2.23,2.23,0,0,0,1.18-1.62c.42-2.52.63-8.07.63-16.5,0-2.37-.05-4.24-.13-5.73a19.32,19.32,0,0,0-.67-5.05,3.49,3.49,0,0,0-1.58-1.66l0,0a9.75,9.75,0,0,1-2.34-2,4.32,4.32,0,0,1-.87-2.7,4.43,4.43,0,0,1,2.3-3.91,17.78,17.78,0,0,1,5.69-1.82,47.26,47.26,0,0,1,9.13-.9,39.82,39.82,0,0,1,7.81.74c5.11,1,6.18,3.68,6.18,5.74a3.87,3.87,0,0,1-1,2.75,10.11,10.11,0,0,1-2.87,1.84c-.68.34-1,1.41-1.15,2.24a68.52,68.52,0,0,0-.48,10.23v.88c0,10.08.34,13.82.62,15.15a1.63,1.63,0,0,0,.3.72,4.86,4.86,0,0,0,1.22.77A5,5,0,0,1,259,300.59Z"/><path class="cls-9" d="M80.29,332.43a21.12,21.12,0,0,1,.81-2.18c0,.47,0,1-.08,1.73h0c0,.93-.07,2.08-.1,3.49-.15,4.31-.21,8-.21,10.65,0,.62,0,1.19,0,1.71,0,.95,0,1.74,0,2.4A26.41,26.41,0,0,1,79,340.7,26.75,26.75,0,0,1,80.29,332.43Z"/><path class="cls-9" d="M85.07,357.63a25.13,25.13,0,0,1-2.11-3,23.21,23.21,0,0,1-1.36-2.49A9.92,9.92,0,0,1,85.07,357.63Z"/><path class="cls-9" d="M85.65,323.14a8.74,8.74,0,0,1-.41,1.52,10.35,10.35,0,0,1-3,4.47h0a8.64,8.64,0,0,1-1,.86,24.68,24.68,0,0,1,2.87-5C84.58,324.38,85.09,323.75,85.65,323.14Z"/><path class="cls-9" d="M77.28,356.3a19.2,19.2,0,0,1-1.76-1.07,4.33,4.33,0,0,1-.21-.62c-.17-.62-.45-2.56-.45-8.49,0-2.65.06-6.29.21-10.82.07-2.58.14-4.29.19-5.4.07-1.5.11-1.95.13-2.09a4.4,4.4,0,0,1,.34-1.35,4.3,4.3,0,0,1,1.1-.64A5.15,5.15,0,0,0,80,321.08c0-1.69-.73-4-4.2-5.31-2.25-.86-5.55-1.28-10.07-1.28a49.4,49.4,0,0,0-6.26.36,27.15,27.15,0,0,0-3.22.56,7.5,7.5,0,0,0-3,1.42h0a5.21,5.21,0,0,0-.73.68,7,7,0,0,0-.76,1,5.34,5.34,0,0,0-.7,1.78c-.45-5.83-9.57-5.83-12.61-5.83a43.34,43.34,0,0,0-8.49.84c-5.47,1.09-8.24,3.32-8.24,6.63a4.09,4.09,0,0,0,2.51,3.79c1.76.88,2.07,1.36,2.07,1.37a8,8,0,0,1,.28,3.07c0,.8,0,3.92.13,9.55,0,1.13,0,2.05,0,2.85A85.45,85.45,0,0,1,26.26,353a5.85,5.85,0,0,1-.41,1.94,1.51,1.51,0,0,1-.61.49,10.05,10.05,0,0,0-2.95,2,4.31,4.31,0,0,0-1,3,4.82,4.82,0,0,0,1.36,3.33,7.61,7.61,0,0,0,3.21,2,32.48,32.48,0,0,0,9.86,1.26A29.63,29.63,0,0,0,46,365.52c3.74-1.43,4.53-3.73,4.53-5.4a4.73,4.73,0,0,0-2.34-4.29,6.45,6.45,0,0,1-1.24-.89c-.37-.61-.8-1.91-.8-4.68a34.31,34.31,0,0,1,.19-3.88c0-.11,0-.22,0-.28a30.39,30.39,0,0,1,7-.48,12.43,12.43,0,0,1,2.1.14,6.29,6.29,0,0,1,.1,1.3,33.29,33.29,0,0,1-.58,6.75,6.08,6.08,0,0,1-.46,1.47,2.49,2.49,0,0,1-.73.52,5.12,5.12,0,0,0-3,4.67c0,1.31.48,3.73,3.78,5.1,2.21.91,5.42,1.34,9.82,1.34,5,0,8.51-.42,10.83-1.31,3.55-1.35,4.3-3.74,4.3-5.51A4.18,4.18,0,0,0,77.28,356.3ZM50.2,323.77a4.54,4.54,0,0,0,.8-1.94,4.12,4.12,0,0,0,.86,2.23,5.68,5.68,0,0,0,1,.91,14.63,14.63,0,0,0,1.6,1,1.93,1.93,0,0,1,.74,1.29,27.22,27.22,0,0,1,.36,5.32c0,.22,0,.44,0,.67a2.58,2.58,0,0,1,0,.32,21.87,21.87,0,0,1-3.5.18c-2.57,0-4.21,0-4.87-.06a3.5,3.5,0,0,1-.63-.1,4.83,4.83,0,0,1-.17-1.52,23.74,23.74,0,0,1,.3-5,1.86,1.86,0,0,1,.91-1.12A8.87,8.87,0,0,0,50.2,323.77Z"/><path class="cls-9" d="M134.5,338.28v0a27.86,27.86,0,0,0-2.74-8.79,30.63,30.63,0,0,0-1.69-3,27.91,27.91,0,0,0-3.84-4.74c-.23-.23-.47-.45-.71-.66a.26.26,0,0,0-.1-.09c-.48-.45-1-.87-1.49-1.27a26.86,26.86,0,0,0-16.7-5.48,34.66,34.66,0,0,0-5.07.37,29.08,29.08,0,0,0-6,1.56,26.17,26.17,0,0,0-10.47,7c-.56.61-1.07,1.24-1.57,1.9a24.68,24.68,0,0,0-2.87,5,1.89,1.89,0,0,0-.11.25h0a21.12,21.12,0,0,0-.81,2.18A26.75,26.75,0,0,0,79,340.7a26.41,26.41,0,0,0,1.73,9.53h0c.25.66.52,1.31.83,1.95A23.21,23.21,0,0,0,83,354.67a25,25,0,0,0,11.17,9.83,29.23,29.23,0,0,0,12.24,2.66,31.4,31.4,0,0,0,9.69-1.55,27.27,27.27,0,0,0,12.8-8.43,24,24,0,0,0,5.74-13.59v0c.07-.73.1-1.46.1-2.19A24.66,24.66,0,0,0,134.5,338.28Zm-22.14,13.79a3.41,3.41,0,0,1-2.86,1.32,4.14,4.14,0,0,1-2.24-.72,6.78,6.78,0,0,1-2.1-2.13,38.79,38.79,0,0,1-3.85-8.75,29.55,29.55,0,0,1-1.52-8.55,6.29,6.29,0,0,1,1-3.64,3.48,3.48,0,0,1,3.08-1.79,4.87,4.87,0,0,1,2.52,1,9.61,9.61,0,0,1,2.56,2.81,30.34,30.34,0,0,1,3.31,7.83,32.53,32.53,0,0,1,1.28,8.59A6.16,6.16,0,0,1,112.36,352.07Z"/><path class="cls-9" d="M163,367.16a30.41,30.41,0,0,1-14.83-3.73,26.19,26.19,0,0,1-13.71-23.14,24.69,24.69,0,0,1,3.66-12.88,26.23,26.23,0,0,1,10.83-10.05,31.56,31.56,0,0,1,22.86-1.74,8.53,8.53,0,0,0,1.93.5,12.11,12.11,0,0,0,2.3-.69h0a6.36,6.36,0,0,1,2.06-.34c1.88,0,3.61,1,5.14,3a14.71,14.71,0,0,1,3.22,9.16,9.12,9.12,0,0,1-1.91,6,6.71,6.71,0,0,1-5.37,2.5,8.33,8.33,0,0,1-5-1.82,24,24,0,0,1-3.19-3.56c-2.21-2.71-4.63-4-7.4-4a6.94,6.94,0,0,0-5.77,2.63c-1.5,1.86-2.26,4.47-2.26,7.77a21.79,21.79,0,0,0,3.89,13.08,10.81,10.81,0,0,0,3.26,2.88,7.15,7.15,0,0,0,3.52,1,2.19,2.19,0,0,0,1.68-.65,2.45,2.45,0,0,0,.66-1.83,1.33,1.33,0,0,0-.22-.9l0,0c-.17,0-.6,0-1.64,0a5.27,5.27,0,0,1-3.73-1.45,5.06,5.06,0,0,1-1.54-3.71c0-1.91.88-4.47,5.08-5.81a34.38,34.38,0,0,1,10.23-1.4,36.22,36.22,0,0,1,10.39,1.29c4.4,1.37,5.06,4.34,5.06,6a4.87,4.87,0,0,1-1.36,3.4,5.42,5.42,0,0,1-3.34,1.65,3.6,3.6,0,0,0-.53.1c-.06.16-.16.44-.29.91a20,20,0,0,1-6.4,10.14,23.79,23.79,0,0,1-7.8,4.29A29.46,29.46,0,0,1,163,367.16Z"/><path class="cls-9" d="M246.47,357.25a5.16,5.16,0,0,0-2.69-1.16,1.92,1.92,0,0,1-.94-.33,8.72,8.72,0,0,1-1.19-2l-6.56-14.07,0-.07c-5.8-12.38-10.17-19.71-13.35-22.39a12,12,0,0,0-7.87-3.17,10,10,0,0,0-7.38,2.95,7,7,0,0,0-1.94,3.06,19.44,19.44,0,0,0-.44,4.62,17.91,17.91,0,0,1-.87,5.24,80.84,80.84,0,0,1-3.55,8.63l-.34.75-4.56,10a31.88,31.88,0,0,1-3.07,5.78,5.81,5.81,0,0,1-2.63,1.67,6.51,6.51,0,0,0-2.66,1.56,4.17,4.17,0,0,0-1,2.88,4.83,4.83,0,0,0,3.73,4.92,33.74,33.74,0,0,0,8.76.83c7.76,0,11.7-2,11.7-5.92a4.3,4.3,0,0,0-3.38-4.22l-.94-.31a2.54,2.54,0,0,1,.23-.69,1.9,1.9,0,0,1,.27-.46,19,19,0,0,1,4.59-.31c1.08,0,2.08,0,3,0a48.84,48.84,0,0,1,5.24.36c1.23.19,1.28.56,1.28,1a1.58,1.58,0,0,1-.41.19,7.44,7.44,0,0,0-2.28,1.13,3.54,3.54,0,0,0-.45.41,4,4,0,0,0-1,2.84,4.81,4.81,0,0,0,1.59,3.62,7.08,7.08,0,0,0,3.67,1.73,75.72,75.72,0,0,0,11.95.68c4.88,0,8.36-.4,10.62-1.22a6.78,6.78,0,0,0,3-2,5.15,5.15,0,0,0,1.21-3.35A4.07,4.07,0,0,0,246.47,357.25Zm-35.66-16.88c.75-1.84.93-2.3,1-2.41s0-.08,0-.13a4.92,4.92,0,0,1,.45-1,17.6,17.6,0,0,1,1.52,2.38,38.31,38.31,0,0,1,2,3.76h-6C210,342.45,210.3,341.62,210.81,340.37Z"/><path class="cls-9" d="M301.78,358a4,4,0,0,0-2.06-1.6h-.05a2.24,2.24,0,0,1-2.36-2.78c-.53-4-1.41-6.91-2.7-8.93a11.92,11.92,0,0,0-6.1-4.67,11.56,11.56,0,0,0,4.4-4.35,13.16,13.16,0,0,0,1.78-6.72,12.29,12.29,0,0,0-5.11-10.41c-3.54-2.61-8-3.93-13.36-3.93-.93,0-2.48.08-4.77.25l-.71.05c-2.57.2-4.74.32-6.48.35h-1c-1.21,0-2.08,0-2.62-.07-3.18-.23-5-.35-5.87-.35a18.42,18.42,0,0,0-4.53.44,7.89,7.89,0,0,0-3.57,1.86,4.84,4.84,0,0,0-1.54,3.53,4.13,4.13,0,0,0,1,2.74,8.07,8.07,0,0,0,2.61,1.78,2.06,2.06,0,0,1,1.16,1.42,22,22,0,0,1,.41,5.19c0,.28,0,.57,0,.88,0,10.06-.06,16-.17,17.57a15.27,15.27,0,0,1-.62,4.2,3.48,3.48,0,0,1-1.4,1.55,12.92,12.92,0,0,0-1.63,1.22,4.53,4.53,0,0,0-.53.59,3.8,3.8,0,0,0-.76,2.42,4.8,4.8,0,0,0,1.41,3.49c3.09,3.16,10.42,3.16,13.24,3.16,4.85,0,8.24-.33,10.38-1,3.59-1.18,4.13-3.61,4.13-4.95a5.11,5.11,0,0,0-3-4.59,4.09,4.09,0,0,1-.87-.57.86.86,0,0,1-.11-.29,31.32,31.32,0,0,1-.51-6.46,17.71,17.71,0,0,1,.14-2.72h.08a3.08,3.08,0,0,1,2.23.88,8.89,8.89,0,0,1,1.62,3.87,72.52,72.52,0,0,0,2.23,7.78,16.39,16.39,0,0,0,2.53,4.53c2.29,2.81,6,4.23,11.08,4.23a20.81,20.81,0,0,0,8.76-1.52,7.64,7.64,0,0,0,2.82-2.25,5.37,5.37,0,0,0,1.19-3.26A4.46,4.46,0,0,0,301.78,358Zm-28.19-27.4a6.12,6.12,0,0,1-.94,3.87,4,4,0,0,1-3.1,1h0c0-.08,0-.18,0-.29v-.27l.38-8.06a3.55,3.55,0,0,1,.17-1.07,2.54,2.54,0,0,1,.58,0C271.59,325.73,273.59,325.73,273.59,330.63Z"/><path class="cls-10" d="M90.88,264.29c-1.59,0-2.58.41-2.95,1.22a14.41,14.41,0,0,0-.78,3.54,35.78,35.78,0,0,0-.36,4.79,1.88,1.88,0,0,0,.83,1.78,6.92,6.92,0,0,0,3.12.48,3.72,3.72,0,0,0,2.26-.55,3.06,3.06,0,0,0,1-1.88c.53-2.52,1.62-3.79,3.26-3.79q4.24,0,4.24,10.15,0,6.42-1.84,9.44a3.42,3.42,0,0,1-3.06,1.85c-1.36,0-2.15-.92-2.36-2.75a11.74,11.74,0,0,0-.43-2.5,3.59,3.59,0,0,0-1-1.39,4.71,4.71,0,0,0-3.34-1.07,3,3,0,0,0-2.11.55,2.78,2.78,0,0,0-.49,2.12c0,.19,0,1.26,0,3.23q0,6,1.25,7.33a2.08,2.08,0,0,0,.86.68,16.42,16.42,0,0,0,2.27.43,2.38,2.38,0,0,1,1.53.94,2.86,2.86,0,0,1,.62,1.84q0,2.67-3.12,3.44a58.23,58.23,0,0,1-12.68,1.07c-4.77,0-8.06-.27-9.86-.83a3.84,3.84,0,0,1-2-1.39A3.59,3.59,0,0,1,65,300.8a3.08,3.08,0,0,1,1.11-2.47,13,13,0,0,1,1.91-.87c1.3-.51,2.08-1.69,2.33-3.54q.63-4.28.63-19.49a47.16,47.16,0,0,0-.46-8.5,3.7,3.7,0,0,0-2.18-2.71A7.64,7.64,0,0,1,66,261.88a2.31,2.31,0,0,1-.54-1.65,3,3,0,0,1,1.5-2.55,6.29,6.29,0,0,1,3.68-1c.92,0,2.28.07,4.06.21q5.67.45,13.55.45c8.4,0,14.07-.23,17-.69a7.68,7.68,0,0,1,.91-.07,3,3,0,0,1,2.32,1.39,13.59,13.59,0,0,1,3.06,8.61,5.44,5.44,0,0,1-1,3.44,3.18,3.18,0,0,1-2.64,1.28,3,3,0,0,1-1.84-.48,41.11,41.11,0,0,1-3.19-3.41A7.29,7.29,0,0,0,99.1,265,45.53,45.53,0,0,0,90.88,264.29Z"/><path class="cls-10" d="M152.08,280.55l6.57,14.07a10.2,10.2,0,0,0,1.56,2.55,3.49,3.49,0,0,0,1.91.81c1.67.26,2.5,1.1,2.5,2.54q0,2.53-3.05,3.65t-10,1.11a74.14,74.14,0,0,1-11.63-.66,5.29,5.29,0,0,1-2.76-1.27,3,3,0,0,1-1-2.31,2.25,2.25,0,0,1,.54-1.61,4.78,4.78,0,0,1,2-1.06c1.09-.37,1.63-1,1.63-1.88,0-1.55-.94-2.47-2.81-2.74a65.93,65.93,0,0,0-8.51-.42q-4.62,0-5.53.56a2.77,2.77,0,0,0-1,1.25,4.1,4.1,0,0,0-.42,1.73q0,.76.3,1a9.42,9.42,0,0,0,1.93.75,2.52,2.52,0,0,1,2.12,2.5q0,4.14-9.9,4.13a32.44,32.44,0,0,1-8.27-.76,3.08,3.08,0,0,1-2.43-3.2,2.37,2.37,0,0,1,.54-1.66,4.77,4.77,0,0,1,1.92-1.08,7.48,7.48,0,0,0,3.43-2.24,34,34,0,0,0,3.31-6.17l4.9-10.73a81.53,81.53,0,0,0,3.63-8.84,20.3,20.3,0,0,0,1-5.75,18.23,18.23,0,0,1,.36-4.15,5.19,5.19,0,0,1,1.48-2.27,8.2,8.2,0,0,1,6.11-2.43,10.16,10.16,0,0,1,6.7,2.74Q143.62,262.45,152.08,280.55Zm-24.17,4.37h6.81c1.25,0,1.87-.27,1.87-.83q0-1.14-2.6-5.63a18.31,18.31,0,0,0-1.81-2.74,1.79,1.79,0,0,0-1.32-.69c-.83,0-1.53.77-2.08,2.32-.1.21-.43,1-1,2.47a19.54,19.54,0,0,0-1.46,4.24C126.31,284.64,126.84,284.92,127.91,284.92Z"/><path class="cls-10" d="M200.4,290.17l-4.17,9.34a16.51,16.51,0,0,1-1.74,3.18,1.85,1.85,0,0,1-1.45.82,1.78,1.78,0,0,1-1.36-.66,22.62,22.62,0,0,1-1.75-3.06q-1.38-2.64-2.28-4.69l-4.58-10.31q-.94-2.16-2-2.16c-.74,0-1.15.62-1.22,1.84q-.24,4.11-.24,7.57a21.75,21.75,0,0,0,.35,4.9,2.34,2.34,0,0,0,.64,1.11,13,13,0,0,0,2.17,1.25,2.13,2.13,0,0,1,1.15,2.05q0,3.9-10,3.89-8.41,0-8.41-3.78a1.94,1.94,0,0,1,.44-1.41,9.62,9.62,0,0,1,2.24-1.3,2.9,2.9,0,0,0,1.54-1.43,13.71,13.71,0,0,0,.68-3.5c.21-1.86.4-4.9.59-9.12s.28-7.84.28-10.86q0-5.65-.87-7.67a3.1,3.1,0,0,0-.71-1,8.13,8.13,0,0,0-1.51-.91c-1.65-.78-2.47-1.8-2.47-3.05a3.27,3.27,0,0,1,.92-2.23,5,5,0,0,1,2.45-1.42,27.54,27.54,0,0,1,4.08-.78,34.54,34.54,0,0,1,4.32-.33,18.82,18.82,0,0,1,6.29.73,3.43,3.43,0,0,1,1.42.94,13.89,13.89,0,0,1,1.5,2.43l7.22,13.3a16,16,0,0,0,1.64,2.67,1.59,1.59,0,0,0,1.25.49,1.71,1.71,0,0,0,1.23-.52,8,8,0,0,0,1.27-1.95l4.89-9.55c.61-1.22,1-2,1.19-2.39a11.91,11.91,0,0,1,3.36-4.62q2.13-1.5,7.72-1.5,9.82,0,9.82,4.48a3,3,0,0,1-.38,1.62A6.06,6.06,0,0,1,224.4,264a5.47,5.47,0,0,0-2,3.51,72.9,72.9,0,0,0-.79,11.67,126.06,126.06,0,0,0,.83,15.53,5.11,5.11,0,0,0,.64,2.22,9.63,9.63,0,0,0,2.24,1.77,2.55,2.55,0,0,1,1.25,2.23c0,1.62-1.07,2.76-3.23,3.44a15.4,15.4,0,0,1-3.51.72c-1.22.12-3.11.18-5.66.18a33.67,33.67,0,0,1-8.75-.84c-2.13-.62-3.2-1.69-3.2-3.19a2.15,2.15,0,0,1,.42-1.37,17.48,17.48,0,0,1,2.15-2A4.42,4.42,0,0,0,206,295.1a51.82,51.82,0,0,0,.33-7.08,16,16,0,0,0-.26-3.65,1.08,1.08,0,0,0-1.1-.87c-.64,0-1.27.45-1.87,1.34A42.23,42.23,0,0,0,200.4,290.17Z"/><path class="cls-10" d="M243.75,256.41a38.51,38.51,0,0,1,7.46.69q4.72.94,4.73,4a2.17,2.17,0,0,1-.47,1.51,10.14,10.14,0,0,1-2.38,1.47c-1.06.54-1.77,1.71-2.1,3.51a70.09,70.09,0,0,0-.5,10.56q0,13.28.65,16.43a3.57,3.57,0,0,0,.75,1.55,6.46,6.46,0,0,0,1.76,1.16,3.29,3.29,0,0,1,2.29,3c0,1.85-1.41,3.13-4.24,3.82a48.5,48.5,0,0,1-11.22,1.11q-11.32,0-11.32-4.3c0-1.05.74-2,2.22-2.92a4.06,4.06,0,0,0,2-2.85q.66-4,.66-16.81,0-8.89-.91-11.39a5.13,5.13,0,0,0-2.32-2.57,8.31,8.31,0,0,1-1.91-1.57,2.47,2.47,0,0,1-.49-1.59,2.69,2.69,0,0,1,1.44-2.38,16.4,16.4,0,0,1,5.09-1.58A44.56,44.56,0,0,1,243.75,256.41Z"/><path class="cls-10" d="M37.25,316q10.85,0,10.84,4.48a3.29,3.29,0,0,1-.55,2,7.57,7.57,0,0,1-2.12,1.71,3.59,3.59,0,0,0-1.72,2.18,25.46,25.46,0,0,0-.37,5.49c0,1.62.3,2.62.91,3a3.2,3.2,0,0,0,1.58.41c.7.05,2.36.08,5,.08a14.66,14.66,0,0,0,4.45-.39c.57-.25.86-.89.86-1.91a32.93,32.93,0,0,0-.41-6.39,3.51,3.51,0,0,0-1.63-2.46,7.52,7.52,0,0,1-2-1.48,2.54,2.54,0,0,1-.49-1.62,3.69,3.69,0,0,1,1.08-2.58,5.41,5.41,0,0,1,2.81-1.58,39.59,39.59,0,0,1,9.07-.87q6.39,0,9.43,1.16t3,3.63a3.35,3.35,0,0,1-2.15,3.13,4.49,4.49,0,0,0-1.78,1.2,5.52,5.52,0,0,0-.66,2.13q-.14.87-.34,7.71c-.14,4.56-.21,8.19-.21,10.87,0,4.71.17,7.69.52,9a3.05,3.05,0,0,0,.63,1.38,13.19,13.19,0,0,0,2.18,1.39,2.39,2.39,0,0,1,1.32,2.23c0,1.76-1,3-3.14,3.83s-5.49,1.2-10.19,1.2c-4.13,0-7.17-.4-9.14-1.21q-2.67-1.11-2.67-3.44a3.4,3.4,0,0,1,2-3.09A3.9,3.9,0,0,0,54.78,356a7.13,7.13,0,0,0,.71-2.05,34.65,34.65,0,0,0,.62-7.16c0-1.46-.21-2.36-.64-2.71s-1.54-.52-3.35-.52q-6.23,0-7.92.7c-.46.18-.75.73-.87,1.63a33.61,33.61,0,0,0-.21,4.1q0,4,1.12,5.69A6.24,6.24,0,0,0,46,357.1a2.91,2.91,0,0,1,1.46,2.74q0,2.43-3.37,3.72a28.31,28.31,0,0,1-9.62,1.28,30.49,30.49,0,0,1-9.31-1.18,5.84,5.84,0,0,1-2.45-1.47,3,3,0,0,1-.88-2.11,2.59,2.59,0,0,1,.55-1.77,9.29,9.29,0,0,1,2.43-1.59,3.05,3.05,0,0,0,1.38-1.26,7.83,7.83,0,0,0,.6-2.56,86.28,86.28,0,0,0,.53-10.63c0-.81,0-1.77,0-2.89-.09-5.55-.14-8.73-.14-9.51a9.21,9.21,0,0,0-.5-3.95,6.94,6.94,0,0,0-2.83-2.1,2.33,2.33,0,0,1-1.53-2.19q0-3.5,6.81-4.86A41.18,41.18,0,0,1,37.25,316Z"/><path class="cls-10" d="M106,315.76a24.93,24.93,0,0,1,15.59,5.11A26.29,26.29,0,0,1,129,330a24.93,24.93,0,0,1,2.75,11.12,22.18,22.18,0,0,1-5.42,14.65,25.49,25.49,0,0,1-12,7.89,29.83,29.83,0,0,1-9.13,1.46,27.53,27.53,0,0,1-11.5-2.5,23.18,23.18,0,0,1-10.38-9.14,24.24,24.24,0,0,1-3.65-13,23.79,23.79,0,0,1,4.69-14.59,24.13,24.13,0,0,1,11.22-8.27A29.23,29.23,0,0,1,106,315.76Zm-3.3,10a5.25,5.25,0,0,0-4.62,2.61A8,8,0,0,0,96.79,333a31.11,31.11,0,0,0,1.6,9.08,40.39,40.39,0,0,0,4,9.15,8.61,8.61,0,0,0,2.66,2.71,5.94,5.94,0,0,0,3.21,1,5.24,5.24,0,0,0,4.26-2,8,8,0,0,0,1.61-5.21,34.1,34.1,0,0,0-1.35-9.07,31.42,31.42,0,0,0-3.51-8.3,11.34,11.34,0,0,0-3.05-3.33A6.59,6.59,0,0,0,102.73,325.73Z"/><path class="cls-10" d="M161.43,315.76a28,28,0,0,1,8.58,1.29,10,10,0,0,0,2.46.59,11.61,11.61,0,0,0,2.92-.8,4.74,4.74,0,0,1,1.49-.24q2,0,3.72,2.29a12.89,12.89,0,0,1,2.85,8.06,7.42,7.42,0,0,1-1.51,4.83,4.93,4.93,0,0,1-4,1.84,6.58,6.58,0,0,1-4-1.46,29.84,29.84,0,0,1-2.88-3.27q-3.83-4.68-8.79-4.69a8.72,8.72,0,0,0-7.17,3.3q-2.66,3.3-2.66,8.9a23.36,23.36,0,0,0,4.24,14.13,12.46,12.46,0,0,0,3.82,3.39,8.79,8.79,0,0,0,4.41,1.27,4,4,0,0,0,3-1.2,4.21,4.21,0,0,0,1.16-3.08,2.7,2.7,0,0,0-1-2.36,1.8,1.8,0,0,0-.71-.33c-.22,0-.89-.05-2-.05a3.46,3.46,0,0,1-2.48-.95,3.23,3.23,0,0,1-1-2.42q0-2.88,3.82-4.1a32.35,32.35,0,0,1,9.69-1.32,34.3,34.3,0,0,1,9.86,1.22q3.8,1.18,3.79,4.27a3.05,3.05,0,0,1-.87,2.17,3.6,3.6,0,0,1-2.26,1.1,3,3,0,0,0-1.58.53,4.59,4.59,0,0,0-.74,1.79,18.1,18.1,0,0,1-5.84,9.24,21.69,21.69,0,0,1-7.21,4,27.52,27.52,0,0,1-8.87,1.43,28.4,28.4,0,0,1-14-3.51A24.38,24.38,0,0,1,135,340a22.85,22.85,0,0,1,3.41-11.95,24.31,24.31,0,0,1,10.11-9.38A27.85,27.85,0,0,1,161.43,315.76Z"/><path class="cls-10" d="M232.25,340.15l6.56,14.06a10.07,10.07,0,0,0,1.57,2.56,3.42,3.42,0,0,0,1.91.81c1.66.26,2.5,1.1,2.5,2.54q0,2.53-3.06,3.65t-10,1.11a74.38,74.38,0,0,1-11.64-.66,5.29,5.29,0,0,1-2.76-1.27,3.06,3.06,0,0,1-1-2.31,2.3,2.3,0,0,1,.53-1.61,4.85,4.85,0,0,1,2-1.06c1.09-.37,1.63-1,1.63-1.88,0-1.55-.93-2.47-2.81-2.74a65.72,65.72,0,0,0-8.51-.42q-4.62,0-5.52.56a2.7,2.7,0,0,0-1,1.25,4.1,4.1,0,0,0-.42,1.73,1.25,1.25,0,0,0,.29,1,9.42,9.42,0,0,0,1.93.75,2.52,2.52,0,0,1,2.12,2.5q0,4.14-9.9,4.13a32.35,32.35,0,0,1-8.26-.76,3.07,3.07,0,0,1-2.44-3.2,2.37,2.37,0,0,1,.54-1.66,4.64,4.64,0,0,1,1.93-1.08,7.39,7.39,0,0,0,3.42-2.24,33.88,33.88,0,0,0,3.32-6.17l4.9-10.73a86.88,86.88,0,0,0,3.63-8.84,19.94,19.94,0,0,0,.95-5.75,18.07,18.07,0,0,1,.37-4.15,5.25,5.25,0,0,1,1.47-2.27,8.23,8.23,0,0,1,6.11-2.43,10.18,10.18,0,0,1,6.71,2.74Q223.77,322.05,232.25,340.15Zm-24.18,4.37h6.81c1.25,0,1.88-.27,1.88-.83q0-1.14-2.61-5.63a18.49,18.49,0,0,0-1.8-2.74,1.82,1.82,0,0,0-1.32-.7c-.84,0-1.53.78-2.09,2.33-.09.21-.43,1-1,2.47a18.94,18.94,0,0,0-1.46,4.24C206.48,344.24,207,344.52,208.07,344.52Z"/><path class="cls-10" d="M268.89,344.21c-.88,0-1.44.27-1.68.8a11.41,11.41,0,0,0-.37,3.72,32.84,32.84,0,0,0,.56,6.87,2.48,2.48,0,0,0,.52,1.08,5.51,5.51,0,0,0,1.32.94,3.4,3.4,0,0,1,2.08,3c0,1.53-1,2.61-2.9,3.25s-5.2.95-9.81.95q-12.86,0-12.85-4.86a2.2,2.2,0,0,1,.38-1.34,8.31,8.31,0,0,1,1.74-1.4,5.17,5.17,0,0,0,2.07-2.38,18,18,0,0,0,.74-4.74q.18-2.47.18-17.68a29.09,29.09,0,0,0-.49-6.57,3.86,3.86,0,0,0-2.08-2.53,6.56,6.56,0,0,1-2.05-1.34,2.33,2.33,0,0,1-.52-1.58,3,3,0,0,1,1-2.24,6,6,0,0,1,2.76-1.41,17.52,17.52,0,0,1,4.1-.38q1.14,0,5.73.35c.58,0,1.49.07,2.74.07q3.12,0,8.34-.42,3.3-.24,4.62-.24,7.42,0,12.29,3.57a10.52,10.52,0,0,1,4.38,9,11.28,11.28,0,0,1-1.53,5.81,9.81,9.81,0,0,1-4.2,3.95q-1.11.56-1.11,1.32c0,.67.56,1.21,1.7,1.63a10.2,10.2,0,0,1,5.35,4q1.69,2.69,2.43,8.2a6.34,6.34,0,0,0,.9,3,6.13,6.13,0,0,0,2.75,1.3,2.14,2.14,0,0,1,1.11.89,2.65,2.65,0,0,1,.45,1.51,3.61,3.61,0,0,1-.83,2.17,5.83,5.83,0,0,1-2.16,1.72,19.36,19.36,0,0,1-8,1.35q-6.76,0-9.69-3.57a14.13,14.13,0,0,1-2.24-4,70.23,70.23,0,0,1-2.17-7.58,10.8,10.8,0,0,0-2-4.65A4.86,4.86,0,0,0,268.89,344.21Zm-2-17.71-.38,8.09v.31a2.7,2.7,0,0,0,.36,1.67,2,2,0,0,0,1.48.42,5.62,5.62,0,0,0,4.44-1.58c.93-1.06,1.39-2.74,1.39-5.06,0-4.47-1.58-6.7-4.76-6.7a2.49,2.49,0,0,0-1.91.62A3.68,3.68,0,0,0,266.88,326.5Z"/><path class="cls-9" d="M180,221.83a14.89,14.89,0,0,0,4.88-5.32,4.22,4.22,0,0,0-1.64-2.93A10.75,10.75,0,0,1,178.5,207c-1.47,0-7.5,2.21-10.69,3.88a33,33,0,0,0,.43,8.17,2.88,2.88,0,0,1-.3,2c-.62,1.15-1.12,2.38-1.72,3.7-1.62,0-3.17,0-4.73,0-.16,0-.32-.41-.65-.87.79-.25,1.39-.51,2-.64,1.67-.35,2.41-1.06,2.31-2.81a35.27,35.27,0,0,0-.79-5.08,26.86,26.86,0,0,0-1-3.52,5.72,5.72,0,0,0-1-1.24l-.33,1.46c-.35.21-.71.46-1.1.67-2,1-4,2.17-6,3.09a4.77,4.77,0,0,0-3,4.29,5.18,5.18,0,0,1-2.17,3.8c-1.48-.33-1.86-.89-1.19-2.1a23.43,23.43,0,0,0,2.32-6.34,3.34,3.34,0,0,1,1.13-1.62c.94-.78,2-1.41,3-2.14.46-.34.88-.75,1.29-1.11a3.91,3.91,0,0,0-1.46-2.88,7.29,7.29,0,0,1-1.38-1.71,3,3,0,0,0-3.15-1.33,10.71,10.71,0,0,1-3.87-.41,24.38,24.38,0,0,1-2.47.91c-1.15.3-1.7,0-2.38-1.1a7.09,7.09,0,0,0-1.07-1.06l-.3,1.67a15.16,15.16,0,0,1,3.08,8.84,4.62,4.62,0,0,0,.84,2.86,7.75,7.75,0,0,1,.79,2.74c-2.52,3.82-5.81,5.1-8.79,3.53a2.23,2.23,0,0,1,1-2,6,6,0,0,0,2-4.71,10.23,10.23,0,0,0-2.22-6.1,8.45,8.45,0,0,1-2.32-4,30.07,30.07,0,0,0-1.75-4.83,5.19,5.19,0,0,0-.57-.82,8.38,8.38,0,0,0-.45,1,40.43,40.43,0,0,1-1.36,4.79c-1.23,3-1.43,6.1-1.92,9.19a5.74,5.74,0,0,1,0,.73,18.88,18.88,0,0,0-.85,7.06c-2.83,1.23-6.46.9-7.88-.78.32-.38.62-.81,1-1.17s1-.85,1.44-1.26c1-.88,1.89-1.87,1.65-3.36,0-.79,0-1.59,0-2.38.08-1.71.12-3.43.3-5.13s.57-3.57.8-5.36c.1-.77,0-1.56,0-2.34.1-2.45.2-4.89.32-7.33a2.62,2.62,0,0,1,.17-1c1.16-2.3.81-4.74.7-7.16-.1-2.06-.13-4.11-.19-6.17,0-.19,0-.38,0-.83a12,12,0,0,0-2.87.59c-1.69.83-3.34.44-5,.13-1.93-.35-3.83-.85-5.76-1.13a11.54,11.54,0,0,0-2.75.27l-.48-1.66-1.2.57c-.1-.08-.28-.17-.29-.27-.32-2.41-1.1-4.84.55-7.11a2.29,2.29,0,0,0,.28-1.41c-.16-2.6-.37-5.19-.57-7.78q-.14-1.68-.33-3.36a5.44,5.44,0,0,0-.46-1.79c-.14,4.85.74,9.69,0,14.57l-1.22.7c-.42,2.65-.87,5.36-1.26,8.07a117.19,117.19,0,0,1-3.14,14.84c-.65,2.36-1.33,4.71-2,7.07a2.26,2.26,0,0,0-.1,1.14c.75,2.43,1.55,4.84,2.33,7.26.4,1.26.79,2.52,1.17,3.79s.67,2.35.94,3.29l-.74,3.73c-1,.25-1.85.51-2.75.72a9,9,0,0,0-3.2,1,3.81,3.81,0,0,1-1.72.22c-.54,0-1.08,0-1.66,0l-.58,1a23.84,23.84,0,0,1-10,.22v-1.79l2.57-2a8.07,8.07,0,0,1,.52-4.54c.77-2.12,1.64-4.21,2.42-6.33.65-1.79,1.22-3.61,1.84-5.44-1.32-1.12-1.86-2.34-.92-3.78-3.8-9.76-5.24-19.85-5.43-30.26l-1.75-.68c-.35-2,.58-3.89.68-5.87s.4-4.09.64-6.13a54.4,54.4,0,0,0,.51-6.06,15.83,15.83,0,0,0-1.16,3c-.71,4-2.57,7.58-4.45,11.13l-.86,1.65c1.28,2.58-.2,5.23.35,8.19l-1.56-1.06-.13.13,1.34,1.65c-.36,1-1.07.84-1.68.53a5,5,0,0,1-2.36-6.14c.45-1.54.83-3.11,1.17-4.68.47-2.21.87-4.43,1.31-6.64a5.44,5.44,0,0,0,.17-.86,20.59,20.59,0,0,1,2-8c.55-1.31,1-2.65,1.52-4a8.94,8.94,0,0,0,.27-1.47L78,142.64c1.58-3.33,2.9-6.72,5.24-9.56a6.4,6.4,0,0,1,4.38-2.45c.92-.1,1.82-.36,2.79-.55-.13-1.75.75-2.87,2.17-3.91a13.56,13.56,0,0,0-.48-2.31,5.61,5.61,0,0,1-.3-3.87,6.8,6.8,0,0,0,.19-2.34c-.11-2.15,1.26-3.31,2.91-4a5.24,5.24,0,0,1,4.83.21,7.17,7.17,0,0,1,2.38,1.89,4.14,4.14,0,0,1,1,2.86c-.06.53,0,1.08,0,1.62a1.69,1.69,0,0,0,1.14,1.87,14.94,14.94,0,0,0-1.93,5.53l.3,3.21,6.27,3.38a3.5,3.5,0,0,1,1.8,2.21c.87,3,1.79,6,2.67,9a6.59,6.59,0,0,1,.12,1.07l-1.47.95c.1,1.79.09,3.67.35,5.51a48.51,48.51,0,0,1,.11,12c-.27,2.49-.51,5,.37,7.45.28.77.57,1.54.85,2.32a14.17,14.17,0,0,0,6.61-.54,11.57,11.57,0,0,0,3.34-2.13c1.89-1.66,3.82-3.21,6.82-3.68-2.49-1.56-3-3.69-3.17-6-.11-1.41-.48-2.82-.46-4.22s1.18-2.46,2.27-3.28a6.86,6.86,0,0,1,2.63-1.28c1.87-.38,4.74.51,5.46,2.82a15.52,15.52,0,0,1,.35,5.83,8.76,8.76,0,0,1-1.2,2.55c-.16,1.2.59,2.29,2,3a9.58,9.58,0,0,0,1.13.7c3.22,1.15,4.25,4.13,5.73,6.75a9.94,9.94,0,0,0,1.63,2.38,6.62,6.62,0,0,1,1.64,2.57c.51,1.42,1.12,2.8,1.65,4.21.26.68.35,1.44.67,2.09a15,15,0,0,0,1.65,2.75c1.16,1.45,1.22,2,0,3.42a4.46,4.46,0,0,0-.39.57,3,3,0,0,0,3.09,2.26c3.13.12,6.26.21,9.4.31a5.19,5.19,0,0,1,.88,0c3.55.67,7-.11,10.55-.39,3.27-.27,6.53-.88,9.82-.29a3.41,3.41,0,0,0,2.65-.56,31.2,31.2,0,0,1,3-1.57l1.48.94c-.77.83-1.41,1.55-2.08,2.25-1.52,1.59-1.69,2.52-.35,4.25a3.69,3.69,0,0,1,.73,3.56c-.21.7-.3,1.44-.46,2.16-.75,3.28,0,5.16,2.69,7.14.35.26.71.52,1.06.76.37,1.07.33,6.91-.07,9.29-1.45.2-2.92.57-4.4,0-.12-1.73,1.46-1.43,2.18-2.08a5.64,5.64,0,0,0-3-7c-1.74,2.47-3.45,5-5.21,7.41a2.51,2.51,0,0,1-2.75,1.05ZM148.33,193l-.53-.13c.06-1,.08-2,.2-3a3.58,3.58,0,0,0-1-3.1,15.14,15.14,0,0,1-1.33-1.89,2.75,2.75,0,0,1-1.79-1.83,2.87,2.87,0,0,0-1.81-1.66c0,.83,0,1.5,0,2.17a19,19,0,0,1-.68,6.26,4.72,4.72,0,0,0-.06,2,12.92,12.92,0,0,1,0,4.68c-.23.92-.3,1.88-.45,2.86,1.39-.31.63-1.25.74-1.86.69-2.6,3.1-2.91,5-3.58a7.56,7.56,0,0,0,3.25-1.7l-.75-1.48Z"/><path class="cls-9" d="M248.6,187.37a1.75,1.75,0,0,1,.39-2.05,2.3,2.3,0,0,0-.06-3.07c-.68.9.33,2.2-.79,3.05a4.55,4.55,0,0,1-.31-.79,11.26,11.26,0,0,1,.51-6.21c.75-1.82.25-3.7-.11-5.52s-.9-3.83-1.3-5.75c-.6-2.92-1.16-5.85-1.78-9-.32,1.33-.6,2.5-.89,3.67-.94,3.84-.32,7.58.68,11.32.5,1.84.88,3.72,1.26,5.59.21,1.07.17,2.1-.89,2.35-.75,2.53-1.42,4.85-2.14,7.16s-1.51,4.56-2.23,6.85a4.84,4.84,0,0,0-.22,1.6,35.73,35.73,0,0,0,.63,6.68,16.37,16.37,0,0,1,0,4c0,1-.12,1.94-.19,2.92.95.47,1.81.84,2.61,1.29a1.9,1.9,0,0,1,1.08,2.58,11.92,11.92,0,0,1-1.22,2.64A4.16,4.16,0,0,0,243,219a16.06,16.06,0,0,1-.43,3.78c-.37,1.65-1.16,2.16-2.87,2.1-.58,0-1.16-.13-1.86-.21-.25,1.13-1.16,1.54-2.16,1.92A18.08,18.08,0,0,0,233,228a3.29,3.29,0,0,1-4.64-1.12,25.07,25.07,0,0,0,4.77-7.56c1.08-3,.69-6,1.14-8.81-2.14-2.61-4.12-5.11-6.21-7.52a5.7,5.7,0,0,1-1.42-3.32,110.07,110.07,0,0,1-.9-14.07,15.45,15.45,0,0,0-.55-5.14c-1-3.36-.62-6.82-.2-10.25,0-.14,0-.28,0-.72-.32.41-.54.61-.68.85-.69,1.25-1.36,2.5-2,3.76a1.64,1.64,0,0,0-.23.53c-.14,1.84-.29,3.67-.39,5.51,0,.6.3,1.26-.57,1.61-.16.06-.13.62-.2,1h-.73l-.3.71-1-.21c-.42,1.31-.8,2.57-1.22,3.82a5.09,5.09,0,0,1-2,2.68,5,5,0,0,0-2.09,2.2c-.17.41-.81.71-1.3.87a1.65,1.65,0,0,0-1.22,1.78c0,1.08-.13,2.16-.16,3.24a2.8,2.8,0,0,0,.17,1.15,5.17,5.17,0,0,1,.18,3.35l2,4.66a6.67,6.67,0,0,0-.31,4.82,2.17,2.17,0,0,0,.44,1.06,11,11,0,0,1,2.63,4.2,5.64,5.64,0,0,0,2.08,2.39c1,.67,1.19,1.17.69,2.2a12.56,12.56,0,0,1-1.63,2.61,4.58,4.58,0,0,1-5,.85l1.48-2.9c-.48-.66-.87-1.64-1.58-2.08-2.1-1.32-3.38-3.41-5.16-5l-.57-.53a12.24,12.24,0,0,1-1.09,1.71c-1.51,1.7-1.39,3.67-1.08,5.69.12.72.26,1.44.38,2.14-1.21,1.65-4.47,2.69-6.85,2.16-.33-.84.14-1.46.59-2.11s1-1.52,1.46-2.28l-.37-.1c-.13-.75-.32-1.5-.4-2.26a7.85,7.85,0,0,1-.18-2.91c.57-2-.27-4.26,1-6.15.21-.31.11-.85.11-1.29,0-.72-.07-1.45-.1-2.13,1.1-1.12,2-2.22,1.45-3.86-2,2-2,4.65-2.07,7.2-1.51-.11-2-.52-1.92-1.84a40.5,40.5,0,0,1,.71-4.48c.36-1.86.79-3.71,1.24-5.75l-.76-.7,1.62-5.74,2.88-1.84c-.43-1.17-1-.14-1.73-.38l-.6-2-1.62.49c-.59-.75-1.05-1.26-1.43-1.83-.85-1.3-.91-2.66,1.15-3,.33-.06.67-.15,1.17-.26,0-1.43-.33-3.09,1.11-4.12a5.61,5.61,0,0,1,2.23-1c2.21-.38,3.53.54,4.74,2.9l2,1.83.67,0,.46,1.44-2.18,2.25,2.1.18a2.65,2.65,0,0,1-2.57,1.22h5.62c.82-1.45,1.63-2.79,2.33-4.19a2.29,2.29,0,0,0,.2-1.56,3.6,3.6,0,0,1,.35-2.68c2.32-4.87,3.45-10.11,4.81-15.29a17.89,17.89,0,0,1,1.55-4,30.16,30.16,0,0,0,2.49-7.42,3.2,3.2,0,0,1-.45-3.44c.73-2,1.54-4,2.25-5.86,1.85-1.12,3.94-1.08,5.49-2.45a1.11,1.11,0,0,0-1.43-.41,1.08,1.08,0,0,1-1.44-.64c-.49-.94-1-1.87-1.6-3l-1-.46c.45-1.45.55-2.82-.81-3.75-1-4.4,2.74-7.71,6.26-8.41,3-.6,4.33,0,6.14,2.5a8.63,8.63,0,0,1,1.65,4.93,6.43,6.43,0,0,0,.79,2.3c.36.75.86,1.43,1.29,2.14a2.12,2.12,0,0,1,.32,1.95,2.36,2.36,0,0,0,.42,2.08,10.54,10.54,0,0,1,.69,1.93l-.32.29c1.07.42,2.13.87,3.22,1.25a2.36,2.36,0,0,1,1.62,1.38c.57,1.57,1.17,3.14,1.59,4.75a3.37,3.37,0,0,1-.19,2.15,5.13,5.13,0,0,0-.31,2.27c-.23,3.68.58,7.22,1.34,10.78a17,17,0,0,1,.28,4.1,57.12,57.12,0,0,0,.41,11.76,4.92,4.92,0,0,1-.85,4.35A25.27,25.27,0,0,1,248.6,187.37Z"/></g></g></svg>