<svg xmlns="http://www.w3.org/2000/svg" viewBox="0 0 317.39 360.28"><defs><style>.cls-1{fill:#11a14e;}.cls-2{fill:#f3e41e;}.cls-3{fill:#c0c9d4;}.cls-4{fill:#cfd6df;}.cls-5{fill:#d6dbe2;}.cls-6{fill:#e1e4ea;}.cls-7{fill:#dadee3;}.cls-8{fill:#2864ac;}.cls-9{fill:#616160;}.cls-10{fill:#fff;}.cls-11{fill:#333;}.cls-12{fill:#2160aa;}</style></defs><g id="Capa_2" data-name="Capa 2"><g id="Capa_1-2" data-name="Capa 1"><path class="cls-1" d="M267,121.16c-.15,2.41-.43,4.82-.43,7.24q-.06,51-.06,102.08c0,7.51-1.41,8.93-8.78,8.93H62.57c-7.75,0-8.77-1-8.78-8.81q-.13-55-.24-110l11.06-11.15V228.09H255.53c0-18,0-35.56,0-53.13q.11-32.49.32-65Q261.41,115.57,267,121.16Z"/><path class="cls-2" d="M64.61,109.48,53.55,120.63c-4.63,4.51-9.24,9.05-13.91,13.53-3,2.91-6.16,7.14-10.63,2.88-4.64-4.43-.3-7.61,2.65-10.53,25.42-25.27,51-50.42,76.31-75.75,15.42-15.42,30.55-31.11,45.88-46.63,5.45-5.52,6.81-5.48,12.35,0,12.4,12.22,24.85,24.4,37.14,36.74q43,43.2,85.93,86.5c2.87,2.88,5.83,5.93,1.91,9.67-3.72,3.56-6.94,1-9.88-1.91-4.71-4.72-9.55-9.31-14.34-14L255.86,110l-96-92.2Z"/><path class="cls-1" d="M231.37,22.2V56.5c-11.87-8.42-19.72-18.31-15.11-34.3Z"/><path class="cls-3" d="M128.49,253.41l1.26,1.13c-.93,2.35-2.31,4.62-2.71,7.06-1.84,11.31-6.6,21.31-13,30.63a.82.82,0,0,1-.57-.57c2.5-5.42,5.36-10.71,7.41-16.3,1.76-4.8,2.4-10,3.94-14.9C125.57,258,127.23,255.75,128.49,253.41Z"/><path class="cls-3" d="M75.13,289.85q-1.29-5.66-2.56-11.32c2.64-5.59,1.74-12.87-1.83-16.93-3-3.43-2.51-6.43,1.65-8.61,0,.47,0,.94.07,1.41a23.48,23.48,0,0,0,.9,4.85c.56,1.4,2.51,2.56,2.51,3.82C75.82,272,75.42,280.93,75.13,289.85Z"/><path class="cls-4" d="M72.46,254.4c0-.47,0-.94-.07-1.41a89.16,89.16,0,0,1,9.31-1c8.69-.09,17.37.08,26.06.14,0,.41,0,.82,0,1.23-5,.37-9.94,1-14.92,1.08C86.06,254.6,79.26,254.43,72.46,254.4Z"/><path class="cls-5" d="M280.66,333.31a15.4,15.4,0,0,1-2.81-.7,7.67,7.67,0,0,1-1.69-1.46c7-7.77,7.58-11.21,3.3-18.64,5.73,2.47,7.32,9.29,3.71,15.43C282.17,329.64,281.49,331.52,280.66,333.31Z"/><path class="cls-6" d="M201.5,348l-3.66-2c.94-.9,1.83-2.52,2.81-2.57a80.71,80.71,0,0,1,11.94.34c.37,0,.49,2.58.73,4l-10.55-2.07-1.38.41Z"/><path class="cls-4" d="M262.41,347.88c-3.35-2-5.27-9.11-3-11.58.6-.65,2.64-1.05,3-.65a16.89,16.89,0,0,1,2.13,4.12l-2.84-1.62C262,341.77,262.2,344.82,262.41,347.88Z"/><path class="cls-4" d="M222.34,253.05c-.48.44-1,.88-1.43,1.33-8-1.66-15.43-1.64-19.14,7.6l-1.2-.87C204.83,251.45,211.18,249.1,222.34,253.05Z"/><path class="cls-3" d="M144.37,350.3,143,351.69c-2.75-3.48-5.44-7-8.3-10.4-.44-.51-1.69-.32-2.56-.46.83-1.67,1.66-3.33,2.48-5Z"/><path class="cls-5" d="M288.44,346.86c-1.34-1.33-3.11-2.43-3.95-4a103.67,103.67,0,0,1-4-9.61c2,2.24,4.4,4.26,6,6.78C287.67,342,287.83,344.55,288.44,346.86Z"/><path class="cls-3" d="M31,318.86l-.54,26.79Z"/><path class="cls-3" d="M27.42,312.43l3.6,6.51C27.7,317.94,24.83,316.69,27.42,312.43Z"/><path class="cls-4" d="M199.18,268.14c-.11-1-.21-2.05-.31-3.08l1.7-3.95,1.2.87Z"/><path class="cls-6" d="M135.61,322.6l-1.2,3.59Z"/><path class="cls-4" d="M201.39,346.07l1.38-.41Z"/><path class="cls-5" d="M27.28,352.85l.24,0Z"/><path class="cls-7" d="M165.52,254.81l1.33-.91c.27.27.52.54.78.82l-1.18,1.18Z"/><path class="cls-8" d="M229.47,264a15.49,15.49,0,0,0-1.57-2.45c-3.57-3.84-3.19-6.25,1.72-6.81a87.42,87.42,0,0,1,17.42-.24c3.61.31,5.83,2.37,1.89,6a7.3,7.3,0,0,0-2.5,4.48c-.24,8.08-.21,16.17,0,24.26a6.18,6.18,0,0,0,2.27,3.92c3.76,3.09,2.63,5.58-1.28,6.22a84.53,84.53,0,0,1-16.83.86c-2.62-.1-6-1.17-4.13-5.45,1.22-1.45,3.47-2.88,3.49-4.35C230.08,281.57,229.69,272.77,229.47,264Z"/><path class="cls-9" d="M65.64,304.17c-.39,0-.8,0-1.21,0a50.75,50.75,0,0,0-7.57.51A33.63,33.63,0,0,0,48.5,292.6a2.29,2.29,0,0,0-1.14-.53,54.89,54.89,0,0,1,4.33,14c.24,1.46.42,3,.52,4.49,0,.32,0,.65,0,1,.05.76.07,1.54.07,2.32-.4-.41-.78-.82-1.15-1.21l-.42-.46c-.93-1-1.77-1.9-2.69-2.72-1.92-1.71-3.83-3.41-5.76-5.1q-3.5-3.08-7-6.08c-7.06-6-13.81-12.34-19.36-19.83a83,83,0,0,1-9.64-16.94A71.66,71.66,0,0,1,1.35,246,81.07,81.07,0,0,1,.19,235.83a177.49,177.49,0,0,1,1.43-31.36,12.35,12.35,0,0,1,6.07,3.63,8,8,0,0,1,1.73,3.52,76.07,76.07,0,0,1,1.08,7.69,138.53,138.53,0,0,0,3.3,20.25,54.43,54.43,0,0,0,13.55,24.79c6.35,6.52,14.39,9.76,23.28,11a13.37,13.37,0,0,0,1.41,0c-.64-.91-1.09-1.56-1.55-2.2-3.46-4.72-7.13-9.29-9.84-14.5a23.06,23.06,0,0,1-3.08-10.22,14.67,14.67,0,0,1,2.83-8.9c1,1,1.92,1.92,2.79,2.88,7.51,8.31,14.87,16.74,21.67,25.66,0,.36,0,.75,0,1.16,0,10.74-.25,15.52-.48,17.66a9.05,9.05,0,0,0-2,1.09l-.25.19A8.9,8.9,0,0,0,59,295.1,9.38,9.38,0,0,0,61,300.81,9.82,9.82,0,0,0,65.64,304.17Z"/><path class="cls-10" d="M82.39,305.2a24.2,24.2,0,0,1-.94,5.18,10.54,10.54,0,0,0-5.69-4.71,11.86,11.86,0,0,0-1.19-.39c.84,0,1.72,0,2.66,0C79.08,305.31,80.79,305.27,82.39,305.2Z"/><path class="cls-11" d="M64.82,291.33l.08-.06a10.37,10.37,0,0,1,2.27-1.08c.28-.1,1-.37,1.2-2.08a135.53,135.53,0,0,0,.58-14.5l.56.79c2.68,3.78,5.23,7.66,7.64,11.6a35,35,0,0,1,4.94,13q.09.52.15,1.05c0,.35.08.7.11,1-1.57.09-3.27.13-5.12.13-4.9,0-8.23-.3-10.19-.9a5.5,5.5,0,0,1-2.83-2,5.24,5.24,0,0,1-1.1-3.23A4.79,4.79,0,0,1,64.82,291.33Z"/><path class="cls-9" d="M17.12,237.58c-.17-4.32-.45-8.64-.47-13A39.49,39.49,0,0,1,17.4,218a8,8,0,0,1,2.52-4.51c1.82-1.73,3.95-1.38,5.13.87a9.34,9.34,0,0,1,1,5.09,26.81,26.81,0,0,1-4.16,12.16c-1.3,2.11-2.79,4.1-4.2,6.14Z"/><path class="cls-9" d="M315.77,204.64a12.38,12.38,0,0,0-6.07,3.63A8,8,0,0,0,308,211.8a75.47,75.47,0,0,0-1.08,7.68,136.12,136.12,0,0,1-3.31,20.25A54.27,54.27,0,0,1,290,264.52c-6.35,6.52-14.39,9.75-23.28,11a11,11,0,0,1-1.41,0c.64-.91,1.09-1.57,1.56-2.2,3.44-4.71,7.12-9.28,9.83-14.49a23.27,23.27,0,0,0,3.08-10.22,14.71,14.71,0,0,0-2.82-8.92c-1,1-1.93,1.93-2.8,2.89-7.48,8.28-14.81,16.68-21.59,25.54,0,1.25-.06,2.8-.06,4.75,0,8.33.21,12.11.37,13.78a9,9,0,0,1,5,7.94c0,2.2-.85,7.52-8.61,9.43-.9.22-1.84.4-2.83.57l0,.07a28.7,28.7,0,0,1,3.23-.16c.94,0,2.75.1,6.06.35.26,0,.85.05,2.26.05.72,0,1.54,0,2.46-.05a33.84,33.84,0,0,1,8.39-12.11,2.34,2.34,0,0,1,1.14-.54,56.51,56.51,0,0,0-4,12.29c2.24-.17,3.74-.23,4.73-.23a31.74,31.74,0,0,1,4.31.28q3.51-3.09,7.07-6.12c7.06-6,13.8-12.34,19.35-19.83a83,83,0,0,0,9.64-16.95,72.34,72.34,0,0,0,4.95-15.48A82.79,82.79,0,0,0,317.2,236,177.56,177.56,0,0,0,315.77,204.64Z"/><path class="cls-9" d="M300.27,237.75c.17-4.32.45-8.64.46-13a38.47,38.47,0,0,0-.74-6.66,8,8,0,0,0-2.52-4.51c-1.82-1.73-4-1.38-5.13.87a9.25,9.25,0,0,0-1,5.09,26.81,26.81,0,0,0,4.16,12.16c1.29,2.11,2.79,4.1,4.2,6.14Z"/><path class="cls-10" d="M116.38,261.53a11,11,0,0,1-2.24,7,9,9,0,0,1-7.2,3.5h-.5c.07.86.09,1.77.09,2.74,0,5.34-.87,9.37-2.65,12.3a9.28,9.28,0,0,1-6.06,4.41,8.69,8.69,0,0,1,.75,3.57c0,3.49-2,7.71-7.53,9.06a48,48,0,0,1-8.65,1.12,25.69,25.69,0,0,0,0-4.11c-1.57.09-3.27.13-5.12.13-4.9,0-8.23-.3-10.19-.9a5.5,5.5,0,0,1-2.83-2,5.24,5.24,0,0,1-1.1-3.23,4.79,4.79,0,0,1,1.71-3.77l.08-.06a10.37,10.37,0,0,1,2.27-1.08c.28-.1,1-.37,1.2-2.08a135.53,135.53,0,0,0,.58-14.5h0l-1.27-1.74q-1.4-1.91-2.82-3.76c0-2.67-.1-4.18-.17-5A10.44,10.44,0,0,1,61.63,261a8,8,0,0,1-2.11-5.61,8.76,8.76,0,0,1,4-7.34,12,12,0,0,1,6.92-2c1.07,0,2.52.08,4.44.22,3.53.28,7.84.43,12.82.43,9.84,0,14-.34,15.73-.61l.31,0a14,14,0,0,1,1.5-.1,8.61,8.61,0,0,1,6.84,3.55A19.2,19.2,0,0,1,116.38,261.53Z"/><path class="cls-10" d="M112.28,261.53a7,7,0,0,1-1.37,4.45,4.86,4.86,0,0,1-4,1.94,4.53,4.53,0,0,1-2.88-.85,31.52,31.52,0,0,1-3.37-3.56,5.31,5.31,0,0,0-2.81-1.77,40.6,40.6,0,0,0-7.64-.66,2.76,2.76,0,0,0-1.29.2,13.46,13.46,0,0,0-.6,2.94,32.47,32.47,0,0,0-.34,4.46,1.49,1.49,0,0,0,0,.24,6.83,6.83,0,0,0,2.11.21,2.21,2.21,0,0,0,1.14-.18,1.51,1.51,0,0,0,.34-.81c.93-4.44,3.48-5.11,4.92-5.11,3.93,0,5.91,3.94,5.91,11.71,0,4.57-.67,7.89-2.06,10.17a5.06,5.06,0,0,1-4.49,2.65c-1.09,0-3.63-.41-4.08-4.25a10.29,10.29,0,0,0-.32-2.06,2,2,0,0,0-.5-.65,3,3,0,0,0-2.09-.6,3.67,3.67,0,0,0-.77.07,4.14,4.14,0,0,0,0,.72s0,0,0,.07c0,.19,0,1.25,0,3.19,0,5,.72,5.92.76,6l.09.11a.37.37,0,0,0,.1.11,17.77,17.77,0,0,0,1.85.33,4.08,4.08,0,0,1,2.62,1.58,4.59,4.59,0,0,1,1,2.88c0,1.5-.58,4.15-4.41,5.09a44.11,44.11,0,0,1-7.72,1c-1.57.09-3.27.13-5.12.13-4.9,0-8.23-.3-10.19-.9a5.5,5.5,0,0,1-2.83-2,5.24,5.24,0,0,1-1.1-3.23,4.79,4.79,0,0,1,1.71-3.77l.08-.06a10.37,10.37,0,0,1,2.27-1.08c.28-.1,1-.37,1.2-2.08a135.53,135.53,0,0,0,.58-14.5h0c0-1.36,0-2.81,0-4.34,0-5.15-.21-7.17-.4-7.95a1.84,1.84,0,0,0-1.14-1.44,8.48,8.48,0,0,1-2.8-1.72,4,4,0,0,1-1-2.81,4.68,4.68,0,0,1,2.22-4,8,8,0,0,1,4.61-1.31c1,0,2.31.06,4.12.2,3.63.3,8.06.45,13.14.45,8.11,0,13.62-.23,16.37-.67h.07a10.85,10.85,0,0,1,1.1-.08,4.64,4.64,0,0,1,3.65,2A15.14,15.14,0,0,1,112.28,261.53Z"/><path class="cls-10" d="M149.74,301.25a72.6,72.6,0,0,1-11.71-.68,6.84,6.84,0,0,1-3.6-1.69,4.76,4.76,0,0,1-1.57-3.55,3.89,3.89,0,0,1,1-2.78,6.3,6.3,0,0,1,2.68-1.51,1.2,1.2,0,0,0,.4-.19c0-.38,0-.75-1.26-.92a63.1,63.1,0,0,0-8.08-.39,18,18,0,0,0-4.5.3,1.79,1.79,0,0,0-.27.44,3.13,3.13,0,0,0-.22.68l.91.31a4.21,4.21,0,0,1,3.32,4.13c0,3.86-3.86,5.81-11.46,5.81a33,33,0,0,1-8.59-.82,4.74,4.74,0,0,1-3.66-4.82,4.07,4.07,0,0,1,1-2.82,6.27,6.27,0,0,1,2.61-1.53,5.6,5.6,0,0,0,2.56-1.64,29.78,29.78,0,0,0,3-5.67l4.8-10.52a77.59,77.59,0,0,0,3.48-8.46,17.79,17.79,0,0,0,.86-5.13,18.84,18.84,0,0,1,.42-4.52,6.91,6.91,0,0,1,1.9-3,9.8,9.8,0,0,1,7.24-2.89,11.7,11.7,0,0,1,7.71,3.11c3.12,2.63,7.41,9.83,13.11,22l6.44,13.79a8.29,8.29,0,0,0,1.16,2,1.91,1.91,0,0,0,.93.32c2.49.38,3.93,1.92,3.93,4.22,0,1.39-.54,3.92-4.16,5.23C157.93,300.86,154.53,301.25,149.74,301.25ZM133,277.78a40.13,40.13,0,0,0-2-3.69,17.34,17.34,0,0,0-1.49-2.32,4.45,4.45,0,0,0-.44.94.61.61,0,0,1-.05.12c0,.11-.23.55-1,2.36-.5,1.23-.81,2.05-1,2.59Z"/><path class="cls-10" d="M211.09,301.25a34.31,34.31,0,0,1-9.07-.89c-3.83-1.12-4.4-3.5-4.4-4.82a3.87,3.87,0,0,1,.77-2.42,15.35,15.35,0,0,1,2.39-2.21s.37-.31.58-1.67a49.44,49.44,0,0,0,.31-6.67c0-.88,0-1.52,0-2a41.29,41.29,0,0,0-2.41,4.81l-4.08,9.15a18.13,18.13,0,0,1-1.94,3.51,3.55,3.55,0,0,1-2.8,1.45,3.46,3.46,0,0,1-2.64-1.23,16.92,16.92,0,0,1-2-3.36c-.91-1.75-1.68-3.33-2.28-4.7l-4.33-9.74c-.11,2.15-.16,4.18-.16,6a19.9,19.9,0,0,0,.27,4.3,1.18,1.18,0,0,0,.11.27,16,16,0,0,0,1.75,1,3.83,3.83,0,0,1,2.09,3.58c0,5.57-8.68,5.57-11.53,5.57-6.64,0-10-1.84-10-5.47a3.57,3.57,0,0,1,.94-2.62,9.45,9.45,0,0,1,2.68-1.62h0A1.32,1.32,0,0,0,166,291a12.41,12.41,0,0,0,.52-2.91c.2-1.77.39-4.74.57-8.83s.27-7.66.27-10.56c0-4.51-.44-6.22-.71-6.83a1.22,1.22,0,0,0-.23-.39,6.46,6.46,0,0,0-1.12-.64c-2.79-1.34-3.39-3.22-3.39-4.57a4.86,4.86,0,0,1,1.37-3.36,6.64,6.64,0,0,1,3.21-1.91,29,29,0,0,1,4.26-.81,34.89,34.89,0,0,1,4.46-.34,19.65,19.65,0,0,1,6.81.84,5.18,5.18,0,0,1,2.07,1.39,13.51,13.51,0,0,1,1.7,2.72l7.07,13a22.22,22.22,0,0,0,1.27,2.17h0a6.64,6.64,0,0,0,.9-1.45l4.8-9.36c.58-1.18,1-2,1.15-2.33a13.09,13.09,0,0,1,3.88-5.19c1.68-1.19,4.49-1.78,8.55-1.78,7.56,0,11.39,2.07,11.39,6.15a4.65,4.65,0,0,1-.64,2.52,7.58,7.58,0,0,1-2,1.93,3.62,3.62,0,0,0-1.28,2.34,69.3,69.3,0,0,0-.76,11.12,123.86,123.86,0,0,0,.8,15,4.07,4.07,0,0,0,.32,1.37,9.1,9.1,0,0,0,1.73,1.29,4.26,4.26,0,0,1,2,3.65c0,1.38-.57,3.86-4.4,5a17.66,17.66,0,0,1-3.8.79C215.53,301.19,213.66,301.25,211.09,301.25Z"/><path class="cls-10" d="M253.8,294.62c0,1.87-1,4.34-5.49,5.45a49.21,49.21,0,0,1-11.42,1.15c-.48,0-1.12,0-1.84,0-3.4-.09-8.88-.65-10.53-3.86a4.4,4.4,0,0,1-.49-2.1,3.85,3.85,0,0,1,.52-2,6.79,6.79,0,0,1,2.51-2.41,2.23,2.23,0,0,0,1.15-1.59c.41-2.47.63-7.92.63-16.18,0-7-.43-9.57-.79-10.57a3.49,3.49,0,0,0-1.55-1.62l0,0a9.3,9.3,0,0,1-2.29-1.93,1.77,1.77,0,0,1-.16-.22,4.44,4.44,0,0,1,.24-5.1,5.08,5.08,0,0,1,1.32-1.15,17.45,17.45,0,0,1,5.58-1.78,46,46,0,0,1,8.94-.88,39.87,39.87,0,0,1,7.66.71c5,1,6.05,3.62,6.05,5.65a3.76,3.76,0,0,1-.93,2.67,9.6,9.6,0,0,1-2.82,1.82c-.66.33-1,1.37-1.13,2.19a67.68,67.68,0,0,0-.47,10v.85c0,9.88.34,13.55.61,14.86a1.55,1.55,0,0,0,.3.71,5.05,5.05,0,0,0,1.2.75A4.91,4.91,0,0,1,253.8,294.62Z"/><path class="cls-10" d="M75.75,349.22c-1.13-.64-1.57-.93-1.73-1a5.14,5.14,0,0,1-.21-.61c-.16-.62-.44-2.51-.44-8.33,0-2.59.07-6.16.21-10.59.07-2.54.13-4.21.18-5.3.07-1.48.11-1.91.13-2.05a4.58,4.58,0,0,1,.33-1.32,3.88,3.88,0,0,1,1.08-.63,5.05,5.05,0,0,0,3.11-4.65c0-1.66-.71-3.9-4.11-5.2-2.22-.85-5.44-1.26-9.87-1.26a49.42,49.42,0,0,0-6.14.35,31.24,31.24,0,0,0-3.16.55,7.48,7.48,0,0,0-2.92,1.4,6.49,6.49,0,0,0-.72.67,6,6,0,0,0-.73,1,4.74,4.74,0,0,0-.69,1.74c-.44-5.71-9.38-5.71-12.37-5.71a42.35,42.35,0,0,0-8.31.81c-5.37,1.07-8.08,3.26-8.08,6.5a4,4,0,0,0,2.46,3.72c1.72.86,2,1.33,2,1.35a7.73,7.73,0,0,1,.27,3c0,.8,0,3.85.13,9.37,0,1.1,0,2,0,2.79a84.63,84.63,0,0,1-.5,10.22,5.86,5.86,0,0,1-.41,1.9,1.3,1.3,0,0,1-.59.48,10.06,10.06,0,0,0-2.89,2,4.21,4.21,0,0,0-1,2.91,4.72,4.72,0,0,0,1.34,3.25,7.41,7.41,0,0,0,3.14,1.92A31.7,31.7,0,0,0,35,359.63a28.81,28.81,0,0,0,10-1.38c3.66-1.4,4.43-3.64,4.43-5.29a4.63,4.63,0,0,0-2.29-4.2,6.33,6.33,0,0,1-1.21-.87c-.36-.6-.79-1.87-.79-4.59a32.72,32.72,0,0,1,.19-3.79,1.19,1.19,0,0,1,.06-.29,29.71,29.71,0,0,1,6.81-.46,10.13,10.13,0,0,1,2.06.14,5.93,5.93,0,0,1,.1,1.27,32.1,32.1,0,0,1-.57,6.61,5.07,5.07,0,0,1-.46,1.44,2.22,2.22,0,0,1-.71.51,5,5,0,0,0-2.92,4.58c0,1.29.47,3.65,3.71,5,2.16.9,5.3,1.33,9.62,1.33,4.86,0,8.34-.43,10.61-1.29,3.49-1.33,4.22-3.67,4.22-5.41A4.1,4.1,0,0,0,75.75,349.22ZM49.2,317.33a4.56,4.56,0,0,0,.79-1.9,4,4,0,0,0,.84,2.19,8.34,8.34,0,0,0,2.51,1.89,1.91,1.91,0,0,1,.73,1.27,30.25,30.25,0,0,1,.36,5.87,2.28,2.28,0,0,1,0,.31,21.06,21.06,0,0,1-3.43.18c-2.52,0-4.13,0-4.77-.07a2.72,2.72,0,0,1-.62-.09,4.57,4.57,0,0,1-.17-1.49,24.13,24.13,0,0,1,.29-4.92,1.82,1.82,0,0,1,.9-1.09A8.74,8.74,0,0,0,49.2,317.33Z"/><path class="cls-10" d="M131.83,331.51a27.23,27.23,0,0,0-2.68-8.61,31.85,31.85,0,0,0-1.67-2.91,27.53,27.53,0,0,0-3.76-4.64c-.23-.23-.46-.45-.7-.65a.25.25,0,0,0-.09-.09c-.48-.44-1-.85-1.46-1.24A26.31,26.31,0,0,0,105.1,308a34.8,34.8,0,0,0-5,.36,27.94,27.94,0,0,0-5.92,1.53,25.39,25.39,0,0,0-11.79,8.69,24.45,24.45,0,0,0-3.72,7.25,26.25,26.25,0,0,0-1.23,8.1,25.72,25.72,0,0,0,3.84,13.69,24.55,24.55,0,0,0,11,9.64,28.74,28.74,0,0,0,12,2.6,31.06,31.06,0,0,0,9.5-1.51,26.75,26.75,0,0,0,12.54-8.27,23.46,23.46,0,0,0,5.63-13.32c.06-.71.1-1.44.1-2.18A24.47,24.47,0,0,0,131.83,331.51Zm-33-8.46a3.42,3.42,0,0,1,3-1.75,4.57,4.57,0,0,1,2.47.93,9.3,9.3,0,0,1,2.51,2.77,29.07,29.07,0,0,1,3.25,7.67,32,32,0,0,1,1.26,8.42,6.07,6.07,0,0,1-1.19,4,3.39,3.39,0,0,1-2.81,1.29,4,4,0,0,1-2.2-.71,6.61,6.61,0,0,1-2.05-2.09A37.85,37.85,0,0,1,99.3,335a29,29,0,0,1-1.49-8.38A6.09,6.09,0,0,1,98.82,323.05Z"/><path class="cls-10" d="M159.71,359.87a29.67,29.67,0,0,1-14.53-3.66,25.32,25.32,0,0,1-10.44-10.52,25.58,25.58,0,0,1-3-12.16,24.21,24.21,0,0,1,3.59-12.62A25.59,25.59,0,0,1,146,311.06,29,29,0,0,1,159.41,308a29.39,29.39,0,0,1,8.94,1.35,8.23,8.23,0,0,0,1.89.49,10.93,10.93,0,0,0,2.26-.68h0a6.29,6.29,0,0,1,2-.33c1.84,0,3.53,1,5,2.93a14.39,14.39,0,0,1,3.16,9,9,9,0,0,1-1.88,5.85,6.57,6.57,0,0,1-5.26,2.44,8.14,8.14,0,0,1-4.93-1.78,22.87,22.87,0,0,1-3.14-3.5c-2.16-2.65-4.53-3.94-7.25-3.94a6.83,6.83,0,0,0-5.66,2.57c-1.47,1.83-2.21,4.39-2.21,7.62a21.28,21.28,0,0,0,3.82,12.82,10.36,10.36,0,0,0,3.19,2.82,7,7,0,0,0,3.45,1,2.15,2.15,0,0,0,1.65-.64,2.39,2.39,0,0,0,.64-1.78,1.24,1.24,0,0,0-.22-.89l0,0c-.16,0-.58,0-1.6,0a5.17,5.17,0,0,1-3.65-1.43,4.91,4.91,0,0,1-1.51-3.63c0-1.88.86-4.39,5-5.7a33.73,33.73,0,0,1,10-1.38,35.54,35.54,0,0,1,10.18,1.27c4.32,1.35,5,4.26,5,5.87a4.79,4.79,0,0,1-1.33,3.34,5.32,5.32,0,0,1-3.28,1.61,3.79,3.79,0,0,0-.51.1,8.42,8.42,0,0,0-.29.89,19.53,19.53,0,0,1-6.27,9.94,23.17,23.17,0,0,1-7.65,4.21A28.79,28.79,0,0,1,159.71,359.87Z"/><path class="cls-10" d="M241.57,350.15a5,5,0,0,0-2.63-1.13,1.85,1.85,0,0,1-.93-.33,8.47,8.47,0,0,1-1.16-2l-6.43-13.79,0-.06c-5.69-12.14-10-19.32-13.08-21.95a11.79,11.79,0,0,0-7.72-3.11,9.82,9.82,0,0,0-7.23,2.89,7,7,0,0,0-1.91,3,19.48,19.48,0,0,0-.42,4.53,18.11,18.11,0,0,1-.85,5.13,82,82,0,0,1-3.48,8.46l-.34.74-4.47,9.78a30.18,30.18,0,0,1-3,5.66,5.61,5.61,0,0,1-2.57,1.64,6.38,6.38,0,0,0-2.61,1.54,4.06,4.06,0,0,0-1,2.82,4.75,4.75,0,0,0,3.66,4.82,33,33,0,0,0,8.59.82c7.6,0,11.46-2,11.46-5.81a4.19,4.19,0,0,0-3.31-4.13l-.92-.31a3,3,0,0,1,.22-.68,2.47,2.47,0,0,1,.27-.45,18.68,18.68,0,0,1,4.5-.3c1.06,0,2,0,2.95,0a47.47,47.47,0,0,1,5.14.35c1.21.18,1.25.54,1.25.93a1.45,1.45,0,0,1-.4.19,7.11,7.11,0,0,0-2.23,1.11,2.78,2.78,0,0,0-.44.39,3.92,3.92,0,0,0-1,2.79A4.75,4.75,0,0,0,213,357.3a7,7,0,0,0,3.6,1.69,74.15,74.15,0,0,0,11.71.67c4.79,0,8.2-.39,10.41-1.2a6.71,6.71,0,0,0,3-1.94,5,5,0,0,0,1.19-3.28A4,4,0,0,0,241.57,350.15Zm-34.95-16.54c.73-1.81.92-2.26,1-2.36a.5.5,0,0,0,0-.13,5,5,0,0,1,.44-.94,16.72,16.72,0,0,1,1.49,2.33,36.53,36.53,0,0,1,2,3.69h-5.9C205.81,335.65,206.12,334.83,206.62,333.61Z"/><path class="cls-10" d="M295.78,350.91a3.76,3.76,0,0,0-2-1.56l0,0a5.68,5.68,0,0,1-1.84-.74,5.89,5.89,0,0,1-.48-2c-.51-3.9-1.37-6.77-2.64-8.75a11.62,11.62,0,0,0-6-4.57,11.28,11.28,0,0,0,4.31-4.28,12.79,12.79,0,0,0,1.74-6.58,12,12,0,0,0-5-10.2,21.65,21.65,0,0,0-13.1-3.85h0c-.91,0-2.43.08-4.66.24l-.7.06c-2.52.19-4.65.31-6.36.34h-1c-1.18,0-2,0-2.57-.07-3.11-.23-4.94-.34-5.75-.34a18.23,18.23,0,0,0-4.44.43,7.77,7.77,0,0,0-3.5,1.81,4.76,4.76,0,0,0-1.51,3.47,4.07,4.07,0,0,0,.93,2.69,7.72,7.72,0,0,0,2.56,1.74,2,2,0,0,1,1.14,1.38,22.13,22.13,0,0,1,.4,5.09c0,.28,0,.57,0,.88,0,9.85-.05,15.64-.17,17.21a14.79,14.79,0,0,1-.61,4.11,3.34,3.34,0,0,1-1.37,1.52,14.06,14.06,0,0,0-1.59,1.2,5.28,5.28,0,0,0-.53.58,3.81,3.81,0,0,0-.74,2.37,4.75,4.75,0,0,0,1.38,3.43c3,3.1,10.21,3.1,13,3.1,4.75,0,8.08-.34,10.17-1,3.53-1.17,4.05-3.54,4.05-4.86a5,5,0,0,0-2.92-4.49,4.54,4.54,0,0,1-.86-.56.87.87,0,0,1-.11-.3,30.11,30.11,0,0,1-.5-6.33,16.86,16.86,0,0,1,.14-2.66h.07a3,3,0,0,1,2.19.85,8.81,8.81,0,0,1,1.59,3.79,69.75,69.75,0,0,0,2.18,7.63,15.76,15.76,0,0,0,2.49,4.44c2.24,2.76,5.9,4.16,10.86,4.16a20.54,20.54,0,0,0,8.58-1.5,7.42,7.42,0,0,0,2.76-2.21,5.25,5.25,0,0,0,1.17-3.2A4.31,4.31,0,0,0,295.78,350.91Zm-27.63-26.85a6,6,0,0,1-.92,3.79,4,4,0,0,1-3,1h0v-.54l.37-7.9a3.36,3.36,0,0,1,.17-1.05,1.78,1.78,0,0,1,.56-.06C266.19,319.25,268.15,319.25,268.15,324.06Z"/><path class="cls-12" d="M89.08,259c-1.57,0-2.53.4-2.9,1.19a14.73,14.73,0,0,0-.76,3.48,34.28,34.28,0,0,0-.36,4.69,1.84,1.84,0,0,0,.82,1.74,6.65,6.65,0,0,0,3.06.48,3.58,3.58,0,0,0,2.21-.55,2.94,2.94,0,0,0,1-1.84q.78-3.71,3.2-3.71,4.16,0,4.16,9.94c0,4.2-.61,7.29-1.81,9.26a3.34,3.34,0,0,1-3,1.81c-1.34,0-2.12-.9-2.32-2.69a11.28,11.28,0,0,0-.42-2.45A3.47,3.47,0,0,0,91,279,4.54,4.54,0,0,0,87.72,278a2.93,2.93,0,0,0-2.08.55,2.8,2.8,0,0,0-.48,2.07c0,.18,0,1.24,0,3.17q0,5.89,1.22,7.18a2.15,2.15,0,0,0,.84.67,17,17,0,0,0,2.23.42,2.33,2.33,0,0,1,1.5.92,2.82,2.82,0,0,1,.61,1.8c0,1.75-1,2.88-3.06,3.37A56.17,56.17,0,0,1,76,299.18q-7,0-9.67-.82A3.82,3.82,0,0,1,64.43,297a3.51,3.51,0,0,1-.75-2.18,3,3,0,0,1,1.09-2.41,13.18,13.18,0,0,1,1.87-.86c1.27-.49,2-1.65,2.28-3.47q.61-4.18.62-19.1a46.75,46.75,0,0,0-.45-8.34A3.61,3.61,0,0,0,67,258a7.44,7.44,0,0,1-2.23-1.31,2.31,2.31,0,0,1-.53-1.62,3,3,0,0,1,1.47-2.5,6.19,6.19,0,0,1,3.6-1q1.36,0,4,.21,5.55.44,13.27.44,12.36,0,16.65-.68a7.27,7.27,0,0,1,.89-.07,3,3,0,0,1,2.28,1.36,13.33,13.33,0,0,1,3,8.45,5.32,5.32,0,0,1-1,3.37,3.13,3.13,0,0,1-2.59,1.26,2.84,2.84,0,0,1-1.8-.48,38.1,38.1,0,0,1-3.14-3.34,7.05,7.05,0,0,0-3.69-2.31A44,44,0,0,0,89.08,259Z"/><path class="cls-12" d="M149.06,275l6.44,13.79a9.5,9.5,0,0,0,1.53,2.5,3.35,3.35,0,0,0,1.87.8c1.64.26,2.45,1.08,2.45,2.49q0,2.49-3,3.57t-9.81,1.09a73,73,0,0,1-11.4-.64,5.22,5.22,0,0,1-2.71-1.25,3,3,0,0,1-1-2.26,2.21,2.21,0,0,1,.52-1.58,4.91,4.91,0,0,1,2-1c1.07-.36,1.6-1,1.6-1.84,0-1.52-.92-2.42-2.76-2.69a65.24,65.24,0,0,0-8.34-.41c-3,0-4.82.19-5.41.55a2.69,2.69,0,0,0-1,1.22,4.11,4.11,0,0,0-.41,1.71,1.23,1.23,0,0,0,.29,1,9.37,9.37,0,0,0,1.89.73,2.47,2.47,0,0,1,2.08,2.45q0,4-9.71,4.05a31.69,31.69,0,0,1-8.1-.75,3,3,0,0,1-2.38-3.13,2.33,2.33,0,0,1,.52-1.63,4.77,4.77,0,0,1,1.89-1.06,7.24,7.24,0,0,0,3.36-2.2,33.19,33.19,0,0,0,3.25-6l4.8-10.52a84.44,84.44,0,0,0,3.56-8.66,19.57,19.57,0,0,0,.93-5.64,17.59,17.59,0,0,1,.36-4.07,5.1,5.1,0,0,1,1.45-2.22,8,8,0,0,1,6-2.39,10,10,0,0,1,6.57,2.69Q140.75,257.24,149.06,275Zm-23.69,4.29H132c1.23,0,1.84-.27,1.84-.81q0-1.12-2.55-5.52a19.82,19.82,0,0,0-1.77-2.69,1.77,1.77,0,0,0-1.3-.68c-.81,0-1.5.76-2,2.28-.09.21-.42,1-1,2.42a19.3,19.3,0,0,0-1.43,4.15C123.8,279,124.32,279.26,125.37,279.26Z"/><path class="cls-12" d="M196.42,284.41l-4.09,9.15a16.36,16.36,0,0,1-1.7,3.12,1.85,1.85,0,0,1-1.43.8,1.76,1.76,0,0,1-1.33-.65,21.68,21.68,0,0,1-1.72-3c-.89-1.72-1.64-3.25-2.23-4.59l-4.49-10.11c-.61-1.41-1.26-2.11-1.94-2.11s-1.12.6-1.19,1.8q-.24,4-.24,7.42a21.73,21.73,0,0,0,.34,4.8,2.34,2.34,0,0,0,.63,1.09,13.36,13.36,0,0,0,2.13,1.23,2.05,2.05,0,0,1,1.12,2q0,3.81-9.77,3.81-8.23,0-8.24-3.71a1.86,1.86,0,0,1,.43-1.38,9.79,9.79,0,0,1,2.19-1.28,2.83,2.83,0,0,0,1.52-1.39,13.52,13.52,0,0,0,.66-3.44c.21-1.82.4-4.79.58-8.94s.27-7.68.27-10.64q0-5.53-.85-7.52a2.81,2.81,0,0,0-.7-1,7.81,7.81,0,0,0-1.48-.89c-1.61-.77-2.41-1.77-2.41-3a3.16,3.16,0,0,1,.9-2.18,5,5,0,0,1,2.4-1.4,26.79,26.79,0,0,1,4-.76,33.28,33.28,0,0,1,4.24-.33,18.41,18.41,0,0,1,6.16.72,3.45,3.45,0,0,1,1.39.92,13.47,13.47,0,0,1,1.47,2.38l7.08,13a16.25,16.25,0,0,0,1.6,2.62,1.58,1.58,0,0,0,1.23.48,1.68,1.68,0,0,0,1.2-.51,7.58,7.58,0,0,0,1.25-1.91l4.8-9.36,1.15-2.35a11.86,11.86,0,0,1,3.31-4.53q2.07-1.45,7.55-1.46,9.64,0,9.64,4.39a2.91,2.91,0,0,1-.38,1.58,6.17,6.17,0,0,1-1.53,1.45,5.31,5.31,0,0,0-2,3.44,69.93,69.93,0,0,0-.79,11.44,125,125,0,0,0,.82,15.21,5.11,5.11,0,0,0,.63,2.18,9.49,9.49,0,0,0,2.2,1.74,2.51,2.51,0,0,1,1.22,2.18q0,2.39-3.16,3.37a15.45,15.45,0,0,1-3.44.71c-1.2.12-3,.17-5.55.17a33.5,33.5,0,0,1-8.58-.81c-2.09-.62-3.13-1.66-3.13-3.14a2.08,2.08,0,0,1,.41-1.34,16.08,16.08,0,0,1,2.11-1.92,4.39,4.39,0,0,0,1.21-2.76,52,52,0,0,0,.32-6.95,15.42,15.42,0,0,0-.26-3.57,1,1,0,0,0-1.07-.85c-.63,0-1.25.44-1.84,1.31A41.72,41.72,0,0,0,196.42,284.41Z"/><path class="cls-12" d="M238.9,251.31a37.13,37.13,0,0,1,7.32.69q4.64.92,4.63,3.91a2.08,2.08,0,0,1-.46,1.48,9.83,9.83,0,0,1-2.33,1.45c-1,.52-1.73,1.67-2.06,3.44a69.08,69.08,0,0,0-.49,10.35q0,13,.65,16.1a3.19,3.19,0,0,0,.73,1.51,5.88,5.88,0,0,0,1.72,1.14,3.21,3.21,0,0,1,2.24,3q0,2.72-4.15,3.74a47.19,47.19,0,0,1-11,1.09q-11.08,0-11.09-4.22c0-1,.72-2,2.17-2.86a4,4,0,0,0,2-2.79q.65-3.88.65-16.48,0-8.71-.89-11.17a5.08,5.08,0,0,0-2.28-2.52,8.16,8.16,0,0,1-1.87-1.53,2.46,2.46,0,0,1-.48-1.56,2.65,2.65,0,0,1,1.41-2.34,16.44,16.44,0,0,1,5-1.54A43.65,43.65,0,0,1,238.9,251.31Z"/><path class="cls-12" d="M36.51,309.7q10.64,0,10.63,4.39a3.25,3.25,0,0,1-.55,1.94,7.14,7.14,0,0,1-2.08,1.67,3.59,3.59,0,0,0-1.68,2.14,25.31,25.31,0,0,0-.36,5.38c0,1.59.3,2.56.89,2.93a3.32,3.32,0,0,0,1.55.41c.69,0,2.32.06,4.88.06a14.67,14.67,0,0,0,4.36-.37c.57-.25.85-.87.85-1.87a32.42,32.42,0,0,0-.41-6.27A3.4,3.4,0,0,0,53,317.7a7.09,7.09,0,0,1-2-1.45,2.46,2.46,0,0,1-.48-1.58,3.64,3.64,0,0,1,1.06-2.54,5.32,5.32,0,0,1,2.75-1.55,38.77,38.77,0,0,1,8.89-.85c4.17,0,7.26.38,9.24,1.14s3,1.95,3,3.56a3.26,3.26,0,0,1-2.11,3.06,4.54,4.54,0,0,0-1.74,1.18,5.23,5.23,0,0,0-.64,2.09c-.09.57-.21,3.09-.34,7.56s-.21,8-.21,10.65q0,6.91.51,8.79a3.13,3.13,0,0,0,.62,1.36,14.05,14.05,0,0,0,2.14,1.36A2.34,2.34,0,0,1,75,352.66c0,1.72-1,3-3.08,3.76s-5.38,1.17-10,1.17c-4,0-7-.39-8.95-1.19-1.75-.72-2.62-1.85-2.62-3.37a3.36,3.36,0,0,1,2-3,3.68,3.68,0,0,0,1.35-1.09,6.85,6.85,0,0,0,.7-2,34.1,34.1,0,0,0,.61-7c0-1.43-.21-2.31-.63-2.65s-1.51-.51-3.29-.51c-4.06,0-6.65.22-7.76.68-.45.18-.73.71-.85,1.6a34.58,34.58,0,0,0-.2,4q0,3.89,1.09,5.59A6.17,6.17,0,0,0,45.13,350a2.86,2.86,0,0,1,1.43,2.69q0,2.38-3.31,3.65a27.82,27.82,0,0,1-9.43,1.25,30,30,0,0,1-9.12-1.15A5.68,5.68,0,0,1,22.3,355a3,3,0,0,1-.87-2.06,2.51,2.51,0,0,1,.55-1.74,9.25,9.25,0,0,1,2.38-1.56,3,3,0,0,0,1.35-1.23,7.72,7.72,0,0,0,.59-2.52,85.15,85.15,0,0,0,.51-10.41c0-.8,0-1.74,0-2.83q-.13-8.17-.14-9.33a9,9,0,0,0-.49-3.86,6.59,6.59,0,0,0-2.78-2.06,2.28,2.28,0,0,1-1.49-2.15q0-3.44,6.67-4.76A40.31,40.31,0,0,1,36.51,309.7Z"/><path class="cls-12" d="M103.92,309.49a24.44,24.44,0,0,1,15.29,5,25.66,25.66,0,0,1,7.18,8.92,24.44,24.44,0,0,1,2.69,10.89,21.77,21.77,0,0,1-5.31,14.37A24.91,24.91,0,0,1,112,356.4a28.92,28.92,0,0,1-9,1.43,26.79,26.79,0,0,1-11.27-2.45,22.72,22.72,0,0,1-10.18-8.95,23.84,23.84,0,0,1-3.57-12.77,23.41,23.41,0,0,1,4.59-14.3,23.73,23.73,0,0,1,11-8.1A28.58,28.58,0,0,1,103.92,309.49Zm-3.23,9.77a5.16,5.16,0,0,0-4.53,2.55,7.93,7.93,0,0,0-1.29,4.53,30.79,30.79,0,0,0,1.56,8.91,39.65,39.65,0,0,0,3.95,9,8.44,8.44,0,0,0,2.6,2.65,5.83,5.83,0,0,0,3.15,1,5.11,5.11,0,0,0,4.17-1.94,7.83,7.83,0,0,0,1.59-5.11,33.4,33.4,0,0,0-1.33-8.88,31,31,0,0,0-3.44-8.14,11.06,11.06,0,0,0-3-3.27A6.46,6.46,0,0,0,100.69,319.26Z"/><path class="cls-12" d="M158.22,309.49a27.51,27.51,0,0,1,8.41,1.26,9.52,9.52,0,0,0,2.42.58,11.49,11.49,0,0,0,2.86-.78,4.51,4.51,0,0,1,1.46-.24c1.27,0,2.49.75,3.64,2.24a12.64,12.64,0,0,1,2.79,7.9,7.23,7.23,0,0,1-1.48,4.74,4.78,4.78,0,0,1-3.89,1.8,6.48,6.48,0,0,1-3.89-1.43,29.23,29.23,0,0,1-2.82-3.2q-3.75-4.59-8.61-4.6a8.54,8.54,0,0,0-7,3.24c-1.74,2.15-2.61,5.06-2.61,8.71a22.93,22.93,0,0,0,4.16,13.86,12.32,12.32,0,0,0,3.74,3.32,8.63,8.63,0,0,0,4.32,1.24A3.89,3.89,0,0,0,164.6,347a4.17,4.17,0,0,0,1.14-3,2.62,2.62,0,0,0-1-2.31,1.6,1.6,0,0,0-.7-.32,16.78,16.78,0,0,0-2-.06,3.39,3.39,0,0,1-2.44-.93,3.14,3.14,0,0,1-1-2.37q0-2.82,3.75-4a31.76,31.76,0,0,1,9.49-1.29,33.79,33.79,0,0,1,9.67,1.19c2.48.77,3.71,2.17,3.71,4.19a3,3,0,0,1-.85,2.13,3.52,3.52,0,0,1-2.21,1.07,2.89,2.89,0,0,0-1.55.53,4.43,4.43,0,0,0-.73,1.75,17.79,17.79,0,0,1-5.72,9.06,21.45,21.45,0,0,1-7.06,3.88,27.06,27.06,0,0,1-8.7,1.39,27.81,27.81,0,0,1-13.69-3.44,23.91,23.91,0,0,1-12.53-21.14,22.44,22.44,0,0,1,3.34-11.71,23.8,23.8,0,0,1,9.91-9.19A27.2,27.2,0,0,1,158.22,309.49Z"/><path class="cls-12" d="M227.64,333.39l6.43,13.79a9.68,9.68,0,0,0,1.53,2.5,3.42,3.42,0,0,0,1.87.8c1.64.25,2.46,1.08,2.46,2.48q0,2.49-3,3.58t-9.81,1.09a72.81,72.81,0,0,1-11.4-.65,5.25,5.25,0,0,1-2.71-1.24,3,3,0,0,1-1-2.26,2.26,2.26,0,0,1,.53-1.59,4.9,4.9,0,0,1,2-1c1.07-.36,1.6-1,1.6-1.83,0-1.52-.91-2.42-2.75-2.69a63.64,63.64,0,0,0-8.34-.41c-3,0-4.83.18-5.42.54a2.79,2.79,0,0,0-1,1.23,4.1,4.1,0,0,0-.41,1.7,1.22,1.22,0,0,0,.29,1,8.76,8.76,0,0,0,1.89.73,2.46,2.46,0,0,1,2.08,2.45q0,4.05-9.71,4a31.84,31.84,0,0,1-8.1-.74,3,3,0,0,1-2.38-3.14,2.35,2.35,0,0,1,.53-1.63,4.62,4.62,0,0,1,1.89-1.06,7.32,7.32,0,0,0,3.35-2.19,33.56,33.56,0,0,0,3.25-6l4.8-10.52a82.11,82.11,0,0,0,3.56-8.67,19.87,19.87,0,0,0,.94-5.63,18.28,18.28,0,0,1,.35-4.07,5.18,5.18,0,0,1,1.45-2.23,8,8,0,0,1,6-2.38A10,10,0,0,1,215,312Q219.33,315.65,227.64,333.39Zm-23.7,4.29h6.67c1.23,0,1.84-.27,1.84-.82,0-.75-.85-2.58-2.55-5.51a17.5,17.5,0,0,0-1.77-2.69,1.73,1.73,0,0,0-1.29-.68c-.82,0-1.5.76-2.05,2.28-.09.2-.42,1-1,2.42a18.52,18.52,0,0,0-1.43,4.15C202.38,337.4,202.9,337.68,203.94,337.68Z"/><path class="cls-12" d="M263.55,337.37c-.86,0-1.41.26-1.65.79a11,11,0,0,0-.36,3.64,31.78,31.78,0,0,0,.55,6.74,2.35,2.35,0,0,0,.51,1,5.47,5.47,0,0,0,1.29.92,3.35,3.35,0,0,1,2,3c0,1.49-.94,2.55-2.84,3.18s-5.1.93-9.62.93q-12.58,0-12.59-4.76a2.1,2.1,0,0,1,.37-1.31,7.82,7.82,0,0,1,1.7-1.38,5.07,5.07,0,0,0,2-2.33,17,17,0,0,0,.73-4.65q.18-2.42.17-17.33a28.82,28.82,0,0,0-.47-6.43,3.82,3.82,0,0,0-2-2.49,6.13,6.13,0,0,1-2-1.31,2.25,2.25,0,0,1-.52-1.55,3,3,0,0,1,1-2.19,5.84,5.84,0,0,1,2.71-1.38,16.94,16.94,0,0,1,4-.38c.75,0,2.62.12,5.62.34.56.05,1.46.07,2.68.07,2.05,0,4.77-.13,8.18-.41,2.15-.15,3.66-.23,4.52-.23q7.29,0,12,3.5a10.31,10.31,0,0,1,4.29,8.79,11.13,11.13,0,0,1-1.49,5.7,9.64,9.64,0,0,1-4.12,3.86c-.73.36-1.09.8-1.09,1.3,0,.65.55,1.19,1.67,1.6a9.92,9.92,0,0,1,5.24,3.91q1.67,2.63,2.38,8a6.24,6.24,0,0,0,.89,2.92,6.08,6.08,0,0,0,2.69,1.27,2.11,2.11,0,0,1,1.09.87,2.65,2.65,0,0,1,.44,1.48,3.49,3.49,0,0,1-.82,2.13,5.57,5.57,0,0,1-2.11,1.68,18.87,18.87,0,0,1-7.83,1.33q-6.63,0-9.5-3.5a13.94,13.94,0,0,1-2.19-3.95,68,68,0,0,1-2.13-7.42,10.72,10.72,0,0,0-2-4.57A4.79,4.79,0,0,0,263.55,337.37Zm-2-17.36-.38,7.93v.31a2.58,2.58,0,0,0,.36,1.63,1.89,1.89,0,0,0,1.45.41,5.48,5.48,0,0,0,4.35-1.55q1.36-1.55,1.37-4.95,0-6.57-4.67-6.57a2.4,2.4,0,0,0-1.87.61A3.56,3.56,0,0,0,261.58,320Z"/><path class="cls-9" d="M176.45,217.42a14.33,14.33,0,0,0,4.78-5.22,4.08,4.08,0,0,0-1.6-2.86,10.58,10.58,0,0,1-4.68-6.5c-1.44,0-7.35,2.17-10.48,3.81a33.08,33.08,0,0,0,.42,8,2.83,2.83,0,0,1-.28,1.93c-.62,1.13-1.1,2.33-1.69,3.63-1.59,0-3.11,0-4.63,0-.17,0-.32-.4-.64-.85.77-.25,1.36-.5,2-.63,1.64-.34,2.37-1,2.27-2.75a35.22,35.22,0,0,0-.78-5,24.29,24.29,0,0,0-1-3.44,5.64,5.64,0,0,0-1-1.23l-.33,1.44c-.34.21-.7.45-1.08.65-2,1-3.89,2.13-5.91,3a4.69,4.69,0,0,0-3,4.21,5.05,5.05,0,0,1-2.12,3.73c-1.46-.33-1.83-.88-1.17-2.07a22.86,22.86,0,0,0,2.27-6.2,3.24,3.24,0,0,1,1.11-1.59c.92-.77,2-1.39,2.94-2.1.46-.33.86-.74,1.27-1.09a3.8,3.8,0,0,0-1.44-2.82,7.13,7.13,0,0,1-1.34-1.68,2.93,2.93,0,0,0-3.1-1.3,10.74,10.74,0,0,1-3.79-.4,24,24,0,0,1-2.41.88c-1.14.3-1.67,0-2.34-1.07a7.32,7.32,0,0,0-1-1l-.29,1.64a14.91,14.91,0,0,1,3,8.66,4.41,4.41,0,0,0,.82,2.8,7.72,7.72,0,0,1,.77,2.69c-2.47,3.75-5.7,5-8.61,3.46a2.15,2.15,0,0,1,1-2,5.9,5.9,0,0,0,2-4.62,10,10,0,0,0-2.18-6,8.27,8.27,0,0,1-2.27-3.9,29.82,29.82,0,0,0-1.72-4.73,4.12,4.12,0,0,0-.55-.8,7.19,7.19,0,0,0-.45,1,41.24,41.24,0,0,1-1.33,4.69c-1.21,2.9-1.4,6-1.88,9a4.17,4.17,0,0,1,0,.71,18.34,18.34,0,0,0-.82,6.92c-2.77,1.21-6.33.88-7.73-.76.31-.37.61-.79,1-1.15s.94-.83,1.42-1.24c1-.86,1.85-1.83,1.61-3.28,0-.78,0-1.57,0-2.34.07-1.68.12-3.37.3-5s.56-3.5.78-5.25c.1-.76,0-1.53.05-2.3.09-2.39.2-4.79.31-7.18a2.71,2.71,0,0,1,.17-1c1.13-2.26.8-4.64.68-7-.1-2-.13-4-.19-6.05v-.81a11.72,11.72,0,0,0-2.82.58c-1.66.81-3.27.43-4.9.13-1.89-.34-3.75-.84-5.64-1.11a11.59,11.59,0,0,0-2.7.26l-.47-1.63-1.18.57c-.09-.09-.27-.17-.28-.27-.31-2.36-1.07-4.74.54-7a2.2,2.2,0,0,0,.27-1.38c-.15-2.54-.35-5.08-.55-7.63-.09-1.1-.2-2.2-.32-3.29a5.47,5.47,0,0,0-.46-1.75c-.13,4.75.73,9.49,0,14.27l-1.21.7c-.4,2.59-.85,5.24-1.22,7.91A116.73,116.73,0,0,1,99.45,190c-.64,2.31-1.31,4.61-1.94,6.93a2.16,2.16,0,0,0-.09,1.12c.73,2.38,1.52,4.74,2.28,7.12.39,1.23.78,2.46,1.15,3.7s.66,2.31.92,3.23l-.72,3.66c-.94.24-1.82.5-2.7.7a9.08,9.08,0,0,0-3.14,1,3.7,3.7,0,0,1-1.69.22c-.52,0-1,0-1.63,0l-.56,1a23.6,23.6,0,0,1-9.83.22v-1.76l2.53-2a7.93,7.93,0,0,1,.51-4.45c.75-2.08,1.61-4.13,2.37-6.21.64-1.75,1.2-3.54,1.8-5.32-1.29-1.11-1.82-2.3-.9-3.71-3.72-9.57-5.13-19.46-5.32-29.66l-1.72-.67c-.34-2,.57-3.81.67-5.75s.39-4,.62-6a52.26,52.26,0,0,0,.51-5.94,15.89,15.89,0,0,0-1.14,3c-.7,4-2.52,7.43-4.36,10.91L76.22,163c1.26,2.53-.19,5.13.35,8l-1.53-1-.12.13,1.31,1.62c-.35,1-1,.83-1.65.51a4.89,4.89,0,0,1-2.32-6c.45-1.51.82-3.05,1.15-4.59.46-2.16.86-4.34,1.28-6.5a4.41,4.41,0,0,0,.17-.85,20.35,20.35,0,0,1,2-7.8c.54-1.28,1-2.59,1.49-3.91a8.57,8.57,0,0,0,.27-1.44l-2.09-1.29c1.55-3.27,2.84-6.59,5.14-9.37A6.26,6.26,0,0,1,85.91,128c.9-.09,1.78-.35,2.73-.54-.13-1.7.74-2.81,2.13-3.83a13.29,13.29,0,0,0-.47-2.27A5.44,5.44,0,0,1,90,117.6a6.73,6.73,0,0,0,.19-2.29c-.11-2.1,1.22-3.24,2.85-3.91a5.06,5.06,0,0,1,4.73.2,6.88,6.88,0,0,1,2.33,1.85,4,4,0,0,1,.94,2.8c0,.53,0,1.06,0,1.59a1.67,1.67,0,0,0,1.12,1.84,14.47,14.47,0,0,0-1.89,5.42l.3,3.14,6.14,3.31a3.42,3.42,0,0,1,1.76,2.17c.85,3,1.75,5.91,2.62,8.87a6.33,6.33,0,0,1,.12,1l-1.45.93c.11,1.76.1,3.6.35,5.4a48.11,48.11,0,0,1,.11,11.81c-.27,2.43-.5,4.9.36,7.29.27.76.56,1.52.84,2.28a14,14,0,0,0,6.47-.53,11.39,11.39,0,0,0,3.27-2.09c1.86-1.63,3.75-3.15,6.69-3.6-2.44-1.53-2.94-3.62-3.11-5.89-.11-1.38-.47-2.76-.45-4.13s1.16-2.41,2.23-3.22a6.55,6.55,0,0,1,2.57-1.25c1.84-.37,4.65.49,5.36,2.76a15.3,15.3,0,0,1,.34,5.71,8.62,8.62,0,0,1-1.18,2.51c-.15,1.18.58,2.24,1.95,3a9.07,9.07,0,0,0,1.1.68c3.15,1.13,4.17,4.05,5.61,6.62a10.35,10.35,0,0,0,1.6,2.33,6.44,6.44,0,0,1,1.61,2.52c.5,1.39,1.1,2.74,1.62,4.12a19.61,19.61,0,0,0,.66,2.05,14.38,14.38,0,0,0,1.61,2.7c1.14,1.42,1.2,2,0,3.35a5.55,5.55,0,0,0-.38.56,2.89,2.89,0,0,0,3,2.21c3.07.12,6.14.21,9.21.31a6.13,6.13,0,0,1,.86,0c3.48.67,6.9-.1,10.34-.38,3.21-.26,6.4-.85,9.63-.28a3.29,3.29,0,0,0,2.59-.55,30.15,30.15,0,0,1,2.9-1.54l1.45.92c-.75.82-1.38,1.53-2,2.21-1.49,1.55-1.65,2.47-.35,4.16a3.61,3.61,0,0,1,.72,3.49c-.2.69-.29,1.42-.45,2.12-.73,3.21,0,5,2.64,7l1,.75c.36,1,.32,6.77-.07,9.1-1.43.2-2.86.56-4.31,0-.13-1.7,1.43-1.4,2.13-2a5.53,5.53,0,0,0-2.94-6.84c-1.7,2.42-3.38,4.86-5.1,7.26a2.46,2.46,0,0,1-2.7,1Zm-31.07-28.29-.52-.12c.06-1,.08-2,.2-2.94a3.53,3.53,0,0,0-.95-3,15.26,15.26,0,0,1-1.31-1.85,2.7,2.7,0,0,1-1.74-1.8,2.83,2.83,0,0,0-1.79-1.62c0,.81,0,1.47,0,2.12a18.76,18.76,0,0,1-.67,6.14,4.87,4.87,0,0,0-.06,2,12.87,12.87,0,0,1,0,4.59c-.23.9-.3,1.84-.45,2.8,1.36-.31.62-1.22.72-1.82.69-2.55,3-2.86,4.95-3.51a7.54,7.54,0,0,0,3.2-1.67l-.74-1.45Z"/><path class="cls-9" d="M243.66,183.65a1.72,1.72,0,0,1,.39-2,2.26,2.26,0,0,0-.06-3c-.67.89.31,2.15-.78,3a4.37,4.37,0,0,1-.3-.78,10.9,10.9,0,0,1,.5-6.08c.73-1.79.25-3.63-.11-5.42s-.88-3.75-1.27-5.63c-.59-2.86-1.14-5.73-1.75-8.82-.31,1.3-.59,2.45-.87,3.6-.92,3.77-.32,7.43.66,11.09.49,1.81.87,3.65,1.24,5.48.2,1.05.16,2.06-.87,2.31-.74,2.48-1.4,4.75-2.1,7s-1.48,4.47-2.19,6.72a4.86,4.86,0,0,0-.21,1.56,36.23,36.23,0,0,0,.61,6.56,16.13,16.13,0,0,1,0,3.87c0,.95-.13,1.9-.19,2.87.93.46,1.77.82,2.56,1.26a1.87,1.87,0,0,1,1.06,2.53,11.73,11.73,0,0,1-1.21,2.59,4.15,4.15,0,0,0-.62,2.29,16,16,0,0,1-.43,3.71c-.36,1.61-1.14,2.12-2.81,2-.57,0-1.14-.13-1.82-.21-.25,1.11-1.14,1.51-2.12,1.89a17,17,0,0,0-2.69,1.36,3.22,3.22,0,0,1-4.55-1.1,24.61,24.61,0,0,0,4.68-7.41c1.06-2.89.68-5.89,1.12-8.63-2.1-2.56-4-5-6.09-7.37a5.56,5.56,0,0,1-1.39-3.25,107.66,107.66,0,0,1-.88-13.8,15.41,15.41,0,0,0-.54-5c-1-3.28-.61-6.68-.2-10,0-.14,0-.28,0-.7a6.59,6.59,0,0,0-.66.83c-.68,1.22-1.34,2.45-2,3.68a1.64,1.64,0,0,0-.23.53c-.14,1.79-.28,3.59-.38,5.39,0,.59.29,1.24-.56,1.58-.16.06-.13.61-.2,1h-.71l-.3.69-.93-.2c-.42,1.29-.79,2.52-1.2,3.74a5,5,0,0,1-1.92,2.63,4.9,4.9,0,0,0-2.06,2.16c-.16.4-.79.69-1.27.85a1.65,1.65,0,0,0-1.2,1.75c0,1.05-.12,2.11-.15,3.17a2.64,2.64,0,0,0,.17,1.12,5.13,5.13,0,0,1,.18,3.29l2,4.57a6.58,6.58,0,0,0-.3,4.73,2.19,2.19,0,0,0,.43,1,10.88,10.88,0,0,1,2.58,4.12,5.41,5.41,0,0,0,2,2.34c1,.66,1.17,1.15.68,2.16a12.06,12.06,0,0,1-1.61,2.55,4.47,4.47,0,0,1-4.86.83l1.46-2.84c-.48-.65-.86-1.6-1.55-2-2.06-1.28-3.32-3.33-5.07-4.9-.17-.15-.34-.32-.55-.52a11,11,0,0,1-1.07,1.68c-1.48,1.66-1.37,3.6-1.05,5.58.11.7.24,1.41.36,2.1-1.18,1.62-4.37,2.63-6.71,2.11-.32-.82.14-1.42.58-2.06s1-1.49,1.43-2.24l-.36-.1c-.13-.73-.31-1.47-.4-2.21a8,8,0,0,1-.17-2.86c.56-2-.27-4.17,1-6,.21-.3.11-.84.1-1.26,0-.71-.06-1.42-.1-2.1,1.08-1.09,1.93-2.17,1.43-3.78-2,2-2,4.56-2,7.06-1.48-.11-2-.51-1.88-1.8a40.87,40.87,0,0,1,.69-4.39c.36-1.83.78-3.64,1.22-5.64l-.74-.68,1.58-5.63,2.83-1.81c-.42-1.14-1-.13-1.7-.37l-.58-1.95-1.6.48c-.57-.73-1-1.24-1.39-1.8-.84-1.27-.9-2.6,1.12-2.94.33-.06.65-.15,1.15-.25,0-1.41-.32-3,1.08-4.05a5.52,5.52,0,0,1,2.19-1c2.17-.37,3.46.52,4.65,2.83l2,1.81.65-.05.45,1.41-2.13,2.21,2.06.18a2.63,2.63,0,0,1-2.53,1.19H210c.8-1.42,1.6-2.73,2.29-4.1a2.34,2.34,0,0,0,.2-1.53,3.52,3.52,0,0,1,.34-2.63c2.27-4.77,3.38-9.91,4.71-15a18.06,18.06,0,0,1,1.52-3.89,29,29,0,0,0,2.44-7.28,3.14,3.14,0,0,1-.44-3.37c.72-2,1.51-3.94,2.2-5.73,1.82-1.1,3.86-1.06,5.38-2.41a1.09,1.09,0,0,0-1.39-.41,1.06,1.06,0,0,1-1.42-.62c-.48-.92-1-1.83-1.57-2.95l-1-.45c.44-1.43.54-2.77-.8-3.69-1-4.3,2.68-7.55,6.14-8.24,2.95-.59,4.24,0,6,2.45a8.48,8.48,0,0,1,1.61,4.83,6.41,6.41,0,0,0,.78,2.26,23.92,23.92,0,0,0,1.27,2.1,2.12,2.12,0,0,1,.31,1.91,2.3,2.3,0,0,0,.4,2,9.89,9.89,0,0,1,.69,1.89l-.32.28c1.05.41,2.09.85,3.16,1.23a2.31,2.31,0,0,1,1.59,1.35c.55,1.54,1.14,3.08,1.55,4.65a3.31,3.31,0,0,1-.18,2.11,5.06,5.06,0,0,0-.31,2.22c-.22,3.61.57,7.08,1.31,10.57a16.37,16.37,0,0,1,.28,4,56.27,56.27,0,0,0,.4,11.53,4.86,4.86,0,0,1-.83,4.26A24.19,24.19,0,0,1,243.66,183.65Z"/></g></g></svg>