<svg xmlns="http://www.w3.org/2000/svg" viewBox="0 0 792.35 174.71"><defs><style>.cls-1{font-size:15.5px;font-family:Poppins-Bold, Poppins;font-weight:700;letter-spacing:0.2em;}.cls-1,.cls-9{fill:#fff;}.cls-2{fill:#11a14e;}.cls-3{fill:#f3e41e;}.cls-4{fill:#c0c9d4;}.cls-5{fill:#cfd6df;}.cls-6{fill:#e1e4ea;}.cls-7{fill:#dadee3;}.cls-8{fill:#2864ac;}.cls-10{fill:#2160aa;}</style></defs><g id="Capa_2" data-name="Capa 2"><g id="Capa_1-2" data-name="Capa 1"><text class="cls-1" transform="translate(452.7 156.97)">DE TODO PARA TODOS</text><path class="cls-2" d="M410.71,68.65c-.08,1.37-.24,2.73-.24,4.1q0,28.92,0,57.84c0,4.26-.8,5.06-5,5.06H294.9c-4.39,0-5-.59-5-5q-.06-31.15-.13-62.31L296.06,62v67.21H404.24c0-10.19,0-20.15,0-30.11q.06-18.4.18-36.81Z"/><path class="cls-3" d="M296.06,62l-6.27,6.32c-2.62,2.56-5.24,5.13-7.88,7.67-1.71,1.64-3.49,4-6,1.63s-.16-4.31,1.51-6c14.4-14.32,28.87-28.57,43.23-42.92,8.74-8.73,17.32-17.63,26-26.42,3.09-3.13,3.86-3.11,7,0,7,6.92,14.08,13.83,21,20.82q24.39,24.47,48.69,49c1.63,1.63,3.31,3.36,1.09,5.48s-3.94.59-5.6-1.08c-2.67-2.68-5.42-5.28-8.13-7.91l-6.29-6.33L350,10.08Z"/><path class="cls-4" d="M85.93,71.93c.56.49,1.11,1,1.66,1.49-1.22,3.08-3,6.07-3.56,9.27-2.42,14.86-8.67,28-17.13,40.27a1.17,1.17,0,0,1-.75-.75c3.29-7.13,7-14.08,9.74-21.43,2.32-6.31,3.16-13.14,5.18-19.58C82.1,77.92,84.28,75,85.93,71.93Z"/><path class="cls-5" d="M12.29,73.23l-.09-1.86c4.08-.46,8.16-1.29,12.24-1.33,11.42-.11,22.83.11,34.25.19,0,.54,0,1.08,0,1.61-6.53.5-13.06,1.26-19.61,1.43C30.17,73.49,21.23,73.26,12.29,73.23Z"/><path class="cls-6" d="M675.55,114.64l-4.49-2.49c1.15-1.11,2.25-3.11,3.45-3.17a99.81,99.81,0,0,1,14.67.42c.45,0,.61,3.18.9,4.87l-13-2.54-1.69.5Z"/><path class="cls-5" d="M750.42,114.45c-4.12-2.49-6.48-11.19-3.65-14.23.75-.8,3.26-1.29,3.7-.8,1.22,1.38,1.79,3.34,2.61,5.07l-3.49-2C749.9,106.94,750.16,110.7,750.42,114.45Z"/><path class="cls-5" d="M209.29,71.45l-1.88,1.75c-10.58-2.17-20.28-2.15-25.16,10-.52-.39-1.05-.77-1.58-1.15C186.28,69.35,194.62,66.26,209.29,71.45Z"/><path class="cls-4" d="M605.34,117.43l-1.69,1.71c-3.38-4.29-6.69-8.63-10.21-12.79-.53-.62-2.07-.39-3.14-.56l3.05-6.14Q599.35,108.53,605.34,117.43Z"/><path class="cls-5" d="M178.85,91.29c-.14-1.35-.28-2.7-.41-4.05l2.23-5.19c.53.38,1.06.76,1.58,1.15C181.12,85.89,180,88.59,178.85,91.29Z"/><path class="cls-6" d="M594.56,83.38c-.49,1.47-1,2.94-1.46,4.41C593.58,86.32,594.07,84.85,594.56,83.38Z"/><path class="cls-5" d="M675.42,112.23l1.69-.5Z"/><path class="cls-7" d="M134.6,73.76l1.76-1.19q.52.53,1,1.08l-1.55,1.54Z"/><path class="cls-8" d="M218.67,85.8a20.57,20.57,0,0,0-2.07-3.22c-4.69-5.06-4.19-8.22,2.26-9a115.3,115.3,0,0,1,22.9-.31c4.75.4,7.66,3.11,2.49,7.84C242.64,82.62,241,85,241,87c-.32,10.62-.27,21.26,0,31.89.05,1.77,1.52,3.95,3,5.16,5,4.06,3.46,7.32-1.68,8.17a111.3,111.3,0,0,1-22.13,1.12c-3.43-.12-7.92-1.53-5.43-7.15,1.61-1.91,4.57-3.8,4.59-5.73C219.47,108.94,219,97.37,218.67,85.8Z"/><path class="cls-5" d="M212.19,124.67c1.57-2.31,4.31-4.53,4.5-7,.66-8.42.44-16.91.55-25.37.48-2.18.95-4.37,1.43-6.55.28,11.57.8,23.14.63,34.7,0,1.93-3,3.82-4.59,5.73Z"/><path class="cls-9" d="M389.51,147.92l1.39-.63a64,64,0,0,0,9-4.29,13,13,0,0,0,4.42-4.13,8.33,8.33,0,0,0,1.16-5.17c-.78.22-1.49.4-2.19.62a211.09,211.09,0,0,0-20.38,7.42c-2.95,1.28-5.84,2.7-8.67,4.22a19.63,19.63,0,0,0-6.49,5.43,14.11,14.11,0,0,0-2.91,7.26,21,21,0,0,0,1.11,9.07c.75,2.19,1.67,4.32,2.55,6.58.93-1.65,1.73-3.17,2.6-4.64a30.74,30.74,0,0,1,7.42-8.52,19.17,19.17,0,0,1,7.87-3.77,1.28,1.28,0,0,1,.71.06,29.41,29.41,0,0,0-8.65,9.25c1.28-.36,2.29-.72,3.34-.93q4.71-1,9.45-1.83a69.23,69.23,0,0,0,15.13-4.2,47.16,47.16,0,0,0,9.55-5.54,41.81,41.81,0,0,0,6.84-6.17,47.85,47.85,0,0,0,3.47-4.67,99.9,99.9,0,0,0,8.24-15.76,7,7,0,0,0-4,0,4.6,4.6,0,0,0-1.85,1.23,43.41,43.41,0,0,0-2.72,3.45,76.66,76.66,0,0,1-7.39,9,30.84,30.84,0,0,1-13.7,8.27c-5,1.39-9.83.68-14.55-1.23A5.74,5.74,0,0,1,389.51,147.92Z"/><path class="cls-9" d="M417.39,139.37c1.31-2.06,2.68-4.1,3.92-6.21a21.65,21.65,0,0,0,1.54-3.48,4.59,4.59,0,0,0,0-2.93,1.7,1.7,0,0,0-2.76-1,5.17,5.17,0,0,0-1.94,2.2,15.3,15.3,0,0,0-1.44,7.14c0,1.41.21,2.8.31,4.21Z"/><path class="cls-9" d="M310.28,148.33c-.57-.26-1-.46-1.38-.64A64,64,0,0,1,300,143.4a13.13,13.13,0,0,1-4.43-4.12,8.35,8.35,0,0,1-1.15-5.17c.78.22,1.49.39,2.19.61a211.16,211.16,0,0,1,20.38,7.43c2.94,1.28,5.84,2.7,8.67,4.22a19.7,19.7,0,0,1,6.49,5.42,14.23,14.23,0,0,1,2.91,7.26,21,21,0,0,1-1.12,9.08c-.74,2.18-1.66,4.31-2.55,6.58-.92-1.66-1.72-3.17-2.6-4.65a30.56,30.56,0,0,0-7.42-8.52,19.07,19.07,0,0,0-7.86-3.77,1.28,1.28,0,0,0-.71.06,29.55,29.55,0,0,1,8.65,9.26c-1.28-.37-2.29-.73-3.34-.94-3.14-.64-6.29-1.26-9.45-1.83a68.5,68.5,0,0,1-15.13-4.19,47.2,47.2,0,0,1-9.55-5.55,40.92,40.92,0,0,1-6.84-6.17,46.55,46.55,0,0,1-3.47-4.66A100.44,100.44,0,0,1,265.38,128a7.07,7.07,0,0,1,4,0,4.66,4.66,0,0,1,1.86,1.23,43.57,43.57,0,0,1,2.72,3.46,77.39,77.39,0,0,0,7.39,9,30.86,30.86,0,0,0,13.7,8.28c5,1.38,9.83.67,14.55-1.23A7.89,7.89,0,0,0,310.28,148.33Z"/><path class="cls-9" d="M282.41,139.78c-1.32-2.07-2.69-4.11-3.93-6.22a22.85,22.85,0,0,1-1.53-3.47,4.66,4.66,0,0,1-.06-2.93,1.71,1.71,0,0,1,2.77-1,5.29,5.29,0,0,1,1.94,2.2,15.23,15.23,0,0,1,1.43,7.15c0,1.4-.2,2.8-.3,4.2Z"/><path class="cls-9" d="M18.56,134.76c-6.44,0-10.82-.39-13.39-1.18A7.35,7.35,0,0,1,1.45,131,6.94,6.94,0,0,1,0,126.72a6.3,6.3,0,0,1,2.25-5l.11-.08a13.12,13.12,0,0,1,3-1.41c.36-.14,1.26-.5,1.57-2.74.52-3.56.79-11.89.79-24.79,0-6.76-.29-9.41-.53-10.44a2.45,2.45,0,0,0-1.49-1.89A11.12,11.12,0,0,1,2,78.16,5.24,5.24,0,0,1,.67,74.45,6.13,6.13,0,0,1,3.6,69.26a10.46,10.46,0,0,1,6.05-1.73c1.27,0,3,.09,5.42.28,4.77.38,10.58.57,17.27.57,10.66,0,17.9-.29,21.52-.86l.09,0a12.7,12.7,0,0,1,1.43-.1,6.12,6.12,0,0,1,4.8,2.65A19.88,19.88,0,0,1,64.63,82.6a9.21,9.21,0,0,1-1.79,5.85A6.41,6.41,0,0,1,57.62,91a6,6,0,0,1-3.79-1.12A39.91,39.91,0,0,1,49.4,85.2a7,7,0,0,0-3.69-2.33c-1.18-.3-3.88-.69-10.05-.87a3.61,3.61,0,0,0-1.69.27,18.31,18.31,0,0,0-.8,3.87A44.43,44.43,0,0,0,32.73,92a2.27,2.27,0,0,0,0,.33,9.46,9.46,0,0,0,2.76.27A2.9,2.9,0,0,0,37,92.35a2.1,2.1,0,0,0,.44-1.06c1.23-5.84,4.58-6.71,6.47-6.71,5.15,0,7.77,5.17,7.77,15.38,0,6-.89,10.38-2.71,13.37a6.66,6.66,0,0,1-5.91,3.48c-1.42,0-4.77-.54-5.34-5.58a13.08,13.08,0,0,0-.44-2.71,2.37,2.37,0,0,0-.65-.85,4,4,0,0,0-2.75-.79,5.06,5.06,0,0,0-1,.08,4.84,4.84,0,0,0,0,1v.1c0,.24,0,1.64,0,4.19,0,6.59.94,7.78,1,7.83l.12.14a1.4,1.4,0,0,0,.14.16c.19,0,.8.19,2.43.43a5.39,5.39,0,0,1,3.44,2.07,6,6,0,0,1,1.3,3.8c0,2-.75,5.44-5.79,6.67C31.33,134.28,25.81,134.76,18.56,134.76Z"/><path class="cls-9" d="M113.87,134.8a97.46,97.46,0,0,1-15.39-.88,9.24,9.24,0,0,1-4.74-2.22,6.26,6.26,0,0,1-2-4.67A5.12,5.12,0,0,1,93,123.37a8.23,8.23,0,0,1,3.52-2,1.72,1.72,0,0,0,.52-.25c0-.5,0-1-1.65-1.22a83.38,83.38,0,0,0-10.62-.51c-4.31,0-5.61.3-5.92.4a2.33,2.33,0,0,0-.35.58,4.17,4.17,0,0,0-.29.89c.28.11.67.24,1.2.41,2.77.83,4.36,2.8,4.36,5.43,0,5.07-5.07,7.64-15.06,7.64-5.1,0-8.79-.35-11.3-1.08a6.24,6.24,0,0,1-4.8-6.34,5.3,5.3,0,0,1,1.3-3.7,8.18,8.18,0,0,1,3.43-2,7.49,7.49,0,0,0,3.37-2.16c.6-.74,1.77-2.64,4-7.45L71,98.19a108.12,108.12,0,0,0,4.57-11.12,23.62,23.62,0,0,0,1.13-6.74,25.19,25.19,0,0,1,.55-6,9,9,0,0,1,2.5-3.94,12.9,12.9,0,0,1,9.51-3.8A15.41,15.41,0,0,1,99.4,70.73c4.1,3.46,9.74,12.92,17.23,28.92l8.46,18.12a10.29,10.29,0,0,0,1.53,2.61,2.28,2.28,0,0,0,1.22.43c3.27.5,5.16,2.52,5.16,5.55,0,1.82-.71,5.14-5.46,6.87C124.63,134.29,120.16,134.8,113.87,134.8ZM91.8,104a53,53,0,0,0-2.58-4.85,23.24,23.24,0,0,0-2-3.06,6,6,0,0,0-.57,1.24,1.22,1.22,0,0,1-.07.17c-.06.13-.3.72-1.26,3.1-.66,1.61-1.07,2.68-1.32,3.4Z"/><path class="cls-9" d="M194.5,134.8c-5.31,0-9.21-.38-11.92-1.16-5-1.48-5.79-4.61-5.79-6.34a5.09,5.09,0,0,1,1-3.18,21,21,0,0,1,3.14-2.91s.49-.41.77-2.19a66,66,0,0,0,.4-8.77c0-1.16,0-2-.07-2.6a59.67,59.67,0,0,0-3.16,6.33l-5.37,12a22.65,22.65,0,0,1-2.55,4.61,4.64,4.64,0,0,1-3.68,1.91,4.56,4.56,0,0,1-3.47-1.62c-.32-.35-.82-1-2.58-4.41-1.2-2.3-2.21-4.38-3-6.18l-5.69-12.8c-.14,2.83-.22,5.49-.22,7.93a26.48,26.48,0,0,0,.36,5.66,3,3,0,0,0,.15.36,22.58,22.58,0,0,0,2.3,1.27,5,5,0,0,1,2.74,4.7c0,7.33-11.4,7.33-15.15,7.33-8.72,0-13.14-2.42-13.14-7.19a4.68,4.68,0,0,1,1.23-3.45,12.9,12.9,0,0,1,3.52-2.13l0,0a1.72,1.72,0,0,0,.83-.66,15.25,15.25,0,0,0,.69-3.83c.26-2.33.51-6.23.75-11.6S137,95.81,137,92c0-5.92-.58-8.16-.93-9a1.51,1.51,0,0,0-.31-.51,8.29,8.29,0,0,0-1.46-.84c-3.68-1.76-4.46-4.24-4.46-6a6.42,6.42,0,0,1,1.8-4.42,8.64,8.64,0,0,1,4.23-2.5,37,37,0,0,1,5.59-1.08,47.84,47.84,0,0,1,5.87-.44c4.15,0,7.07.36,8.95,1.1A6.85,6.85,0,0,1,159,70.15a17.61,17.61,0,0,1,2.24,3.58l9.29,17.12a28.63,28.63,0,0,0,1.67,2.84h0a8.28,8.28,0,0,0,1.18-1.9l6.31-12.31,1.51-3.06c1.65-3.36,3.32-5.6,5.1-6.83,2.22-1.56,5.9-2.33,11.24-2.33,9.94,0,15,2.72,15,8.09a6.14,6.14,0,0,1-.85,3.31,10,10,0,0,1-2.6,2.53,4.74,4.74,0,0,0-1.69,3.07,91.08,91.08,0,0,0-1,14.62,162.17,162.17,0,0,0,1.05,19.72,5.47,5.47,0,0,0,.42,1.81,13.14,13.14,0,0,0,2.27,1.69,5.59,5.59,0,0,1,2.66,4.8c0,1.8-.76,5.06-5.79,6.63a22.65,22.65,0,0,1-5,1C200.34,134.73,197.88,134.8,194.5,134.8Z"/><path class="cls-9" d="M228.42,134.76c-4.18,0-16.9,0-16.9-7.86,0-2.2,1.33-4.13,4-5.74a2.94,2.94,0,0,0,1.52-2.09c.54-3.25.82-10.4.82-21.26,0-9.13-.56-12.59-1-13.89a4.54,4.54,0,0,0-2.05-2.13l0,0a12.58,12.58,0,0,1-3-2.52,5.51,5.51,0,0,1-1.11-3.48,5.69,5.69,0,0,1,3-5,22.68,22.68,0,0,1,7.33-2.34,60,60,0,0,1,11.75-1.16,51.48,51.48,0,0,1,10.07.94c6.57,1.3,7.95,4.75,7.95,7.41a5,5,0,0,1-1.22,3.53,13.27,13.27,0,0,1-3.71,2.38c-.87.43-1.28,1.81-1.48,2.88-.41,2.18-.61,6.61-.61,13.18,0,13.84.43,18.88.79,20.66a2.28,2.28,0,0,0,.39.92,6.05,6.05,0,0,0,1.57,1c3.72,1.71,4.27,4.48,4.27,6,0,2.46-1.25,5.7-7.22,7.17A65.13,65.13,0,0,1,228.42,134.76Z"/><path class="cls-9" d="M505.44,128.89c-5.3,0-9.17-.53-11.83-1.62-4-1.65-4.56-4.56-4.56-6.15a6.19,6.19,0,0,1,3.6-5.62,3,3,0,0,0,.88-.63,7,7,0,0,0,.56-1.77,40,40,0,0,0,.69-8.13,8.69,8.69,0,0,0-.11-1.56,14,14,0,0,0-2.54-.17c-5.38,0-7.53.34-8.38.57,0,.09,0,.2-.06.35a40,40,0,0,0-.23,4.66c0,3.34.52,4.91,1,5.65a7.13,7.13,0,0,0,1.48,1.07,5.69,5.69,0,0,1,2.82,5.17c0,2-.94,4.78-5.45,6.49-3,1.14-7,1.69-12.36,1.69A39,39,0,0,1,459,127.36a9,9,0,0,1-3.86-2.36,5.8,5.8,0,0,1-1.64-4,5.23,5.23,0,0,1,1.21-3.57,12.48,12.48,0,0,1,3.55-2.41,1.66,1.66,0,0,0,.73-.59,7.45,7.45,0,0,0,.5-2.34,102.63,102.63,0,0,0,.62-12.56c0-1,0-2.07,0-3.43-.12-6.77-.17-10.54-.17-11.5,0-3-.32-3.67-.33-3.7a6.8,6.8,0,0,0-2.49-1.65,4.93,4.93,0,0,1-3-4.57c0-4,3.35-6.67,9.94-8a51.49,51.49,0,0,1,10.22-1c3.67,0,14.65,0,15.19,7a6.87,6.87,0,0,1,1.75-3.33,8.81,8.81,0,0,1,4.48-2.54,50.26,50.26,0,0,1,11.42-1.1c5.45,0,9.42.5,12.14,1.54,4.17,1.6,5,4.36,5,6.39a6.2,6.2,0,0,1-3.82,5.72,4.87,4.87,0,0,0-1.32.77,5.55,5.55,0,0,0-.41,1.63c-.05.28-.17,1.71-.4,9-.16,5.45-.25,9.83-.25,13,0,7.14.35,9.47.56,10.23a4.28,4.28,0,0,0,.25.75A24.14,24.14,0,0,0,521,116.1a5,5,0,0,1,2.69,4.56c0,2.13-.9,5-5.18,6.65C515.69,128.38,511.42,128.89,505.44,128.89ZM483.92,88.77a4.2,4.2,0,0,0,.76.11c.8.05,2.77.08,5.86.08a25.49,25.49,0,0,0,4.22-.22,3.47,3.47,0,0,0,0-.38,36.9,36.9,0,0,0-.44-7.21,2.27,2.27,0,0,0-.89-1.56,10.51,10.51,0,0,1-3.09-2.33,4.9,4.9,0,0,1-1-2.68,5.58,5.58,0,0,1-1,2.33,10.74,10.74,0,0,1-3.19,2.64,2.17,2.17,0,0,0-1.09,1.34,27.71,27.71,0,0,0-.37,6A5.81,5.81,0,0,0,483.92,88.77Z"/><path class="cls-9" d="M589.92,94.33a33.4,33.4,0,0,0-3.3-10.58,38.86,38.86,0,0,0-2-3.57A33.68,33.68,0,0,0,580,74.47c-.28-.28-.56-.55-.85-.8l-.12-.11c-.59-.54-1.18-1-1.8-1.52a32.29,32.29,0,0,0-20.11-6.6,40.51,40.51,0,0,0-6.12.45,33.85,33.85,0,0,0-7.27,1.87,31.29,31.29,0,0,0-14.5,10.69,30.31,30.31,0,0,0-4.57,8.9,32.53,32.53,0,0,0-1.5,10,31.63,31.63,0,0,0,4.71,16.83A30.26,30.26,0,0,0,541.28,126a35.32,35.32,0,0,0,14.75,3.2,37.79,37.79,0,0,0,11.67-1.86,32.92,32.92,0,0,0,15.43-10.16,29,29,0,0,0,6.92-16.37c.07-.88.11-1.78.11-2.68A30.22,30.22,0,0,0,589.92,94.33ZM549.35,83.94a4.2,4.2,0,0,1,3.7-2.16,5.81,5.81,0,0,1,3,1.15,11.52,11.52,0,0,1,3.09,3.4,36.07,36.07,0,0,1,4,9.43,38.88,38.88,0,0,1,1.54,10.35,7.4,7.4,0,0,1-1.46,4.9,4.13,4.13,0,0,1-3.44,1.59,5,5,0,0,1-2.71-.87,8.15,8.15,0,0,1-2.52-2.57,47.23,47.23,0,0,1-4.64-10.54,35.82,35.82,0,0,1-1.83-10.3A7.43,7.43,0,0,1,549.35,83.94Z"/><path class="cls-9" d="M624.19,129.19a36.53,36.53,0,0,1-17.86-4.5,31.13,31.13,0,0,1-12.84-12.93,31.51,31.51,0,0,1-3.68-15,29.75,29.75,0,0,1,4.41-15.51,31.55,31.55,0,0,1,13-12.11,35.83,35.83,0,0,1,16.55-3.75,36.35,36.35,0,0,1,11,1.65,10.43,10.43,0,0,0,2.32.61,14.28,14.28,0,0,0,2.77-.83l.05,0a7.82,7.82,0,0,1,2.49-.4c2.26,0,4.34,1.21,6.18,3.6a17.68,17.68,0,0,1,3.89,11,11,11,0,0,1-2.31,7.19,8.1,8.1,0,0,1-6.47,3,10,10,0,0,1-6.06-2.19,28.83,28.83,0,0,1-3.86-4.3c-2.66-3.27-5.57-4.85-8.91-4.85A8.35,8.35,0,0,0,618,83.11c-1.81,2.24-2.73,5.39-2.73,9.35a26.18,26.18,0,0,0,4.7,15.76,12.74,12.74,0,0,0,3.92,3.47,8.54,8.54,0,0,0,4.24,1.25,2.64,2.64,0,0,0,2-.79,3,3,0,0,0,.79-2.2c0-.55-.1-1-.27-1.08l0,0c-.2,0-.72,0-2,0a6.36,6.36,0,0,1-4.5-1.76,6.05,6.05,0,0,1-1.85-4.46c0-2.31,1.06-5.39,6.11-7a41.44,41.44,0,0,1,12.33-1.69,43.46,43.46,0,0,1,12.51,1.56c5.31,1.65,6.1,5.23,6.1,7.21a5.87,5.87,0,0,1-1.64,4.1,6.46,6.46,0,0,1-4,2c-.3,0-.5.09-.64.12a9.89,9.89,0,0,0-.35,1.1A24,24,0,0,1,645,122.18a28.46,28.46,0,0,1-9.4,5.18A35.56,35.56,0,0,1,624.19,129.19Z"/><path class="cls-9" d="M724.81,117.25a6.19,6.19,0,0,0-3.24-1.4,2.12,2.12,0,0,1-1.14-.4A10.21,10.21,0,0,1,719,113l-7.9-17,0-.08c-7-14.92-12.25-23.75-16.08-27a14.42,14.42,0,0,0-9.48-3.83,12.09,12.09,0,0,0-8.9,3.55,8.47,8.47,0,0,0-2.33,3.7,22.88,22.88,0,0,0-.52,5.56,22.34,22.34,0,0,1-1,6.31,99.26,99.26,0,0,1-4.28,10.39l-.41.91-5.49,12a38.46,38.46,0,0,1-3.71,7,7,7,0,0,1-3.16,2,8,8,0,0,0-3.21,1.88,5,5,0,0,0-1.21,3.47,5.81,5.81,0,0,0,4.5,5.92,39.87,39.87,0,0,0,10.55,1c9.35,0,14.09-2.4,14.09-7.14a5.15,5.15,0,0,0-4.07-5.07l-1.12-.38a3.13,3.13,0,0,1,.27-.84,3.19,3.19,0,0,1,.32-.55,22.69,22.69,0,0,1,5.53-.37c1.3,0,2.51,0,3.63,0a58.41,58.41,0,0,1,6.32.43c1.48.23,1.53.67,1.53,1.15a1.82,1.82,0,0,1-.48.22,9,9,0,0,0-2.75,1.37,3.7,3.7,0,0,0-.55.49,4.78,4.78,0,0,0-1.23,3.42,5.81,5.81,0,0,0,1.92,4.36,8.49,8.49,0,0,0,4.43,2.08,91.41,91.41,0,0,0,14.39.82c5.88,0,10.07-.47,12.79-1.47a8.28,8.28,0,0,0,3.64-2.38,6.18,6.18,0,0,0,1.46-4A4.86,4.86,0,0,0,724.81,117.25Zm-43-20.34c.9-2.22,1.12-2.77,1.19-2.9s0-.1.05-.15a5.64,5.64,0,0,1,.54-1.16,22.34,22.34,0,0,1,1.83,2.86,46.44,46.44,0,0,1,2.41,4.54h-7.26C680.85,99.42,681.23,98.42,681.85,96.91Z"/><path class="cls-9" d="M777,129.69c-6.09,0-10.58-1.72-13.35-5.11a19.09,19.09,0,0,1-3-5.45,85.43,85.43,0,0,1-2.7-9.38c-.69-2.84-1.44-4.1-1.94-4.66a3.73,3.73,0,0,0-2.7-1h-.08a21.16,21.16,0,0,0-.18,3.28,38.39,38.39,0,0,0,.61,7.78,1.09,1.09,0,0,0,.14.35h0a5.23,5.23,0,0,0,1,.7c3,1.63,3.6,3.9,3.6,5.52s-.65,4.54-5,6c-2.57.85-6.66,1.26-12.5,1.26-4.36,0-17.64,0-17.64-8a4.65,4.65,0,0,1,.9-2.91,10.88,10.88,0,0,1,2.61-2.19,4.1,4.1,0,0,0,1.68-1.86,18.36,18.36,0,0,0,.75-5c.14-1.94.21-9.06.21-21.17,0-4.56-.28-6.5-.51-7.32a2.5,2.5,0,0,0-1.39-1.71,9.43,9.43,0,0,1-3.15-2.14,4.91,4.91,0,0,1-1.14-3.31A5.81,5.81,0,0,1,725.06,69a9.44,9.44,0,0,1,4.29-2.24,23,23,0,0,1,5.48-.52c1,0,3.23.13,7.06.42.64,0,1.7.08,3.15.08,2.44,0,5.76-.17,9.87-.5,2.74-.2,4.62-.3,5.73-.3,6.41,0,11.83,1.6,16.1,4.74a14.77,14.77,0,0,1,6.15,12.53,15.94,15.94,0,0,1-2.13,8.1,14,14,0,0,1-5.31,5.25,14.27,14.27,0,0,1,7.35,5.62c1.56,2.44,2.62,6,3.25,10.75a8.34,8.34,0,0,0,.58,2.44,7.61,7.61,0,0,0,2.27.91l.05,0a4.65,4.65,0,0,1,2.49,1.93,5.36,5.36,0,0,1,.91,3,6.44,6.44,0,0,1-1.45,3.92,9.07,9.07,0,0,1-3.39,2.72C784.84,129.09,781.39,129.69,777,129.69ZM752.61,91c1.79,0,3-.39,3.73-1.17s1.14-2.46,1.14-4.66c0-5.91-2.41-5.91-3.57-5.91a2.69,2.69,0,0,0-.7.07,4.45,4.45,0,0,0-.2,1.29l-.46,9.71v.32c0,.14,0,.25,0,.35Z"/><path class="cls-10" d="M34.13,79.33c-2.05,0-3.32.52-3.8,1.57a19,19,0,0,0-1,4.56,46,46,0,0,0-.47,6.18,2.41,2.41,0,0,0,1.08,2.28,9,9,0,0,0,4,.62,4.76,4.76,0,0,0,2.91-.71,3.92,3.92,0,0,0,1.3-2.42q1-4.87,4.21-4.88,5.46,0,5.46,13.07,0,8.28-2.37,12.17a4.42,4.42,0,0,1-3.94,2.37q-2.64,0-3.05-3.53a15.52,15.52,0,0,0-.55-3.22,4.46,4.46,0,0,0-1.28-1.79,6,6,0,0,0-4.3-1.39,3.94,3.94,0,0,0-2.73.71,3.7,3.7,0,0,0-.62,2.73c0,.24,0,1.63,0,4.17,0,5.16.54,8.3,1.61,9.44a2.74,2.74,0,0,0,1.1.87,22.63,22.63,0,0,0,2.93.56,3,3,0,0,1,2,1.21,3.7,3.7,0,0,1,.81,2.37c0,2.3-1.35,3.77-4,4.43A74.5,74.5,0,0,1,17,132.09q-9.23,0-12.71-1.08a4.94,4.94,0,0,1-2.55-1.79,4.6,4.6,0,0,1-1-2.86,4,4,0,0,1,1.43-3.18,17,17,0,0,1,2.47-1.12c1.67-.65,2.67-2.18,3-4.56q.81-5.5.81-25.1,0-8.46-.58-11a4.78,4.78,0,0,0-2.82-3.49,9.65,9.65,0,0,1-2.93-1.72,3,3,0,0,1-.7-2.13,3.89,3.89,0,0,1,1.93-3.28,8.17,8.17,0,0,1,4.74-1.33c1.19,0,2.94.1,5.24.27q7.29.59,17.45.59,16.24,0,21.88-.9a10.68,10.68,0,0,1,1.16-.09,4,4,0,0,1,3,1.79,17.57,17.57,0,0,1,3.94,11.1,7,7,0,0,1-1.3,4.43,4.11,4.11,0,0,1-3.4,1.65,3.85,3.85,0,0,1-2.37-.62,50.63,50.63,0,0,1-4.12-4.39,9.33,9.33,0,0,0-4.85-3A58,58,0,0,0,34.13,79.33Z"/><path class="cls-10" d="M113,100.27l8.45,18.12a12.81,12.81,0,0,0,2,3.29,4.46,4.46,0,0,0,2.46,1q3.22.49,3.22,3.27c0,2.18-1.31,3.74-3.94,4.7s-6.92,1.43-12.88,1.43a95.16,95.16,0,0,1-15-.85,6.86,6.86,0,0,1-3.56-1.63,3.93,3.93,0,0,1-1.32-3,2.93,2.93,0,0,1,.69-2.08,6.3,6.3,0,0,1,2.57-1.36c1.41-.48,2.11-1.29,2.11-2.42q0-3-3.63-3.54a87.05,87.05,0,0,0-11-.53q-6,0-7.11.71a3.66,3.66,0,0,0-1.26,1.61,5.49,5.49,0,0,0-.53,2.24c0,.66.12,1.08.38,1.28a12.21,12.21,0,0,0,2.48,1c1.82.54,2.73,1.61,2.73,3.22q0,5.33-12.75,5.33a41.42,41.42,0,0,1-10.65-1A4,4,0,0,1,53.38,127a3.06,3.06,0,0,1,.69-2.14,6.12,6.12,0,0,1,2.48-1.39A9.64,9.64,0,0,0,61,120.56a43.25,43.25,0,0,0,4.27-7.94l6.31-13.83a107.58,107.58,0,0,0,4.68-11.38A25.77,25.77,0,0,0,77.45,80a23.28,23.28,0,0,1,.47-5.35,6.75,6.75,0,0,1,1.9-2.93,10.62,10.62,0,0,1,7.88-3.13,13.08,13.08,0,0,1,8.63,3.54Q102.06,77,113,100.27Zm-31.15,5.64H90.6c1.61,0,2.42-.36,2.42-1.07q0-1.49-3.36-7.25a24.31,24.31,0,0,0-2.32-3.54,2.3,2.3,0,0,0-1.7-.89c-1.08,0-2,1-2.69,3q-.18.41-1.29,3.18c-1.26,3-1.88,4.86-1.88,5.46S80.46,105.91,81.83,105.91Z"/><path class="cls-10" d="M175.22,112.67l-5.37,12a21.63,21.63,0,0,1-2.24,4.1,2.42,2.42,0,0,1-1.88,1A2.27,2.27,0,0,1,164,129a28.53,28.53,0,0,1-2.26-3.94q-1.77-3.41-2.93-6l-5.91-13.29c-.8-1.85-1.65-2.77-2.55-2.77s-1.48.79-1.57,2.37c-.2,3.52-.31,6.77-.31,9.75a28.65,28.65,0,0,0,.45,6.31,3,3,0,0,0,.83,1.43,17.35,17.35,0,0,0,2.79,1.61,2.72,2.72,0,0,1,1.48,2.64q0,5-12.84,5-10.83,0-10.83-4.88a2.44,2.44,0,0,1,.56-1.81,12.17,12.17,0,0,1,2.88-1.68,3.75,3.75,0,0,0,2-1.84,17.85,17.85,0,0,0,.87-4.52q.4-3.57.76-11.74t.36-14c0-4.87-.38-8.16-1.12-9.89a3.93,3.93,0,0,0-.92-1.35,10.71,10.71,0,0,0-1.95-1.16c-2.11-1-3.17-2.33-3.17-3.94a4.14,4.14,0,0,1,1.18-2.86A6.47,6.47,0,0,1,135,70.6a35.66,35.66,0,0,1,5.26-1,43.33,43.33,0,0,1,5.57-.43q5.72,0,8.1.94a4.62,4.62,0,0,1,1.83,1.21,18.15,18.15,0,0,1,1.92,3.13l9.31,17.14A23.44,23.44,0,0,0,169,95a2.12,2.12,0,0,0,1.61.62,2.2,2.2,0,0,0,1.59-.67,10,10,0,0,0,1.64-2.51l6.31-12.3c.77-1.58,1.28-2.61,1.52-3.09q2.19-4.47,4.34-6,2.73-1.92,9.93-1.92,12.66,0,12.67,5.77a3.86,3.86,0,0,1-.5,2.08,8.11,8.11,0,0,1-2,1.9,7,7,0,0,0-2.6,4.52,94.05,94.05,0,0,0-1,15,162.51,162.51,0,0,0,1.08,20,6.53,6.53,0,0,0,.83,2.86,12.44,12.44,0,0,0,2.88,2.28,3.29,3.29,0,0,1,1.61,2.87c0,2.09-1.38,3.56-4.16,4.43a20.72,20.72,0,0,1-4.52.94q-2.37.22-7.29.22a44.08,44.08,0,0,1-11.28-1.07q-4.11-1.22-4.11-4.12a2.86,2.86,0,0,1,.53-1.77,22.89,22.89,0,0,1,2.78-2.53,5.75,5.75,0,0,0,1.59-3.62,67.61,67.61,0,0,0,.42-9.13,20.79,20.79,0,0,0-.33-4.7,1.39,1.39,0,0,0-1.41-1.12c-.84,0-1.64.58-2.42,1.73A54.18,54.18,0,0,0,175.22,112.67Z"/><path class="cls-10" d="M231.06,69.17a49.19,49.19,0,0,1,9.62.9c4.06.8,6.09,2.52,6.09,5.14a2.73,2.73,0,0,1-.61,2,12.87,12.87,0,0,1-3.06,1.9c-1.37.69-2.28,2.19-2.71,4.52s-.65,6.86-.65,13.6q0,17.1.85,21.17a4.32,4.32,0,0,0,1,2,8.21,8.21,0,0,0,2.26,1.5c2,.89,3,2.19,3,3.89q0,3.58-5.46,4.92a62,62,0,0,1-14.45,1.44q-14.6,0-14.59-5.55,0-2,2.86-3.76a5.26,5.26,0,0,0,2.6-3.67q.86-5.1.85-21.66c0-7.63-.39-12.53-1.16-14.67a6.66,6.66,0,0,0-3-3.32,10.28,10.28,0,0,1-2.46-2,3.24,3.24,0,0,1-.63-2.06,3.46,3.46,0,0,1,1.86-3.06,21.28,21.28,0,0,1,6.55-2A58,58,0,0,1,231.06,69.17Z"/><path class="cls-10" d="M472.77,67.52q13.05,0,13.05,5.4a3.9,3.9,0,0,1-.67,2.38,8.65,8.65,0,0,1-2.55,2.06A4.34,4.34,0,0,0,480.53,80a31.45,31.45,0,0,0-.44,6.61c0,2,.36,3.16,1.09,3.6a3.87,3.87,0,0,0,1.9.5q1.28.09,6,.09a18.17,18.17,0,0,0,5.35-.46c.7-.31,1.05-1.08,1.05-2.3a40,40,0,0,0-.5-7.7,4.23,4.23,0,0,0-2-3,9,9,0,0,1-2.43-1.78,3,3,0,0,1-.58-2,4.52,4.52,0,0,1,1.29-3.12,6.61,6.61,0,0,1,3.39-1.9,47.56,47.56,0,0,1,10.92-1q7.71,0,11.36,1.41c2.44.93,3.67,2.39,3.67,4.37A4,4,0,0,1,518,77.1a5.6,5.6,0,0,0-2.13,1.45,6.37,6.37,0,0,0-.8,2.57c-.11.7-.25,3.79-.42,9.29s-.25,9.86-.25,13.1q0,8.49.63,10.79a3.89,3.89,0,0,0,.75,1.68,17.45,17.45,0,0,0,2.64,1.67,2.88,2.88,0,0,1,1.59,2.68q0,3.18-3.79,4.62T504,126.4q-7.44,0-11-1.47-3.23-1.34-3.22-4.14a4.12,4.12,0,0,1,2.46-3.73,4.7,4.7,0,0,0,1.66-1.33,8.35,8.35,0,0,0,.85-2.47,41.39,41.39,0,0,0,.76-8.62q0-2.64-.78-3.27c-.51-.42-1.86-.62-4-.62-5,0-8.18.27-9.54.83-.56.23-.91.88-1.05,2a40.24,40.24,0,0,0-.25,4.94c0,3.18.44,5.46,1.34,6.86a7.38,7.38,0,0,0,2.17,1.71,3.52,3.52,0,0,1,1.76,3.31c0,1.95-1.35,3.45-4.06,4.48s-6.57,1.55-11.59,1.55A36.74,36.74,0,0,1,458.25,125a7,7,0,0,1-2.95-1.77,3.68,3.68,0,0,1-1.07-2.54,3.07,3.07,0,0,1,.67-2.13,11.51,11.51,0,0,1,2.93-1.93,3.58,3.58,0,0,0,1.65-1.5,9.45,9.45,0,0,0,.73-3.1,104.3,104.3,0,0,0,.63-12.8c0-1,0-2.14,0-3.48q-.17-10-.17-11.46c0-2.4-.17-4-.6-4.75A8.18,8.18,0,0,0,456.62,77a2.83,2.83,0,0,1-1.85-2.64q0-4.22,8.21-5.86A49.47,49.47,0,0,1,472.77,67.52Z"/><path class="cls-10" d="M555.62,67.27a30,30,0,0,1,18.78,6.15,31.55,31.55,0,0,1,8.83,11,29.9,29.9,0,0,1,3.31,13.38A26.74,26.74,0,0,1,580,115.43a30.53,30.53,0,0,1-14.44,9.5,35.87,35.87,0,0,1-11,1.76,33.15,33.15,0,0,1-13.85-3,27.91,27.91,0,0,1-12.51-11A29.26,29.26,0,0,1,523.81,97a28.72,28.72,0,0,1,5.65-17.57,29.07,29.07,0,0,1,13.52-10A35.15,35.15,0,0,1,555.62,67.27Zm-4,12a6.33,6.33,0,0,0-5.56,3.14A9.67,9.67,0,0,0,544.49,88a37.76,37.76,0,0,0,1.92,11,49,49,0,0,0,4.85,11,10.45,10.45,0,0,0,3.21,3.27,7.15,7.15,0,0,0,3.87,1.21,6.29,6.29,0,0,0,5.12-2.39,9.59,9.59,0,0,0,1.95-6.27,41.09,41.09,0,0,0-1.63-10.92,38,38,0,0,0-4.23-10,13.56,13.56,0,0,0-3.68-4A7.91,7.91,0,0,0,551.64,79.28Z"/><path class="cls-10" d="M622.36,67.27a33.84,33.84,0,0,1,10.33,1.55,12.05,12.05,0,0,0,3,.71,14,14,0,0,0,3.52-1,5.47,5.47,0,0,1,1.8-.29q2.34,0,4.47,2.76a15.5,15.5,0,0,1,3.44,9.71,8.9,8.9,0,0,1-1.82,5.81,5.92,5.92,0,0,1-4.8,2.22A7.94,7.94,0,0,1,637.5,87,35.37,35.37,0,0,1,634,83.09q-4.6-5.66-10.58-5.65a10.53,10.53,0,0,0-8.65,4q-3.19,4-3.2,10.72,0,10,5.11,17a15.15,15.15,0,0,0,4.6,4.08,10.76,10.76,0,0,0,5.32,1.52,4.75,4.75,0,0,0,3.57-1.44,5.07,5.07,0,0,0,1.4-3.7,3.27,3.27,0,0,0-1.17-2.85,2.13,2.13,0,0,0-.86-.4q-.39-.06-2.4-.06a4.11,4.11,0,0,1-3-1.15,3.87,3.87,0,0,1-1.2-2.91q0-3.47,4.61-4.94a39.26,39.26,0,0,1,11.67-1.59,41.11,41.11,0,0,1,11.88,1.47c3.05,1,4.57,2.66,4.57,5.15a3.67,3.67,0,0,1-1.05,2.61,4.35,4.35,0,0,1-2.72,1.32,3.48,3.48,0,0,0-1.9.65,5.24,5.24,0,0,0-.9,2.15,21.84,21.84,0,0,1-7,11.13,26.1,26.1,0,0,1-8.69,4.77,33,33,0,0,1-10.69,1.72,34.22,34.22,0,0,1-16.82-4.23,29.39,29.39,0,0,1-15.4-26,27.48,27.48,0,0,1,4.11-14.4,29.25,29.25,0,0,1,12.17-11.29A33.44,33.44,0,0,1,622.36,67.27Z"/><path class="cls-10" d="M707.68,96.65l7.9,16.94a12.34,12.34,0,0,0,1.89,3.08,4.2,4.2,0,0,0,2.3,1q3,.46,3,3,0,3.06-3.68,4.4t-12.05,1.34a89.28,89.28,0,0,1-14-.8,6.52,6.52,0,0,1-3.33-1.52,3.69,3.69,0,0,1-1.23-2.79,2.74,2.74,0,0,1,.65-1.94,5.92,5.92,0,0,1,2.4-1.28c1.31-.44,2-1.2,2-2.26q0-2.8-3.39-3.3a78.6,78.6,0,0,0-10.25-.51c-3.71,0-5.93.23-6.65.67a3.31,3.31,0,0,0-1.17,1.51,4.93,4.93,0,0,0-.51,2.09c0,.62.12,1,.36,1.19a10.19,10.19,0,0,0,2.32.9c1.7.51,2.55,1.51,2.55,3q0,5-11.92,5a39.2,39.2,0,0,1-10-.92,3.71,3.71,0,0,1-2.93-3.85,2.87,2.87,0,0,1,.65-2,5.68,5.68,0,0,1,2.32-1.3,9,9,0,0,0,4.12-2.7,40.36,40.36,0,0,0,4-7.43l5.9-12.93a103,103,0,0,0,4.37-10.64,24.16,24.16,0,0,0,1.15-6.93,22.44,22.44,0,0,1,.44-5A6.35,6.35,0,0,1,676.67,70,9.9,9.9,0,0,1,684,67a12.25,12.25,0,0,1,8.08,3.31Q697.46,74.85,707.68,96.65Zm-29.13,5.27h8.2c1.51,0,2.26-.34,2.26-1q0-1.38-3.13-6.78a22.64,22.64,0,0,0-2.18-3.3,2.14,2.14,0,0,0-1.59-.84c-1,0-1.84.94-2.51,2.81-.11.25-.52,1.24-1.21,3a22.94,22.94,0,0,0-1.76,5.1Q676.63,101.92,678.55,101.92Z"/><path class="cls-10" d="M751.82,101.54c-1.06,0-1.74.32-2,1a13.85,13.85,0,0,0-.44,4.48,39.51,39.51,0,0,0,.67,8.29,2.94,2.94,0,0,0,.63,1.29,6.7,6.7,0,0,0,1.59,1.13,4.12,4.12,0,0,1,2.51,3.64c0,1.84-1.17,3.15-3.49,3.91s-6.27,1.16-11.83,1.16q-15.48,0-15.48-5.86a2.63,2.63,0,0,1,.46-1.61,9.73,9.73,0,0,1,2.09-1.7,6.17,6.17,0,0,0,2.49-2.86,20.54,20.54,0,0,0,.9-5.72q.21-3,.21-21.29a34.86,34.86,0,0,0-.58-7.91A4.7,4.7,0,0,0,727,76.39a7.7,7.7,0,0,1-2.47-1.61,2.81,2.81,0,0,1-.63-1.9,3.66,3.66,0,0,1,1.19-2.7,7.38,7.38,0,0,1,3.33-1.7,21.17,21.17,0,0,1,4.94-.46q1.38,0,6.9.42c.7.06,1.8.09,3.31.09q3.76,0,10-.51c2.65-.19,4.5-.29,5.56-.29q9,0,14.82,4.31a12.68,12.68,0,0,1,5.27,10.8,13.67,13.67,0,0,1-1.84,7,11.8,11.8,0,0,1-5.06,4.74c-.9.45-1.34,1-1.34,1.6,0,.8.68,1.46,2.05,2a12.27,12.27,0,0,1,6.44,4.81q2.06,3.23,2.93,9.88a7.53,7.53,0,0,0,1.09,3.58,7.53,7.53,0,0,0,3.3,1.57,2.48,2.48,0,0,1,1.34,1.06,3.25,3.25,0,0,1,.55,1.82,4.33,4.33,0,0,1-1,2.62,6.88,6.88,0,0,1-2.59,2.07,23.27,23.27,0,0,1-9.63,1.63q-8.16,0-11.67-4.31a17,17,0,0,1-2.7-4.85,86.58,86.58,0,0,1-2.62-9.12,13.08,13.08,0,0,0-2.44-5.61A5.82,5.82,0,0,0,751.82,101.54ZM749.39,80.2,748.93,90v.38a3.26,3.26,0,0,0,.44,2,2.38,2.38,0,0,0,1.78.5c2.46,0,4.24-.64,5.36-1.91s1.67-3.29,1.67-6.08q0-8.09-5.73-8.08a3,3,0,0,0-2.3.75A4.38,4.38,0,0,0,749.39,80.2Z"/><path class="cls-9" d="M359.43,123.19a8.19,8.19,0,0,0,2.71-3,2.3,2.3,0,0,0-.91-1.62,6,6,0,0,1-2.65-3.69,24.26,24.26,0,0,0-5.94,2.16,18.72,18.72,0,0,0,.24,4.54,1.6,1.6,0,0,1-.16,1.09c-.35.64-.63,1.32-1,2-.9,0-1.76,0-2.63,0-.09,0-.17-.23-.36-.49a11.55,11.55,0,0,1,1.13-.35c.92-.2,1.34-.59,1.28-1.56a18.29,18.29,0,0,0-.44-2.83,13.6,13.6,0,0,0-.58-2c-.08-.22-.31-.39-.55-.69l-.19.81a7,7,0,0,1-.61.37c-1.11.58-2.21,1.21-3.35,1.72a2.66,2.66,0,0,0-1.67,2.38,2.92,2.92,0,0,1-1.2,2.12c-.83-.19-1-.5-.67-1.17a13.06,13.06,0,0,0,1.29-3.52,1.86,1.86,0,0,1,.63-.9c.52-.44,1.11-.79,1.67-1.19.25-.19.48-.42.71-.62a2.13,2.13,0,0,0-.81-1.6,3.74,3.74,0,0,1-.76-1,1.65,1.65,0,0,0-1.75-.73,6.34,6.34,0,0,1-2.15-.23,14.08,14.08,0,0,1-1.37.5c-.65.17-.95,0-1.32-.61a4.81,4.81,0,0,0-.6-.59l-.16.93a8.41,8.41,0,0,1,1.7,4.91,2.57,2.57,0,0,0,.47,1.59,4.41,4.41,0,0,1,.44,1.52c-1.4,2.12-3.23,2.83-4.88,2a1.21,1.21,0,0,1,.55-1.11,3.27,3.27,0,0,0,1.12-2.61,5.68,5.68,0,0,0-1.23-3.39,4.77,4.77,0,0,1-1.29-2.2,16.64,16.64,0,0,0-1-2.69,2.84,2.84,0,0,0-.31-.45,4.27,4.27,0,0,0-.26.58,23.2,23.2,0,0,1-.75,2.66,22.35,22.35,0,0,0-1.07,5.11,2.61,2.61,0,0,1,0,.4,10.46,10.46,0,0,0-.47,3.92c-1.57.68-3.59.5-4.38-.43.18-.21.35-.45.55-.65s.53-.47.8-.7a2,2,0,0,0,.92-1.86c0-.45,0-.89,0-1.33,0-1,.07-1.91.17-2.85s.32-2,.45-3c.05-.43,0-.87,0-1.31l.18-4.07a1.45,1.45,0,0,1,.1-.55,7.61,7.61,0,0,0,.38-4c0-1.14-.07-2.29-.1-3.43,0-.11,0-.21,0-.46a6.67,6.67,0,0,0-1.59.33,4.21,4.21,0,0,1-2.78.07c-1.07-.19-2.12-.47-3.2-.63a6.75,6.75,0,0,0-1.52.15l-.27-.92-.67.32c-.05-.05-.15-.1-.16-.16-.18-1.33-.61-2.68.31-3.94a1.3,1.3,0,0,0,.15-.79c-.09-1.44-.2-2.88-.31-4.31-.05-.63-.11-1.25-.18-1.87a3.15,3.15,0,0,0-.26-1c-.08,2.69.41,5.37,0,8.08l-.68.4c-.23,1.47-.48,3-.7,4.48a65.93,65.93,0,0,1-1.74,8.24c-.37,1.31-.74,2.61-1.1,3.93a1.14,1.14,0,0,0-.05.63c.41,1.35.86,2.69,1.29,4,.22.7.44,1.4.65,2.1s.37,1.31.52,1.83l-.41,2.08c-.53.13-1,.28-1.53.39a5.47,5.47,0,0,0-1.78.54,2.07,2.07,0,0,1-.95.13c-.3,0-.6,0-.92,0l-.32.56a13.41,13.41,0,0,1-5.57.13v-1l1.43-1.1a4.49,4.49,0,0,1,.29-2.53c.43-1.18.91-2.34,1.34-3.51.36-1,.68-2,1-3-.73-.63-1-1.3-.51-2.1a48,48,0,0,1-3-16.81l-1-.37c-.2-1.11.32-2.17.37-3.26s.22-2.28.36-3.41a28.53,28.53,0,0,0,.28-3.37,9.06,9.06,0,0,0-.64,1.68,21.39,21.39,0,0,1-2.47,6.18c-.16.29-.31.58-.48.91.71,1.44-.11,2.91.19,4.55l-.86-.59-.07.07.74.92c-.2.54-.59.47-.93.29a2.77,2.77,0,0,1-1.32-3.4c.26-.86.47-1.73.65-2.6.27-1.23.49-2.46.73-3.69a2.7,2.7,0,0,0,.09-.48A11.72,11.72,0,0,1,303,83c.31-.73.58-1.47.84-2.21A5,5,0,0,0,304,80l-1.19-.73a24.63,24.63,0,0,1,2.91-5.31,3.55,3.55,0,0,1,2.44-1.37c.5-.05,1-.19,1.54-.3a2.36,2.36,0,0,1,1.21-2.17,7.61,7.61,0,0,0-.27-1.29,3.1,3.1,0,0,1-.16-2.14,3.78,3.78,0,0,0,.1-1.3,2.22,2.22,0,0,1,1.62-2.22,2.9,2.9,0,0,1,2.68.11,4.09,4.09,0,0,1,1.32,1.05,2.24,2.24,0,0,1,.53,1.59c0,.3,0,.6,0,.9a.94.94,0,0,0,.63,1,8.35,8.35,0,0,0-1.07,3.07l.17,1.78,3.48,1.88a1.9,1.9,0,0,1,1,1.23c.48,1.68,1,3.35,1.48,5a3.53,3.53,0,0,1,.07.6l-.82.53c.06,1,.05,2,.2,3a27.24,27.24,0,0,1,.06,6.69,9.2,9.2,0,0,0,.2,4.14l.48,1.29a8,8,0,0,0,3.67-.3,6.69,6.69,0,0,0,1.85-1.18,7.15,7.15,0,0,1,3.79-2,3.8,3.8,0,0,1-1.76-3.33c-.06-.78-.27-1.56-.26-2.34a2.51,2.51,0,0,1,1.27-1.83,3.85,3.85,0,0,1,1.45-.71,2.71,2.71,0,0,1,3,1.57,8.64,8.64,0,0,1,.19,3.24,4.94,4.94,0,0,1-.67,1.41,1.72,1.72,0,0,0,1.11,1.68,5.83,5.83,0,0,0,.62.39c1.79.64,2.36,2.29,3.18,3.75a5.63,5.63,0,0,0,.91,1.32,3.68,3.68,0,0,1,.91,1.43c.28.78.62,1.55.92,2.33a11.37,11.37,0,0,0,.37,1.17,8.1,8.1,0,0,0,.92,1.52c.64.81.67,1.12,0,1.9a2.92,2.92,0,0,0-.21.32,1.63,1.63,0,0,0,1.71,1.25c1.74.07,3.48.12,5.22.18a2.64,2.64,0,0,1,.49,0c2,.37,3.91-.06,5.86-.22a20.81,20.81,0,0,1,5.46-.16,1.86,1.86,0,0,0,1.47-.31,14,14,0,0,1,1.64-.87l.82.52c-.43.46-.78.86-1.15,1.25-.85.88-.94,1.4-.2,2.36a2.05,2.05,0,0,1,.4,2c-.11.39-.16.8-.25,1.2a3.27,3.27,0,0,0,1.49,4l.59.43a20.21,20.21,0,0,1,0,5.15,4.8,4.8,0,0,1-2.44,0c-.07-1,.81-.8,1.21-1.15a3.14,3.14,0,0,0-1.67-3.88c-1,1.37-1.91,2.75-2.89,4.11a1.38,1.38,0,0,1-1.53.58Zm-17.61-16-.29-.08c0-.55.05-1.11.11-1.66a2,2,0,0,0-.54-1.72,9.54,9.54,0,0,1-.74-1,1.55,1.55,0,0,1-1-1,1.58,1.58,0,0,0-1-.92v1.2a10.76,10.76,0,0,1-.38,3.48,2.67,2.67,0,0,0,0,1.13,7.28,7.28,0,0,1,0,2.59,15.54,15.54,0,0,0-.25,1.59c.77-.17.35-.69.41-1,.39-1.44,1.72-1.62,2.8-2a4.07,4.07,0,0,0,1.81-1l-.41-.82Z"/><path class="cls-9" d="M397.51,104.06a1,1,0,0,1,.22-1.14,1.27,1.27,0,0,0,0-1.7c-.37.5.18,1.21-.44,1.69a4.31,4.31,0,0,1-.17-.44,6.26,6.26,0,0,1,.29-3.45,5.27,5.27,0,0,0-.06-3.07c-.22-1.07-.5-2.12-.72-3.19-.34-1.62-.65-3.25-1-5-.17.74-.33,1.39-.49,2a12.44,12.44,0,0,0,.38,6.29c.27,1,.49,2.06.7,3.1.11.6.09,1.17-.5,1.31-.42,1.4-.79,2.69-1.19,4s-.83,2.54-1.23,3.81a2.67,2.67,0,0,0-.13.89,21.08,21.08,0,0,0,.35,3.71,8.9,8.9,0,0,1,0,2.19c0,.54-.07,1.08-.11,1.63.54.26,1,.46,1.45.72a1,1,0,0,1,.6,1.43,6.25,6.25,0,0,1-.68,1.46,2.38,2.38,0,0,0-.35,1.3,9.27,9.27,0,0,1-.24,2.1c-.21.92-.65,1.2-1.59,1.17-.33,0-.65-.08-1-.12-.14.63-.64.85-1.2,1.07a9.86,9.86,0,0,0-1.52.77,1.83,1.83,0,0,1-2.58-.63,13.69,13.69,0,0,0,2.65-4.19c.6-1.64.39-3.34.64-4.89-1.2-1.46-2.3-2.84-3.45-4.18a3.19,3.19,0,0,1-.8-1.84,61.84,61.84,0,0,1-.49-7.82,8.76,8.76,0,0,0-.31-2.85,13.81,13.81,0,0,1-.11-5.69c0-.08,0-.16,0-.4a3.15,3.15,0,0,0-.37.47c-.39.69-.76,1.39-1.14,2.08a.76.76,0,0,0-.12.3c-.08,1-.16,2-.22,3.06,0,.33.17.7-.32.89-.09,0-.07.35-.11.58h-.4l-.17.39-.53-.12c-.24.73-.45,1.43-.68,2.12a2.81,2.81,0,0,1-1.09,1.49,2.71,2.71,0,0,0-1.16,1.23c-.09.22-.45.39-.72.48a.93.93,0,0,0-.68,1c0,.6-.07,1.2-.09,1.79a1.51,1.51,0,0,0,.1.64,3,3,0,0,1,.1,1.87L377.9,115a3.78,3.78,0,0,0-.17,2.68,1.32,1.32,0,0,0,.25.59,6.08,6.08,0,0,1,1.46,2.33,3.11,3.11,0,0,0,1.15,1.33c.55.37.67.65.39,1.22a6.8,6.8,0,0,1-.91,1.45,2.54,2.54,0,0,1-2.75.47l.82-1.61c-.27-.37-.48-.91-.88-1.15a22.86,22.86,0,0,1-2.87-2.78l-.31-.3a7.9,7.9,0,0,1-.6,1,3.5,3.5,0,0,0-.6,3.15c.06.4.14.8.2,1.19a4.13,4.13,0,0,1-3.8,1.2c-.18-.46.08-.81.33-1.17s.54-.84.81-1.26l-.2-.06c-.08-.42-.18-.83-.23-1.25a4.49,4.49,0,0,1-.09-1.62c.31-1.12-.16-2.37.57-3.42.12-.17.06-.47.06-.71,0-.41,0-.81-.06-1.19.61-.62,1.09-1.23.81-2.14-1.13,1.13-1.1,2.58-1.15,4-.84-.07-1.12-.29-1.06-1a20.8,20.8,0,0,1,.39-2.49c.2-1,.44-2.06.69-3.19l-.42-.39.9-3.19,1.6-1c-.24-.64-.57-.07-1-.21l-.34-1.1-.9.27c-.33-.41-.58-.7-.79-1-.48-.72-.51-1.47.63-1.67.19,0,.38-.08.66-.14,0-.79-.19-1.72.61-2.29a3.26,3.26,0,0,1,1.24-.57c1.23-.21,2,.3,2.64,1.61l1.13,1,.37,0,.25.8-1.21,1.26,1.17.1a1.48,1.48,0,0,1-1.43.67h3.12c.46-.8.91-1.55,1.3-2.32a1.39,1.39,0,0,0,.11-.87,2,2,0,0,1,.19-1.49,46.74,46.74,0,0,0,2.67-8.49,10.15,10.15,0,0,1,.86-2.2,16.67,16.67,0,0,0,1.39-4.12,1.76,1.76,0,0,1-.25-1.91c.4-1.13.85-2.24,1.25-3.25,1-.63,2.18-.6,3-1.37a.62.62,0,0,0-.79-.23.59.59,0,0,1-.8-.35c-.27-.52-.55-1-.89-1.68l-.57-.25c.24-.81.3-1.57-.46-2.09C384.9,71.19,387,69.35,389,69c1.68-.33,2.41,0,3.41,1.39a4.8,4.8,0,0,1,.92,2.74,3.49,3.49,0,0,0,.44,1.28,13.45,13.45,0,0,0,.72,1.19,1.18,1.18,0,0,1,.17,1.08,1.33,1.33,0,0,0,.23,1.16,5.45,5.45,0,0,1,.39,1.07l-.18.16c.59.23,1.19.48,1.79.69a1.32,1.32,0,0,1,.9.77c.32.87.65,1.74.88,2.63a1.89,1.89,0,0,1-.1,1.2,2.91,2.91,0,0,0-.18,1.26,21.94,21.94,0,0,0,.75,6,10.26,10.26,0,0,1,.16,2.28,31.11,31.11,0,0,0,.22,6.54,2.74,2.74,0,0,1-.47,2.41A13.42,13.42,0,0,1,397.51,104.06Z"/></g></g></svg>