<svg xmlns="http://www.w3.org/2000/svg" viewBox="0 0 2147.18 1308.46"><defs><style>.cls-1{fill:#fec906;}.cls-2{fill:#fff;}.cls-3{fill:#11a14e;}.cls-4{fill:#c0c9d4;}.cls-5{fill:#e1e4ea;}.cls-6{fill:#cfd6df;}.cls-7{fill:#2864ac;}.cls-8{fill:#2160aa;}</style></defs><g id="Capa_2" data-name="Capa 2"><g id="Capa_1-2" data-name="Capa 1"><path class="cls-1" d="M1087.54,1240.92l-8.78,21.18h17.55Zm0,0-8.78,21.18h17.55Zm0,0-8.78,21.18h17.55Zm142.62,5.92a16.09,16.09,0,0,0-6.21-6.28,18.46,18.46,0,0,0-17.7,0,16.09,16.09,0,0,0-6.21,6.28,19.81,19.81,0,0,0,0,18.34,16.16,16.16,0,0,0,6.21,6.28,18.46,18.46,0,0,0,17.7,0,16.16,16.16,0,0,0,6.21-6.28,19.81,19.81,0,0,0,0-18.34Zm0,0a16.09,16.09,0,0,0-6.21-6.28,18.46,18.46,0,0,0-17.7,0,16.09,16.09,0,0,0-6.21,6.28,19.81,19.81,0,0,0,0,18.34,16.16,16.16,0,0,0,6.21,6.28,18.46,18.46,0,0,0,17.7,0,16.16,16.16,0,0,0,6.21-6.28,19.81,19.81,0,0,0,0-18.34Zm-142.62-5.92-8.78,21.18h17.55Zm256.08-52.3H803.56a59.92,59.92,0,1,0,0,119.84h540.06a59.92,59.92,0,0,0,0-119.84ZM887,1283.67H874.38l-23.87-55.32h13.83l16.84,39.51,17.07-39.51H911Zm41.33,0h-12.8v-55.32h12.8Zm52.12-7.55a17.76,17.76,0,0,1-7.94,6.21,32.33,32.33,0,0,1-12.88,2.29,45.14,45.14,0,0,1-12.69-1.78,29.85,29.85,0,0,1-9.84-4.62l4.35-9.64a29.32,29.32,0,0,0,8.46,4.18,31.53,31.53,0,0,0,9.8,1.58c3.63,0,6.32-.53,8.06-1.62a4.87,4.87,0,0,0,2.61-4.3,4.12,4.12,0,0,0-1.54-3.28,11.77,11.77,0,0,0-4-2.1c-1.6-.52-3.78-1.1-6.51-1.73a90,90,0,0,1-10.36-3,16.78,16.78,0,0,1-6.91-4.82,13,13,0,0,1-2.89-8.85,15.37,15.37,0,0,1,2.61-8.73,17.5,17.5,0,0,1,7.86-6.21,32.11,32.11,0,0,1,12.85-2.29,42.69,42.69,0,0,1,10.35,1.26,30.83,30.83,0,0,1,8.85,3.64l-4,9.72a30.81,30.81,0,0,0-15.33-4.34c-3.59,0-6.23.57-7.94,1.73A5.31,5.31,0,0,0,951,1244a4.5,4.5,0,0,0,3,4.23A46.17,46.17,0,0,0,963,1251a91.45,91.45,0,0,1,10.35,3,17.3,17.3,0,0,1,6.92,4.75q2.88,3.24,2.88,8.77A15,15,0,0,1,980.48,1276.12Zm21.31-63.66h13.27l-14.31,11.38h-9.63Zm2.92,71.21H991.9v-55.32h12.81Zm37.38,0h-12.8v-44.89h-17.71v-10.43h48.21v10.43h-17.7Zm63.15,0-4.9-11.85h-25.69l-4.9,11.85h-13.11l24.65-55.32h12.65l24.74,55.32Zm70,0h-10.52l-27.58-33.59v33.59h-12.65v-55.32H1135l27.51,33.59v-33.59h12.65Zm66.23-13a28,28,0,0,1-10.83,10.24,34.28,34.28,0,0,1-31,0,27.61,27.61,0,0,1-10.83-10.24,29.44,29.44,0,0,1,0-29.32,27.61,27.61,0,0,1,10.83-10.24,34.28,34.28,0,0,1,31,0,28.62,28.62,0,0,1,10.83,39.56Zm52.6,5.45a17.85,17.85,0,0,1-8,6.21,32.33,32.33,0,0,1-12.88,2.29,45.19,45.19,0,0,1-12.69-1.78,29.85,29.85,0,0,1-9.84-4.62l4.35-9.64a29.32,29.32,0,0,0,8.46,4.18,31.58,31.58,0,0,0,9.8,1.58c3.64,0,6.32-.53,8.06-1.62a4.87,4.87,0,0,0,2.61-4.3,4.09,4.09,0,0,0-1.54-3.28,11.82,11.82,0,0,0-4-2.1c-1.61-.52-3.79-1.1-6.52-1.73a90,90,0,0,1-10.36-3,16.78,16.78,0,0,1-6.91-4.82,13,13,0,0,1-2.89-8.85,15.37,15.37,0,0,1,2.61-8.73,17.5,17.5,0,0,1,7.86-6.21,32.07,32.07,0,0,1,12.85-2.29,42.63,42.63,0,0,1,10.35,1.26,30.83,30.83,0,0,1,8.85,3.64l-4,9.72a30.81,30.81,0,0,0-15.33-4.34c-3.59,0-6.23.57-8,1.73a5.31,5.31,0,0,0-2.56,4.59,4.49,4.49,0,0,0,3,4.23,46.17,46.17,0,0,0,9,2.72,92.07,92.07,0,0,1,10.35,3,17.3,17.3,0,0,1,6.92,4.75q2.88,3.24,2.88,8.77A15.11,15.11,0,0,1,1294,1276.12ZM1224,1240.56a18.46,18.46,0,0,0-17.7,0,16.09,16.09,0,0,0-6.21,6.28,19.81,19.81,0,0,0,0,18.34,16.16,16.16,0,0,0,6.21,6.28,18.46,18.46,0,0,0,17.7,0,16.16,16.16,0,0,0,6.21-6.28,19.81,19.81,0,0,0,0-18.34A16.09,16.09,0,0,0,1224,1240.56Zm-145.19,21.54h17.55l-8.77-21.18Zm8.78-21.18-8.78,21.18h17.55Zm0,0-8.78,21.18h17.55Z"/><path class="cls-2" d="M49.2,21.2H0V8.4H113.2V21.2H64V148.4H49.2Z"/><path class="cls-2" d="M138.4,142.5a50.39,50.39,0,0,1-19.2-19.1,54.4,54.4,0,0,1-7-27.6,54.4,54.4,0,0,1,7-27.6,49.65,49.65,0,0,1,19.2-19,58.6,58.6,0,0,1,54.8,0,48.93,48.93,0,0,1,19.1,19,55.06,55.06,0,0,1,6.9,27.6,55.06,55.06,0,0,1-6.9,27.6,49.65,49.65,0,0,1-19.1,19.1,57.85,57.85,0,0,1-54.8,0Zm47.5-10.8a35.54,35.54,0,0,0,13.9-14.5,44.91,44.91,0,0,0,5-21.4,44.91,44.91,0,0,0-5-21.4,35.54,35.54,0,0,0-13.9-14.5,42.16,42.16,0,0,0-40.2,0,36.22,36.22,0,0,0-14,14.5,44.16,44.16,0,0,0-5.1,21.4,44.16,44.16,0,0,0,5.1,21.4,36.22,36.22,0,0,0,14,14.5,42.16,42.16,0,0,0,40.2,0Z"/><path class="cls-2" d="M344.2,0V148.4H330.6V127.6a43.28,43.28,0,0,1-16.9,16.2,49.61,49.61,0,0,1-23.7,5.6,53.42,53.42,0,0,1-26.8-6.8,48.58,48.58,0,0,1-18.8-19,56.15,56.15,0,0,1-6.8-27.8A56.15,56.15,0,0,1,244.4,68a47.93,47.93,0,0,1,18.8-18.9A54,54,0,0,1,290,42.4a49.8,49.8,0,0,1,23.1,5.3A43.8,43.8,0,0,1,330,63.2V0ZM311.1,131.7a36.22,36.22,0,0,0,14-14.5,44.16,44.16,0,0,0,5.1-21.4,44.16,44.16,0,0,0-5.1-21.4,36.22,36.22,0,0,0-14-14.5,41.76,41.76,0,0,0-40,0,36.22,36.22,0,0,0-14,14.5A44.16,44.16,0,0,0,252,95.8a44.16,44.16,0,0,0,5.1,21.4,36.22,36.22,0,0,0,14,14.5,41.76,41.76,0,0,0,40,0Z"/><path class="cls-2" d="M399.4,142.5a50.25,50.25,0,0,1-19.2-19.1,54.4,54.4,0,0,1-7-27.6,54.4,54.4,0,0,1,7-27.6,49.52,49.52,0,0,1,19.2-19,58.6,58.6,0,0,1,54.8,0,48.93,48.93,0,0,1,19.1,19,55.06,55.06,0,0,1,6.9,27.6,55.06,55.06,0,0,1-6.9,27.6,49.65,49.65,0,0,1-19.1,19.1,57.85,57.85,0,0,1-54.8,0Zm47.5-10.8a35.6,35.6,0,0,0,13.9-14.5,44.91,44.91,0,0,0,5-21.4,44.91,44.91,0,0,0-5-21.4,35.6,35.6,0,0,0-13.9-14.5,42.16,42.16,0,0,0-40.2,0,36.15,36.15,0,0,0-14,14.5,44.16,44.16,0,0,0-5.1,21.4,44.16,44.16,0,0,0,5.1,21.4,36.15,36.15,0,0,0,14,14.5,42.16,42.16,0,0,0,40.2,0Z"/><path class="cls-2" d="M561.6,0h14.2V148.4H561.6Z"/><path class="cls-2" d="M631,142.5a50.25,50.25,0,0,1-19.2-19.1,54.4,54.4,0,0,1-7-27.6,54.4,54.4,0,0,1,7-27.6,49.52,49.52,0,0,1,19.2-19,58.6,58.6,0,0,1,54.8,0,48.93,48.93,0,0,1,19.1,19,55.06,55.06,0,0,1,6.9,27.6,55.06,55.06,0,0,1-6.9,27.6,49.65,49.65,0,0,1-19.1,19.1,57.85,57.85,0,0,1-54.8,0Zm47.5-10.8a35.6,35.6,0,0,0,13.9-14.5,44.91,44.91,0,0,0,5-21.4,44.91,44.91,0,0,0-5-21.4,35.6,35.6,0,0,0-13.9-14.5,42.16,42.16,0,0,0-40.2,0,36.15,36.15,0,0,0-14,14.5,44.16,44.16,0,0,0-5.1,21.4,44.16,44.16,0,0,0,5.1,21.4,36.15,36.15,0,0,0,14,14.5,42.16,42.16,0,0,0,40.2,0Z"/><path class="cls-2" d="M889.19,43.2v144H875V128.6a43.73,43.73,0,0,1-16.9,15.5,49.74,49.74,0,0,1-23.1,5.3,53.85,53.85,0,0,1-26.9-6.7,48.21,48.21,0,0,1-18.7-18.9q-6.79-12.19-6.8-28a56.15,56.15,0,0,1,6.8-27.8,48,48,0,0,1,18.8-18.9A54,54,0,0,1,835,42.4a49.61,49.61,0,0,1,23.7,5.6,43.69,43.69,0,0,1,16.9,16V43.2Zm-33.1,88.5a36.15,36.15,0,0,0,14-14.5,44.16,44.16,0,0,0,5.1-21.4,43.57,43.57,0,0,0-5.1-21.3,37.06,37.06,0,0,0-14-14.5,38.66,38.66,0,0,0-19.9-5.2,39.1,39.1,0,0,0-20.1,5.2,37.13,37.13,0,0,0-14,14.5A43.57,43.57,0,0,0,797,95.8a44.16,44.16,0,0,0,5.1,21.4,36.22,36.22,0,0,0,14,14.5,39.73,39.73,0,0,0,20.1,5.1A39.28,39.28,0,0,0,856.09,131.7Z"/><path class="cls-2" d="M1023.59,43.2V148.4H1010V129.2a38.92,38.92,0,0,1-15.4,14.9,46.37,46.37,0,0,1-22.4,5.3q-20.6,0-32.5-11.5t-11.9-33.7v-61H942v59.6q0,16.61,8.2,25.2t23.4,8.6q16.6,0,26.2-10.1t9.6-28.1V43.2Z"/><path class="cls-2" d="M1155,100.2h-88q1.2,16.39,12.6,26.5t28.8,10.1a45.46,45.46,0,0,0,18-3.5,39.29,39.29,0,0,0,14.2-10.3l8,9.2a45,45,0,0,1-17.5,12.8,59.25,59.25,0,0,1-23.1,4.4q-16.2,0-28.7-6.9a49.81,49.81,0,0,1-19.5-19.1,54.4,54.4,0,0,1-7-27.6,56.32,56.32,0,0,1,6.7-27.6,48.54,48.54,0,0,1,18.4-19,51.41,51.41,0,0,1,26.3-6.8,50.87,50.87,0,0,1,26.2,6.8,48.18,48.18,0,0,1,18.2,18.9q6.6,12.11,6.6,27.7Zm-76.3-35.9Q1068.38,74,1067,89.6h74.6q-1.39-15.6-11.7-25.3t-25.7-9.7Q1089,54.6,1078.69,64.3Z"/><path class="cls-2" d="M1321.69,53.9q11.7,11.51,11.7,33.5v61h-14.2V88.8q0-16.39-8.2-25t-23.4-8.6q-17,0-26.9,10.1t-9.9,27.9v55.2h-14.2V43.2h13.6V62.6a39.42,39.42,0,0,1,16.1-14.9q10.29-5.3,23.9-5.3Q1310,42.4,1321.69,53.9Z"/><path class="cls-2" d="M1464,100.2h-88q1.2,16.39,12.6,26.5t28.8,10.1a45.39,45.39,0,0,0,18-3.5,39.29,39.29,0,0,0,14.2-10.3l8,9.2a45,45,0,0,1-17.5,12.8,59.25,59.25,0,0,1-23.1,4.4q-16.2,0-28.7-6.9a49.81,49.81,0,0,1-19.5-19.1,54.5,54.5,0,0,1-7-27.6,56.43,56.43,0,0,1,6.7-27.6,48.54,48.54,0,0,1,18.4-19,51.41,51.41,0,0,1,26.3-6.8,50.84,50.84,0,0,1,26.2,6.8,48.12,48.12,0,0,1,18.2,18.9q6.6,12.11,6.6,27.7Zm-76.3-35.9Q1377.39,74,1376,89.6h74.6q-1.39-15.6-11.7-25.3t-25.7-9.7Q1398,54.6,1387.68,64.3Z"/><path class="cls-2" d="M1508.88,142.6a49.22,49.22,0,0,1-19.3-19.1,55,55,0,0,1-7-27.7,54.4,54.4,0,0,1,7-27.6,49.44,49.44,0,0,1,19.3-19,56.73,56.73,0,0,1,27.9-6.8,54,54,0,0,1,24.3,5.3A40.33,40.33,0,0,1,1578,63.2l-10.6,7.2a33.21,33.21,0,0,0-13.2-11.7,39.15,39.15,0,0,0-17.4-3.9,41.21,41.21,0,0,0-20.5,5.1,35.8,35.8,0,0,0-14.2,14.5,44.16,44.16,0,0,0-5.1,21.4,44,44,0,0,0,5.1,21.5,36,36,0,0,0,14.2,14.4,41.21,41.21,0,0,0,20.5,5.1,40.06,40.06,0,0,0,17.4-3.8,32.43,32.43,0,0,0,13.2-11.6l10.6,7.2a40.18,40.18,0,0,1-17,15.5,54.25,54.25,0,0,1-24.2,5.3A56.73,56.73,0,0,1,1508.88,142.6Z"/><path class="cls-2" d="M1695.58,100.2h-88q1.2,16.39,12.6,26.5t28.8,10.1a45.46,45.46,0,0,0,18-3.5,39.29,39.29,0,0,0,14.2-10.3l8,9.2a45,45,0,0,1-17.5,12.8,59.25,59.25,0,0,1-23.1,4.4q-16.2,0-28.7-6.9a49.81,49.81,0,0,1-19.5-19.1,54.4,54.4,0,0,1-7-27.6,56.32,56.32,0,0,1,6.7-27.6,48.54,48.54,0,0,1,18.4-19,51.41,51.41,0,0,1,26.3-6.8,50.87,50.87,0,0,1,26.2,6.8,48.18,48.18,0,0,1,18.2,18.9q6.6,12.11,6.6,27.7Zm-76.3-35.9q-10.3,9.7-11.7,25.3h74.6q-1.4-15.6-11.7-25.3t-25.7-9.7Q1629.59,54.6,1619.28,64.3Z"/><path class="cls-2" d="M1728.48,145.7q-11.7-3.7-18.3-9.3l6.4-11.2a53.78,53.78,0,0,0,16.6,8.5A66,66,0,0,0,1754,137q14.4,0,21.3-4.5a14.32,14.32,0,0,0,6.9-12.7,11.43,11.43,0,0,0-3.8-9.1,25.14,25.14,0,0,0-9.6-5,138.62,138.62,0,0,0-15.4-3.3,176,176,0,0,1-20.6-4.9,30.32,30.32,0,0,1-13.3-8.5q-5.51-6-5.5-16.6,0-13.2,11-21.6t30.6-8.4a79.43,79.43,0,0,1,20.4,2.7,56.22,56.22,0,0,1,16.8,7.1l-6.2,11.4q-13-9-31-9-13.61,0-20.5,4.8t-6.9,12.6a12.44,12.44,0,0,0,3.9,9.6,23.93,23.93,0,0,0,9.7,5.3,157.64,157.64,0,0,0,16,3.5,184.24,184.24,0,0,1,20.2,4.8,29.68,29.68,0,0,1,13,8.2q5.4,5.8,5.4,16,0,13.8-11.5,21.9t-31.9,8.1A80.68,80.68,0,0,1,1728.48,145.7Z"/><path class="cls-2" d="M1822.38,17.2a9.82,9.82,0,0,1-3-7.2,9.59,9.59,0,0,1,3-7,10,10,0,0,1,7.4-3,10.26,10.26,0,0,1,7.4,2.9,9.26,9.26,0,0,1,3,6.9,10.06,10.06,0,0,1-3,7.4,10.63,10.63,0,0,1-14.8,0Zm.2,26h14.2V148.4h-14.2Z"/><path class="cls-2" d="M1931.78,142a27,27,0,0,1-9.9,5.5,39.84,39.84,0,0,1-12.3,1.9q-14.8,0-22.8-8t-8-22.6V55.2H1860v-12h18.8v-23H1893v23h32v12h-32V118q0,9.41,4.7,14.3t13.5,4.9a26.26,26.26,0,0,0,8.5-1.4,21.16,21.16,0,0,0,7.1-4Z"/><path class="cls-2" d="M2026,52.7q11,10.3,11,30.5v65.2h-13.6V132a32.56,32.56,0,0,1-14.1,12.8q-9.3,4.6-22.1,4.6-17.61,0-28-8.4t-10.4-22.2q0-13.39,9.7-21.6t30.9-8.2h33.4V82.6q0-13.6-7.6-20.7T1993,54.8a56.41,56.41,0,0,0-19.2,3.3,48.26,48.26,0,0,0-15.8,9.1l-6.4-10.6a56.8,56.8,0,0,1,19.2-10.5,74.61,74.61,0,0,1,23.6-3.7Q2015,42.4,2026,52.7Zm-16,80a32.89,32.89,0,0,0,12.8-15.9V99.6h-33q-27,0-27,18.8a17.19,17.19,0,0,0,7,14.5q7,5.29,19.6,5.3Q2001.38,138.2,2010,132.7Z"/><path class="cls-2" d="M2079.28,145.7q-11.7-3.7-18.3-9.3l6.4-11.2a53.78,53.78,0,0,0,16.6,8.5,65.91,65.91,0,0,0,20.8,3.3q14.4,0,21.3-4.5a14.32,14.32,0,0,0,6.9-12.7,11.43,11.43,0,0,0-3.8-9.1,25.29,25.29,0,0,0-9.6-5,138.62,138.62,0,0,0-15.4-3.3,175.54,175.54,0,0,1-20.6-4.9,30.26,30.26,0,0,1-13.3-8.5q-5.51-6-5.5-16.6,0-13.2,11-21.6t30.6-8.4a79.43,79.43,0,0,1,20.4,2.7,56.22,56.22,0,0,1,16.8,7.1l-6.2,11.4q-13-9-31-9-13.61,0-20.5,4.8T2079,72a12.44,12.44,0,0,0,3.9,9.6,23.93,23.93,0,0,0,9.7,5.3,157,157,0,0,0,16,3.5,184.24,184.24,0,0,1,20.2,4.8,29.68,29.68,0,0,1,13,8.2q5.4,5.8,5.4,16,0,13.8-11.5,21.9t-31.9,8.1A80.63,80.63,0,0,1,2079.28,145.7Z"/><path class="cls-2" d="M206.5,286.1a49.59,49.59,0,0,1,19.3,19.4q7,12.5,7,29.1t-7,29.1a49.59,49.59,0,0,1-19.3,19.4,54.83,54.83,0,0,1-27.3,6.9q-20.59,0-32.4-13v50.2H115.6V280.8h29.8v12.4q11.6-14,33.8-14A54.83,54.83,0,0,1,206.5,286.1Zm-13,70.2q7.69-8.1,7.7-21.7t-7.7-21.7q-7.69-8.1-19.7-8.1t-19.7,8.1q-7.69,8.1-7.7,21.7t7.7,21.7q7.69,8.1,19.7,8.1T193.5,356.3Z"/><path class="cls-2" d="M333.6,291.1Q347,303,347,327v61.4H317.8V375Q309,390,285,390q-12.4,0-21.5-4.2a32.06,32.06,0,0,1-13.9-11.6,30.18,30.18,0,0,1-4.8-16.8q0-15,11.3-23.6t34.9-8.6h24.8q0-10.2-6.2-15.7T291,304a54.31,54.31,0,0,0-16.9,2.7A44.72,44.72,0,0,0,260,314l-11.2-21.8a67.76,67.76,0,0,1,21.1-9.6,94.37,94.37,0,0,1,25.3-3.4Q320.21,279.2,333.6,291.1ZM307,365.3a20.26,20.26,0,0,0,8.8-10.9v-11H294.4q-19.2,0-19.2,12.6a11.22,11.22,0,0,0,4.7,9.5q4.69,3.5,12.9,3.5A27.14,27.14,0,0,0,307,365.3Z"/><path class="cls-2" d="M420.1,283.2a56,56,0,0,1,21.9-4V308q-5.21-.4-7-.4-13.41,0-21,7.5t-7.6,22.5v50.8H375.2V280.8H405V295A34.66,34.66,0,0,1,420.1,283.2Z"/><path class="cls-2" d="M541.8,291.1Q555.2,303,555.2,327v61.4H526V375q-8.81,15-32.8,15-12.4,0-21.5-4.2a32.06,32.06,0,0,1-13.9-11.6,30.18,30.18,0,0,1-4.8-16.8q0-15,11.3-23.6t34.9-8.6H524q0-10.2-6.2-15.7T499.2,304a54.31,54.31,0,0,0-16.9,2.7,44.72,44.72,0,0,0-14.1,7.3L457,292.2a67.76,67.76,0,0,1,21.1-9.6,94.37,94.37,0,0,1,25.3-3.4Q528.41,279.2,541.8,291.1Zm-26.6,74.2a20.26,20.26,0,0,0,8.8-10.9v-11H502.6q-19.2,0-19.2,12.6a11.22,11.22,0,0,0,4.7,9.5Q492.8,369,501,369A27.14,27.14,0,0,0,515.2,365.3Z"/><path class="cls-2" d="M709.4,383.2a32,32,0,0,1-11.3,5.1A57.33,57.33,0,0,1,684,390q-19.2,0-29.7-9.8t-10.5-28.8V307.2H627.2v-24h16.6V257H675v26.2h26.8v24H675V351q0,6.79,3.5,10.5t9.9,3.7a20,20,0,0,0,12.6-4Z"/><path class="cls-2" d="M728.6,260.8a16.94,16.94,0,0,1,0-24.8q5.4-5,14-5t14,4.8a15.39,15.39,0,0,1,5.4,12,17,17,0,0,1-5.4,12.9q-5.4,5.1-14,5.1T728.6,260.8Zm-1.6,20h31.2V388.4H727Z"/><path class="cls-2" d="M950.59,280.8,902,395q-7.4,18.6-18.3,26.2t-26.3,7.6a54.74,54.74,0,0,1-16.6-2.6,36.55,36.55,0,0,1-13.4-7.2l11.4-22.2a26.89,26.89,0,0,0,8.3,5,25.84,25.84,0,0,0,9.3,1.8q6.4,0,10.4-3.1t7.2-10.3l.4-1-46.6-108.4H860l30.2,73,30.4-73Z"/><path class="cls-2" d="M1089.39,383.2a32,32,0,0,1-11.3,5.1A57.33,57.33,0,0,1,1064,390q-19.2,0-29.7-9.8t-10.5-28.8V307.2h-16.6v-24h16.6V257H1055v26.2h26.8v24H1055V351q0,6.79,3.5,10.5t9.9,3.7a20,20,0,0,0,12.6-4Z"/><path class="cls-2" d="M1215.39,280.8V388.4h-29.6V375.6a41.47,41.47,0,0,1-14.8,10.7,46.55,46.55,0,0,1-18.6,3.7q-21.21,0-33.6-12.2t-12.4-36.2V280.8h31.2V337q0,26,21.8,26,11.19,0,18-7.3t6.8-21.7V280.8Z"/><path class="cls-2" d="M1335.19,283.2h27.6v24H1336v81.2h-31.2V307.2h-16.6v-24h16.6v-4.8q0-18.4,10.9-29.2t30.7-10.8a57.3,57.3,0,0,1,13.3,1.5,32.25,32.25,0,0,1,10.5,4.3l-8.2,22.6a21.36,21.36,0,0,0-12.6-3.8q-14.21,0-14.2,15.6Z"/><path class="cls-2" d="M1458.19,291.1q13.39,11.89,13.4,35.9v61.4h-29.2V375q-8.81,15-32.8,15-12.4,0-21.5-4.2a32.06,32.06,0,0,1-13.9-11.6,30.18,30.18,0,0,1-4.8-16.8q0-15,11.3-23.6t34.9-8.6h24.8q0-10.2-6.2-15.7t-18.6-5.5a54.26,54.26,0,0,0-16.9,2.7,44.5,44.5,0,0,0-14.1,7.3l-11.2-21.8a67.66,67.66,0,0,1,21.1-9.6,94.37,94.37,0,0,1,25.3-3.4Q1444.78,279.2,1458.19,291.1Zm-26.6,74.2a20.3,20.3,0,0,0,8.8-10.9v-11H1419q-19.2,0-19.2,12.6a11.2,11.2,0,0,0,4.7,9.5q4.69,3.5,12.9,3.5A27.17,27.17,0,0,0,1431.59,365.3Z"/><path class="cls-2" d="M1669.68,291.1q11.91,11.89,11.9,35.7v61.6h-31.2V331.6q0-12.8-5.3-19.1t-15.1-6.3q-11,0-17.4,7.1t-6.4,21.1v54H1575V331.6q0-25.39-20.4-25.4-10.8,0-17.2,7.1t-6.4,21.1v54h-31.2V280.8h29.8v12.4a39.42,39.42,0,0,1,14.7-10.4,49.49,49.49,0,0,1,19.1-3.6,46.25,46.25,0,0,1,20.6,4.5,36.44,36.44,0,0,1,14.8,13.1,44.19,44.19,0,0,1,16.7-13,52.62,52.62,0,0,1,22.1-4.6Q1657.79,279.2,1669.68,291.1Z"/><path class="cls-2" d="M1711.18,260.8a16.94,16.94,0,0,1,0-24.8q5.4-5,14-5t14,4.8a15.39,15.39,0,0,1,5.4,12,17,17,0,0,1-5.4,12.9q-5.4,5.1-14,5.1T1711.18,260.8Zm-1.6,20h31.2V388.4h-31.2Z"/><path class="cls-2" d="M1769.78,240H1801V388.4h-31.2Z"/><path class="cls-2" d="M1831.58,260.8a16.94,16.94,0,0,1,0-24.8q5.4-5,14-5t14,4.8a15.39,15.39,0,0,1,5.4,12,17,17,0,0,1-5.4,12.9q-5.4,5.1-14,5.1T1831.58,260.8Zm-1.6,20h31.2V388.4H1830Z"/><path class="cls-2" d="M1972,291.1q13.39,11.89,13.4,35.9v61.4h-29.2V375q-8.81,15-32.8,15-12.41,0-21.5-4.2a32.06,32.06,0,0,1-13.9-11.6,30.18,30.18,0,0,1-4.8-16.8q0-15,11.3-23.6t34.9-8.6h24.8q0-10.2-6.2-15.7t-18.6-5.5a54.31,54.31,0,0,0-16.9,2.7,44.72,44.72,0,0,0-14.1,7.3l-11.2-21.8a67.76,67.76,0,0,1,21.1-9.6,94.37,94.37,0,0,1,25.3-3.4Q1958.59,279.2,1972,291.1Zm-26.6,74.2a20.26,20.26,0,0,0,8.8-10.9v-11h-21.4q-19.2,0-19.2,12.6a11.22,11.22,0,0,0,4.7,9.5q4.7,3.5,12.9,3.5A27.14,27.14,0,0,0,1945.38,365.3Z"/><path class="cls-2" d="M2039.38,356.5q5.4,5.29,5.4,13.9a33.2,33.2,0,0,1-1,8,91.46,91.46,0,0,1-4.4,12L2028,419.2h-19.8l8.8-31.8a16.37,16.37,0,0,1-7.9-6.5,18.9,18.9,0,0,1-2.9-10.5q0-8.59,5.5-13.9a19.22,19.22,0,0,1,13.9-5.3A18.89,18.89,0,0,1,2039.38,356.5Z"/><path class="cls-1" d="M212.9,480h31.2V628.4H212.9Z"/><path class="cls-1" d="M293.8,622.9a52.71,52.71,0,0,1-21.1-19.7,57.61,57.61,0,0,1,0-57.2,52.71,52.71,0,0,1,21.1-19.7,64.54,64.54,0,0,1,30.5-7.1q17,0,30.4,7.1a53,53,0,0,1,21,19.7,57.61,57.61,0,0,1,0,57.2,53,53,0,0,1-21,19.7q-13.41,7.1-30.4,7.1A64.54,64.54,0,0,1,293.8,622.9ZM344,596.3q7.69-8.1,7.7-21.7T344,552.9q-7.71-8.1-19.7-8.1t-19.8,8.1q-7.8,8.1-7.8,21.7t7.8,21.7q7.8,8.1,19.8,8.1T344,596.3Z"/><path class="cls-1" d="M565.49,583.4h-81.4a25.35,25.35,0,0,0,10.4,15.8q8.2,5.81,20.4,5.8a41.22,41.22,0,0,0,14.9-2.5,36.14,36.14,0,0,0,12.1-7.9l16.6,18Q543.3,630,514.09,630q-18.2,0-32.2-7.1a52.07,52.07,0,0,1-21.6-19.7,54.24,54.24,0,0,1-7.6-28.6,55,55,0,0,1,7.5-28.5,52.52,52.52,0,0,1,20.6-19.8,63.78,63.78,0,0,1,57.9-.3,49.63,49.63,0,0,1,20.1,19.5q7.31,12.71,7.3,29.5Q566.09,575.6,565.49,583.4Zm-73-34.6q-7.2,6-8.8,16.4h53a25.82,25.82,0,0,0-8.8-16.3,26.29,26.29,0,0,0-17.6-6.1Q499.69,542.8,492.49,548.8Z"/><path class="cls-1" d="M684.59,531.2q12.3,12,12.3,35.6v61.6h-31.2V571.6q0-12.79-5.6-19.1t-16.2-6.3q-11.8,0-18.8,7.3t-7,21.7v53.2h-31.2V520.8h29.8v12.6a41.45,41.45,0,0,1,15.4-10.5,53.59,53.59,0,0,1,20.2-3.7Q672.29,519.2,684.59,531.2Z"/><path class="cls-1" d="M747.39,622.9A53.14,53.14,0,0,1,726,603.2a57,57,0,0,1,0-57.2,53.14,53.14,0,0,1,21.4-19.7,66.18,66.18,0,0,1,30.9-7.1q17,0,29.7,7.1a42.09,42.09,0,0,1,18.5,20.3l-24.2,13q-8.4-14.8-24.2-14.8-12.2,0-20.2,8t-8,21.8q0,13.8,8,21.8t20.2,8q16,0,24.2-14.8l24.2,13.2a43,43,0,0,1-18.5,20q-12.71,7.2-29.7,7.2A66.18,66.18,0,0,1,747.39,622.9Z"/><path class="cls-1" d="M952.89,520.8V628.4h-29.6V615.6a41.47,41.47,0,0,1-14.8,10.7,46.72,46.72,0,0,1-18.6,3.7q-21.21,0-33.6-12.2t-12.4-36.2V520.8h31.2V577q0,26,21.8,26,11.19,0,18-7.3t6.8-21.7V520.8Z"/><path class="cls-1" d="M1086.69,583.4h-81.4a25.31,25.31,0,0,0,10.4,15.8q8.19,5.81,20.4,5.8a41.26,41.26,0,0,0,14.9-2.5,36.24,36.24,0,0,0,12.1-7.9l16.6,18q-15.21,17.4-44.4,17.4-18.21,0-32.2-7.1a51.94,51.94,0,0,1-21.6-19.7,54.24,54.24,0,0,1-7.6-28.6,55,55,0,0,1,7.5-28.5,52.45,52.45,0,0,1,20.6-19.8,63.78,63.78,0,0,1,57.9-.3,49.63,49.63,0,0,1,20.1,19.5q7.29,12.71,7.3,29.5Q1087.29,575.6,1086.69,583.4Zm-73-34.6q-7.2,6-8.8,16.4h53a25.82,25.82,0,0,0-8.8-16.3,26.29,26.29,0,0,0-17.6-6.1Q1020.89,542.8,1013.69,548.8Z"/><path class="cls-1" d="M1205.79,531.2q12.3,12,12.3,35.6v61.6h-31.2V571.6q0-12.79-5.6-19.1t-16.2-6.3q-11.8,0-18.8,7.3t-7,21.7v53.2h-31.2V520.8h29.8v12.6a41.37,41.37,0,0,1,15.4-10.5,53.55,53.55,0,0,1,20.2-3.7Q1193.48,519.2,1205.79,531.2Z"/><path class="cls-1" d="M1315.69,623.2a32,32,0,0,1-11.3,5.1,57.33,57.33,0,0,1-14.1,1.7q-19.2,0-29.7-9.8t-10.5-28.8V547.2h-16.6v-24h16.6V497h31.2v26.2h26.8v24h-26.8V591q0,6.79,3.5,10.5t9.9,3.7a20,20,0,0,0,12.6-4Z"/><path class="cls-1" d="M1378.18,523.2a56,56,0,0,1,21.9-4V548c-3.46-.27-5.8-.4-7-.4q-13.39,0-21,7.5t-7.6,22.5v50.8h-31.2V520.8h29.8V535A34.78,34.78,0,0,1,1378.18,523.2Z"/><path class="cls-1" d="M1499.89,531.1q13.39,11.89,13.4,35.9v61.4h-29.2V615q-8.8,15-32.8,15-12.4,0-21.5-4.2a32.06,32.06,0,0,1-13.9-11.6,30.18,30.18,0,0,1-4.8-16.8q0-15,11.3-23.6t34.9-8.6h24.8q0-10.2-6.2-15.7t-18.6-5.5a54.26,54.26,0,0,0-16.9,2.7,44.5,44.5,0,0,0-14.1,7.3l-11.2-21.8a67.66,67.66,0,0,1,21.1-9.6,94.37,94.37,0,0,1,25.3-3.4Q1486.48,519.2,1499.89,531.1Zm-26.6,74.2a20.3,20.3,0,0,0,8.8-10.9v-11h-21.4q-19.2,0-19.2,12.6a11.2,11.2,0,0,0,4.7,9.5q4.69,3.5,12.9,3.5A27.17,27.17,0,0,0,1473.29,605.3Z"/><path class="cls-1" d="M1551.49,626.7q-12.81-3.3-20.4-8.3l10.4-22.4a65.24,65.24,0,0,0,17.4,7.5,73,73,0,0,0,20,2.9q19.8,0,19.8-9.8,0-4.61-5.4-6.6t-16.6-3.4a160,160,0,0,1-21.8-4.6,33.75,33.75,0,0,1-14.9-9.2q-6.3-6.6-6.3-18.8a29.41,29.41,0,0,1,5.9-18.1q5.9-7.9,17.2-12.3t26.7-4.4a104.63,104.63,0,0,1,22.7,2.5,63.75,63.75,0,0,1,18.7,6.9l-10.4,22.2a62.13,62.13,0,0,0-31-8q-10,0-15,2.8t-5,7.2q0,5,5.4,7t17.2,3.8a184.11,184.11,0,0,1,21.6,4.7,32.51,32.51,0,0,1,14.6,9.1q6.2,6.6,6.2,18.4a28.41,28.41,0,0,1-6,17.8q-6,7.8-17.5,12.1t-27.3,4.3A104.47,104.47,0,0,1,1551.49,626.7Z"/><path class="cls-1" d="M1809.08,583.4h-81.4a25.35,25.35,0,0,0,10.4,15.8q8.2,5.81,20.4,5.8a41.22,41.22,0,0,0,14.9-2.5,36.14,36.14,0,0,0,12.1-7.9l16.6,18q-15.19,17.4-44.4,17.4-18.2,0-32.2-7.1a52.07,52.07,0,0,1-21.6-19.7,54.24,54.24,0,0,1-7.6-28.6,55,55,0,0,1,7.5-28.5,52.52,52.52,0,0,1,20.6-19.8,63.78,63.78,0,0,1,57.9-.3,49.63,49.63,0,0,1,20.1,19.5q7.3,12.71,7.3,29.5Q1809.68,575.6,1809.08,583.4Zm-73-34.6q-7.2,6-8.8,16.4h53a25.82,25.82,0,0,0-8.8-16.3,26.29,26.29,0,0,0-17.6-6.1Q1743.28,542.8,1736.08,548.8Z"/><path class="cls-1" d="M1928.18,531.2q12.3,12,12.3,35.6v61.6h-31.2V571.6q0-12.79-5.6-19.1t-16.2-6.3q-11.81,0-18.8,7.3t-7,21.7v53.2h-31.2V520.8h29.8v12.6a41.45,41.45,0,0,1,15.4-10.5,53.59,53.59,0,0,1,20.2-3.7Q1915.88,519.2,1928.18,531.2Z"/><path class="cls-2" d="M1176,969.39a7.76,7.76,0,0,1,3.16,3,9.7,9.7,0,0,1,0,9,7.73,7.73,0,0,1-3.18,3.05,10,10,0,0,1-4.75,1.08h-6.47V968.31h6.47A10.05,10.05,0,0,1,1176,969.39Zm-1.33,11.23a5,5,0,0,0,1.33-3.69,4.61,4.61,0,0,0-5-5h-2v10h2A5.07,5.07,0,0,0,1174.64,980.62Z"/><path class="cls-2" d="M1191.72,971.67v3.49h5.63v3.25h-5.63v3.78h6.37v3.37h-10.57V968.31h10.57v3.36Z"/><path class="cls-2" d="M1228.27,968.31v3.36h-4.57v13.89h-4.21V971.67h-4.57v-3.36Z"/><path class="cls-2" d="M1239,984.6a8.35,8.35,0,0,1-3.22-3.16,8.77,8.77,0,0,1-1.19-4.56,8.67,8.67,0,0,1,1.19-4.54,8.33,8.33,0,0,1,3.22-3.15,9.37,9.37,0,0,1,8.92,0,8.19,8.19,0,0,1,3.19,3.15,9.4,9.4,0,0,1,0,9.1,8.35,8.35,0,0,1-3.19,3.16,9.35,9.35,0,0,1-8.91,0Zm7.76-4.08a5.94,5.94,0,0,0,0-7.29,4.23,4.23,0,0,0-3.3-1.36,4.28,4.28,0,0,0-3.33,1.35,6,6,0,0,0,0,7.31,4.26,4.26,0,0,0,3.33,1.37A4.21,4.21,0,0,0,1246.76,980.52Z"/><path class="cls-2" d="M1270.76,969.39a7.69,7.69,0,0,1,3.16,3,9.62,9.62,0,0,1,0,9,7.64,7.64,0,0,1-3.17,3.05,10.05,10.05,0,0,1-4.75,1.08h-6.47V968.31H1266A10,10,0,0,1,1270.76,969.39Zm-1.32,11.23a5,5,0,0,0,1.32-3.69,4.6,4.6,0,0,0-5-5h-2v10h2A5.08,5.08,0,0,0,1269.44,980.62Z"/><path class="cls-2" d="M1286,984.6a8.4,8.4,0,0,1-3.21-3.16,8.77,8.77,0,0,1-1.2-4.56,8.68,8.68,0,0,1,1.2-4.54,8.37,8.37,0,0,1,3.21-3.15,9.39,9.39,0,0,1,8.93,0,8.25,8.25,0,0,1,3.19,3.15,9.4,9.4,0,0,1,0,9.1,8.37,8.37,0,0,1-3.2,3.16,8.94,8.94,0,0,1-4.44,1.13A9.08,9.08,0,0,1,1286,984.6Zm7.77-4.08a6,6,0,0,0,0-7.29,4.73,4.73,0,0,0-6.63,0,6,6,0,0,0,0,7.31,4.68,4.68,0,0,0,6.63,0Z"/><path class="cls-2" d="M1329.14,976.6a5,5,0,0,1-2.12,2,7.42,7.42,0,0,1-3.54.77h-2.6v6.19h-4.2V968.31h6.8a7.67,7.67,0,0,1,3.49.71,4.87,4.87,0,0,1,2.14,2,5.7,5.7,0,0,1,.71,2.88A5.54,5.54,0,0,1,1329.14,976.6Zm-4.18-1.14a2.46,2.46,0,0,0,0-3.2,2.54,2.54,0,0,0-1.8-.56h-2.28V976h2.28A2.54,2.54,0,0,0,1325,975.46Z"/><path class="cls-2" d="M1347.67,982.51h-6.44l-1,3h-4.4l6.24-17.25h4.87l6.24,17.25h-4.45Zm-1.08-3.24-2.14-6.32-2.11,6.32Z"/><path class="cls-2" d="M1368.76,985.56l-3.59-6.51h-1v6.51H1360V968.31h7a7.72,7.72,0,0,1,3.48.71,4.82,4.82,0,0,1,2.15,2,5.42,5.42,0,0,1,.71,2.77,5.12,5.12,0,0,1-1,3.07,5.22,5.22,0,0,1-2.86,1.92l4,6.83Zm-4.6-9.49h2.61a2.42,2.42,0,0,0,1.73-.56,2.16,2.16,0,0,0,.58-1.6,2.09,2.09,0,0,0-.58-1.55,2.37,2.37,0,0,0-1.73-.57h-2.61Z"/><path class="cls-2" d="M1391.64,982.51h-6.44l-1,3h-4.4l6.24-17.25h4.87l6.24,17.25h-4.45Zm-1.08-3.24-2.14-6.32-2.11,6.32Z"/><path class="cls-2" d="M1426.47,968.31v3.36h-4.58v13.89h-4.2V971.67h-4.57v-3.36Z"/><path class="cls-2" d="M1437.19,984.6a8.49,8.49,0,0,1-3.22-3.16,8.86,8.86,0,0,1-1.19-4.56,8.76,8.76,0,0,1,1.19-4.54,8.47,8.47,0,0,1,3.22-3.15,9.39,9.39,0,0,1,8.93,0,8.25,8.25,0,0,1,3.19,3.15,9.4,9.4,0,0,1,0,9.1,8.37,8.37,0,0,1-3.2,3.16,8.94,8.94,0,0,1-4.44,1.13A9.08,9.08,0,0,1,1437.19,984.6Zm7.77-4.08a6,6,0,0,0,0-7.29,4.25,4.25,0,0,0-3.3-1.36,4.32,4.32,0,0,0-3.34,1.35,6,6,0,0,0,0,7.31,4.3,4.3,0,0,0,3.34,1.37A4.23,4.23,0,0,0,1445,980.52Z"/><path class="cls-2" d="M1469,969.39a7.76,7.76,0,0,1,3.16,3,9.62,9.62,0,0,1,0,9,7.7,7.7,0,0,1-3.17,3.05,10.09,10.09,0,0,1-4.76,1.08h-6.46V968.31h6.46A10.05,10.05,0,0,1,1469,969.39Zm-1.33,11.23a4.92,4.92,0,0,0,1.33-3.69,4.61,4.61,0,0,0-5-5h-2v10h2A5.05,5.05,0,0,0,1467.63,980.62Z"/><path class="cls-2" d="M1484.21,984.6a8.49,8.49,0,0,1-3.22-3.16,8.86,8.86,0,0,1-1.19-4.56,8.76,8.76,0,0,1,1.19-4.54,8.47,8.47,0,0,1,3.22-3.15,9.37,9.37,0,0,1,8.92,0,8.21,8.21,0,0,1,3.2,3.15,8.85,8.85,0,0,1,1.17,4.54,9,9,0,0,1-1.18,4.56,8.37,8.37,0,0,1-3.2,3.16,9.35,9.35,0,0,1-8.91,0Zm7.77-4.08a6,6,0,0,0,0-7.29,4.26,4.26,0,0,0-3.31-1.36,4.31,4.31,0,0,0-3.33,1.35,6,6,0,0,0,0,7.31,4.29,4.29,0,0,0,3.33,1.37A4.24,4.24,0,0,0,1492,980.52Z"/><path class="cls-2" d="M1507.6,985.12a5.58,5.58,0,0,1-2.4-1.82,5,5,0,0,1-1-2.9h4.48a2,2,0,0,0,2.14,2,2.28,2.28,0,0,0,1.47-.43,1.55,1.55,0,0,0,.11-2.25,3.65,3.65,0,0,0-1.06-.68,16.31,16.31,0,0,0-1.78-.62,19.94,19.94,0,0,1-2.73-1,5,5,0,0,1-1.81-1.52,4.26,4.26,0,0,1-.77-2.63,4.54,4.54,0,0,1,1.75-3.78,7.15,7.15,0,0,1,4.54-1.36,7.24,7.24,0,0,1,4.6,1.36,4.9,4.9,0,0,1,1.87,3.8h-4.55a1.77,1.77,0,0,0-.61-1.31,2.17,2.17,0,0,0-1.45-.48,1.8,1.8,0,0,0-1.23.4,1.47,1.47,0,0,0-.47,1.17,1.43,1.43,0,0,0,.79,1.3,12.67,12.67,0,0,0,2.46,1,23.74,23.74,0,0,1,2.71,1.08,5.29,5.29,0,0,1,1.81,1.5,4,4,0,0,1,.76,2.53,5,5,0,0,1-.75,2.68,5.3,5.3,0,0,1-2.17,1.92,7.57,7.57,0,0,1-3.37.71A8.87,8.87,0,0,1,1507.6,985.12Z"/><path class="cls-3" d="M1096.64,845.54c-.13,2.17-.38,4.33-.38,6.5q-.06,45.86-.06,91.7c0,6.75-1.26,8-7.88,8q-87.64,0-175.29,0c-7,0-7.87-.94-7.89-7.91l-.21-98.79,9.93-10V941.6h171.51c0-16.16,0-32,0-47.73.06-19.46.19-38.91.28-58.36Q1091.66,840.52,1096.64,845.54Z"/><path class="cls-4" d="M581.73,850.73l2.63,2.36c-1.93,4.89-4.82,9.63-5.64,14.7-3.83,23.57-13.76,44.42-27.16,63.84a1.79,1.79,0,0,1-1.19-1.19c5.22-11.29,11.17-22.32,15.45-34,3.67-10,5-20.84,8.21-31.05C575.66,860.23,579.11,855.61,581.73,850.73Z"/><path class="cls-5" d="M1516.51,918.45l-7.12-4c1.82-1.76,3.56-4.92,5.47-5a155.76,155.76,0,0,1,23.26.67c.72.07,1,5,1.42,7.72l-20.56-4-2.68.8Z"/><path class="cls-6" d="M1635.21,918.15c-6.54-4-10.28-17.74-5.78-22.56,1.18-1.27,5.16-2,5.85-1.26,2,2.17,2.84,5.29,4.15,8l-5.53-3.17C1634.39,906.25,1634.8,912.2,1635.21,918.15Z"/><path class="cls-4" d="M1405.19,922.87c-.89.9-1.78,1.81-2.68,2.71-5.35-6.79-10.59-13.67-16.17-20.26-.84-1-3.28-.64-5-.9q2.42-4.87,4.84-9.74Z"/><path class="cls-6" d="M729,881.43c-.22-2.14-.43-4.28-.65-6.42l3.55-8.23,2.5,1.82Z"/><path class="cls-5" d="M1388.11,868.9c-.77,2.33-1.55,4.66-2.32,7C1386.56,873.56,1387.34,871.23,1388.11,868.9Z"/><path class="cls-6" d="M1516.3,914.63l2.68-.8Z"/><path class="cls-7" d="M792.17,872.72a33.84,33.84,0,0,0-3.27-5.1c-7.44-8-6.65-13,3.57-14.21a183.58,183.58,0,0,1,36.31-.49c7.53.65,12.15,4.94,3.94,12.44-2.54,2.32-5.13,6.13-5.22,9.33-.5,16.84-.43,33.71,0,50.55.07,2.82,2.41,6.28,4.73,8.19,7.83,6.44,5.49,11.61-2.67,13a177.23,177.23,0,0,1-35.08,1.78c-5.44-.21-12.56-2.44-8.61-11.35,2.54-3,7.24-6,7.28-9.07C793.44,909.41,792.63,891.07,792.17,872.72Z"/><path class="cls-6" d="M781.91,934.35c2.48-3.67,6.82-7.18,7.12-11,1.05-13.34.7-26.8.88-40.21q1.14-5.21,2.26-10.4c.46,18.35,1.27,36.69,1,55,0,3-4.74,6-7.28,9.07Z"/><path class="cls-2" d="M1063,971.22l2.2-1c4.81-2.1,9.73-4,14.19-6.8a20.79,20.79,0,0,0,7-6.54,13.19,13.19,0,0,0,1.83-8.19c-1.23.34-2.36.61-3.47,1a333.32,333.32,0,0,0-32.31,11.77c-4.67,2-9.26,4.28-13.75,6.69a31.33,31.33,0,0,0-10.29,8.6,22.43,22.43,0,0,0-4.61,11.51,33.35,33.35,0,0,0,1.77,14.38c1.19,3.47,2.64,6.85,4,10.44,1.46-2.62,2.74-5,4.12-7.37a48.6,48.6,0,0,1,11.77-13.5,30.18,30.18,0,0,1,12.46-6,2.07,2.07,0,0,1,1.13.1,46.72,46.72,0,0,0-13.71,14.67c2-.58,3.63-1.15,5.29-1.49,5-1,10-2,15-2.9,8.2-1.48,16.29-3.34,24-6.64a75,75,0,0,0,15.14-8.8,64.62,64.62,0,0,0,10.84-9.78,71.86,71.86,0,0,0,5.5-7.39,158.21,158.21,0,0,0,13.07-25,11.15,11.15,0,0,0-6.35.08,7.27,7.27,0,0,0-2.94,2c-1.55,1.72-2.93,3.6-4.31,5.48a122.89,122.89,0,0,1-11.72,14.23,48.93,48.93,0,0,1-21.72,13.12c-7.88,2.19-15.58,1.07-23.06-2A9.39,9.39,0,0,1,1063,971.22Z"/><path class="cls-2" d="M1107.22,957.66c2.09-3.28,4.26-6.5,6.23-9.85a35.19,35.19,0,0,0,2.43-5.51,7.29,7.29,0,0,0,.09-4.64c-.64-2.17-2.45-2.86-4.38-1.65a8.32,8.32,0,0,0-3.08,3.49,24.12,24.12,0,0,0-2.28,11.33c0,2.22.32,4.44.49,6.66Z"/><path class="cls-2" d="M937.42,971.86l-2.2-1c-4.81-2.09-9.73-4-14.19-6.8a20.79,20.79,0,0,1-7-6.54,13.19,13.19,0,0,1-1.83-8.19c1.23.34,2.36.62,3.47,1A333.32,333.32,0,0,1,948,962.06c4.67,2,9.26,4.28,13.74,6.69a31.26,31.26,0,0,1,10.3,8.6,22.46,22.46,0,0,1,4.61,11.51,33.42,33.42,0,0,1-1.77,14.39c-1.19,3.46-2.64,6.84-4,10.43-1.47-2.62-2.74-5-4.12-7.37a48.6,48.6,0,0,0-11.77-13.5,30.18,30.18,0,0,0-12.46-6,2.07,2.07,0,0,0-1.13.1A46.72,46.72,0,0,1,955,1001.6c-2-.58-3.63-1.15-5.29-1.49q-7.47-1.53-15-2.9c-8.2-1.48-16.29-3.33-24-6.64a75.39,75.39,0,0,1-15.15-8.8A64.55,64.55,0,0,1,884.8,972a70.79,70.79,0,0,1-5.5-7.39,158.55,158.55,0,0,1-13.07-25,11.06,11.06,0,0,1,6.35.07,7.27,7.27,0,0,1,2.93,2,67.56,67.56,0,0,1,4.32,5.48,122.89,122.89,0,0,0,11.72,14.23,48.88,48.88,0,0,0,21.72,13.12c7.88,2.19,15.58,1.07,23.06-2A9.39,9.39,0,0,0,937.42,971.86Z"/><path class="cls-2" d="M893.23,958.3c-2.09-3.28-4.26-6.5-6.23-9.85a34.78,34.78,0,0,1-2.43-5.51,7.29,7.29,0,0,1-.09-4.64c.64-2.17,2.45-2.86,4.38-1.65a8.35,8.35,0,0,1,3.08,3.5,24.06,24.06,0,0,1,2.28,11.32c-.06,2.22-.32,4.44-.49,6.66Z"/><path class="cls-2" d="M474.92,950.34c-10.21,0-17.15-.61-21.23-1.86a11.61,11.61,0,0,1-5.89-4.13,10.94,10.94,0,0,1-2.3-6.75,9.92,9.92,0,0,1,3.57-7.84l.16-.13c.5-.38,1.24-.83,4.73-2.24.58-.23,2-.79,2.5-4.34.82-5.64,1.24-18.85,1.24-39.3,0-10.73-.45-14.92-.83-16.55a3.89,3.89,0,0,0-2.37-3,17.7,17.7,0,0,1-5.85-3.57,8.32,8.32,0,0,1-2.09-5.88,9.73,9.73,0,0,1,4.64-8.24,16.68,16.68,0,0,1,9.6-2.73c2,0,4.81.14,8.58.43,7.57.61,16.78.91,27.39.91,16.9,0,28.37-.46,34.11-1.37l.15,0a20.74,20.74,0,0,1,2.27-.17c2.81,0,5.38,1.42,7.61,4.21A31.54,31.54,0,0,1,548,867.65a14.61,14.61,0,0,1-2.84,9.28,10.17,10.17,0,0,1-8.27,4,9.54,9.54,0,0,1-6-1.76c-.77-.6-2.21-2-7-7.42a11.19,11.19,0,0,0-5.84-3.7c-1.88-.47-6.16-1.09-15.94-1.38a5.67,5.67,0,0,0-2.68.44,28.59,28.59,0,0,0-1.26,6.12,69,69,0,0,0-.71,9.29,2.72,2.72,0,0,0,0,.51,14.42,14.42,0,0,0,4.38.43,4.62,4.62,0,0,0,2.39-.38,3.21,3.21,0,0,0,.69-1.67c2-9.26,7.27-10.65,10.26-10.65,8.17,0,12.32,8.21,12.32,24.38,0,9.53-1.4,16.46-4.3,21.21a10.59,10.59,0,0,1-9.37,5.52c-2.24,0-7.56-.87-8.47-8.86a20.6,20.6,0,0,0-.69-4.29,3.78,3.78,0,0,0-1-1.35c-.9-.85-2.35-1.25-4.35-1.25a8.17,8.17,0,0,0-1.61.13,8.36,8.36,0,0,0-.05,1.5v.16q0,.59-.07,6.64c0,10.45,1.5,12.34,1.56,12.42a2,2,0,0,1,.19.22,2.17,2.17,0,0,0,.23.25c.3.08,1.27.3,3.84.68a8.55,8.55,0,0,1,5.46,3.28,9.54,9.54,0,0,1,2.06,6c0,3.11-1.19,8.63-9.18,10.58C495.17,949.59,486.42,950.34,474.92,950.34Z"/><path class="cls-2" d="M626,950.41c-11,0-19-.45-24.4-1.4a14.43,14.43,0,0,1-7.51-3.52,9.88,9.88,0,0,1-3.25-7.4,8.18,8.18,0,0,1,2.09-5.81,13.19,13.19,0,0,1,5.59-3.13,3,3,0,0,0,.83-.39c0-.8-.1-1.56-2.62-1.94a134.05,134.05,0,0,0-16.84-.81c-6.84,0-8.9.48-9.39.63a3.84,3.84,0,0,0-.55.93,5.63,5.63,0,0,0-.46,1.41c.45.17,1.06.38,1.9.64,4.4,1.32,6.91,4.45,6.91,8.62,0,8-8,12.1-23.88,12.1-8.08,0-13.94-.55-17.9-1.7-4.93-1.48-7.62-5-7.62-10a8.42,8.42,0,0,1,2.06-5.87,12.91,12.91,0,0,1,5.43-3.19,11.73,11.73,0,0,0,5.35-3.42c1-1.18,2.81-4.18,6.29-11.81l10-21.92a171.52,171.52,0,0,0,7.25-17.63,37.32,37.32,0,0,0,1.78-10.69,39.26,39.26,0,0,1,.88-9.43,14.34,14.34,0,0,1,4-6.25,20.41,20.41,0,0,1,15.07-6c5.66,0,11.07,2.18,16.08,6.49,6.5,5.48,15.45,20.48,27.32,45.84l13.41,28.74c1.54,3.18,2.29,4,2.43,4.13a3.62,3.62,0,0,0,1.93.68c5.19.8,8.19,4,8.19,8.8,0,2.89-1.13,8.16-8.66,10.89C643.09,949.6,636,950.41,626,950.41Zm-35-48.9a83.37,83.37,0,0,0-4.09-7.68,37.26,37.26,0,0,0-3.11-4.85,10.58,10.58,0,0,0-.91,2,2.77,2.77,0,0,1-.1.26c-.1.21-.49,1.14-2,4.91-1.06,2.55-1.7,4.26-2.1,5.39Z"/><path class="cls-2" d="M753.85,950.41c-8.41,0-14.59-.6-18.89-1.84-8-2.34-9.18-7.3-9.18-10.05a8.08,8.08,0,0,1,1.62-5,32.73,32.73,0,0,1,5-4.6s.77-.65,1.22-3.48a105,105,0,0,0,.63-13.9c0-1.83-.05-3.16-.11-4.12a92.14,92.14,0,0,0-5,10l-8.5,19.07a36.81,36.81,0,0,1-4.05,7.3,7.36,7.36,0,0,1-5.83,3,7.24,7.24,0,0,1-5.5-2.57c-.5-.56-1.31-1.63-4.1-7-1.9-3.64-3.49-6.94-4.75-9.79l-9-20.3c-.23,4.49-.34,8.7-.34,12.58,0,5.82.34,8.11.56,9a3.15,3.15,0,0,0,.24.57,36.43,36.43,0,0,0,3.65,2,7.94,7.94,0,0,1,4.34,7.45c0,11.61-18.08,11.61-24,11.61-13.83,0-20.84-3.83-20.84-11.39a7.43,7.43,0,0,1,2-5.47c.66-.66,1.83-1.57,5.58-3.37l.07,0a2.59,2.59,0,0,0,1.32-1.05c.14-.31.62-1.66,1.09-6.07.42-3.69.82-9.87,1.19-18.39s.57-16,.57-22c0-9.4-.93-12.95-1.48-14.23a2.42,2.42,0,0,0-.49-.81,13,13,0,0,0-2.32-1.33c-5.83-2.79-7.06-6.72-7.06-9.53a10.14,10.14,0,0,1,2.84-7,13.8,13.8,0,0,1,6.7-4,59.58,59.58,0,0,1,8.87-1.71,76.09,76.09,0,0,1,9.3-.7c6.58,0,11.23.57,14.19,1.75a10.89,10.89,0,0,1,4.31,2.89,28.85,28.85,0,0,1,3.54,5.68l14.74,27.14a46.3,46.3,0,0,0,2.64,4.5h0a12.25,12.25,0,0,0,1.87-3l10-19.51,2.4-4.86c2.61-5.33,5.26-8.87,8.08-10.81,3.52-2.48,9.36-3.7,17.83-3.7,15.75,0,23.74,4.31,23.74,12.82a9.75,9.75,0,0,1-1.34,5.25,16,16,0,0,1-4.13,4,7.51,7.51,0,0,0-2.68,4.86,145.05,145.05,0,0,0-1.57,23.18,256.78,256.78,0,0,0,1.68,31.26,8.92,8.92,0,0,0,.65,2.86,20.34,20.34,0,0,0,3.6,2.68,8.85,8.85,0,0,1,4.22,7.61c0,2.86-1.19,8-9.18,10.52a35.69,35.69,0,0,1-7.91,1.64C763.12,950.29,759.22,950.41,753.85,950.41Z"/><path class="cls-2" d="M807.63,950.34c-6.63,0-26.8,0-26.8-12.46,0-3.48,2.12-6.54,6.3-9.09a4.6,4.6,0,0,0,2.41-3.31c.86-5.15,1.3-16.5,1.3-33.71,0-14.48-.89-20-1.63-22a7.22,7.22,0,0,0-3.24-3.39l-.08-.05a19.71,19.71,0,0,1-4.78-4,8.74,8.74,0,0,1-1.77-5.51,9.06,9.06,0,0,1,4.7-8c2.36-1.45,6.16-2.66,11.62-3.7a95.17,95.17,0,0,1,18.64-1.84,82.31,82.31,0,0,1,16,1.49c10.42,2.07,12.6,7.53,12.6,11.75a7.89,7.89,0,0,1-1.94,5.59c-.69.74-1.93,1.77-5.88,3.78-1.37.69-2,2.86-2.35,4.57-.64,3.45-1,10.48-1,20.89,0,21.95.69,29.93,1.26,32.75a3.29,3.29,0,0,0,.63,1.46,9.22,9.22,0,0,0,2.49,1.58c5.88,2.7,6.76,7.09,6.76,9.47,0,3.9-2,9-11.44,11.37A102.83,102.83,0,0,1,807.63,950.34Z"/><path class="cls-2" d="M1246.82,941.05c-8.4,0-14.54-.85-18.75-2.58-6.3-2.62-7.23-7.22-7.23-9.74s1-6.36,5.7-8.92a4.63,4.63,0,0,0,1.39-1,10.36,10.36,0,0,0,.89-2.81,63.37,63.37,0,0,0,1.1-12.89,13.44,13.44,0,0,0-.18-2.47,22.32,22.32,0,0,0-4-.27c-8.53,0-12,.54-13.28.9a5.47,5.47,0,0,0-.1.56,62.66,62.66,0,0,0-.37,7.39c0,5.29.82,7.78,1.53,8.95a12.42,12.42,0,0,0,2.36,1.7,9,9,0,0,1,4.47,8.19c0,3.19-1.5,7.58-8.64,10.3-4.73,1.8-11.14,2.68-19.6,2.68-7.58,0-13.92-.82-18.84-2.43a14.43,14.43,0,0,1-6.13-3.74,9.3,9.3,0,0,1-2.61-6.35,8.23,8.23,0,0,1,1.93-5.66,19.79,19.79,0,0,1,5.63-3.82,2.71,2.71,0,0,0,1.16-.93,12,12,0,0,0,.79-3.71,162.85,162.85,0,0,0,1-19.91c0-1.51,0-3.28-.07-5.44-.18-10.74-.27-16.71-.27-18.24.06-4.69-.5-5.81-.52-5.86s-.6-.94-4-2.62a7.82,7.82,0,0,1-4.81-7.24c0-6.32,5.3-10.57,15.76-12.65a81.71,81.71,0,0,1,16.19-1.6c5.82,0,23.24,0,24.09,11.13a10.82,10.82,0,0,1,2.78-5.28,13.85,13.85,0,0,1,7.09-4,79.67,79.67,0,0,1,18.12-1.75c8.64,0,14.93.8,19.23,2.45,6.62,2.53,8,6.91,8,10.13,0,4-2.15,7.17-6.05,9.06a8,8,0,0,0-2.1,1.23,9,9,0,0,0-.65,2.58c-.07.45-.27,2.71-.62,14.3-.26,8.64-.4,15.59-.4,20.66,0,11.32.55,15,.88,16.22a8.29,8.29,0,0,0,.39,1.19c.31.22,1.16.79,3.36,2a8,8,0,0,1,4.26,7.23c0,3.38-1.42,8-8.21,10.54C1263.07,940.23,1256.3,941.05,1246.82,941.05Zm-34.12-63.62a5.82,5.82,0,0,0,1.21.18c1.26.09,4.38.13,9.29.13a40.85,40.85,0,0,0,6.69-.35,4.64,4.64,0,0,0,0-.6c0-6.92-.38-10-.7-11.44a3.59,3.59,0,0,0-1.42-2.47,16.77,16.77,0,0,1-4.89-3.69,7.78,7.78,0,0,1-1.63-4.25,8.88,8.88,0,0,1-1.54,3.7,16.9,16.9,0,0,1-5.06,4.17,3.49,3.49,0,0,0-1.73,2.13c-.22.81-.58,3.12-.58,9.59A8.86,8.86,0,0,0,1212.7,877.43Z"/><path class="cls-2" d="M1380.74,886.26a53.11,53.11,0,0,0-5.21-16.78,61.22,61.22,0,0,0-3.25-5.66,52.45,52.45,0,0,0-7.33-9.05c-.45-.45-.89-.88-1.36-1.27a.49.49,0,0,0-.19-.17c-.92-.86-1.87-1.67-2.85-2.42a51.18,51.18,0,0,0-31.88-10.46,64.92,64.92,0,0,0-9.7.71,54.37,54.37,0,0,0-11.52,3,49.52,49.52,0,0,0-23,16.94,47.47,47.47,0,0,0-7.24,14.11,51.26,51.26,0,0,0-2.39,15.8,50.12,50.12,0,0,0,7.47,26.68,48,48,0,0,0,21.34,18.77,55.93,55.93,0,0,0,23.38,5.08,60.07,60.07,0,0,0,18.51-3,52,52,0,0,0,24.45-16.1,45.83,45.83,0,0,0,11-26c.12-1.39.19-2.82.19-4.24A46.59,46.59,0,0,0,1380.74,886.26Zm-64.31-16.48a6.66,6.66,0,0,1,5.87-3.42,9.1,9.1,0,0,1,4.81,1.82,18.25,18.25,0,0,1,4.89,5.39,56.76,56.76,0,0,1,6.32,14.95,61.83,61.83,0,0,1,2.46,16.4c0,3.33-.76,5.87-2.32,7.78a6.57,6.57,0,0,1-5.46,2.52,7.89,7.89,0,0,1-4.29-1.39,12.86,12.86,0,0,1-4-4.07,74.39,74.39,0,0,1-7.35-16.7,56.47,56.47,0,0,1-2.9-16.33A11.85,11.85,0,0,1,1316.43,869.78Z"/><path class="cls-2" d="M1435.09,941.51a57.91,57.91,0,0,1-28.33-7.12,50,50,0,0,1-26.18-44.2,47.19,47.19,0,0,1,7-24.59,49.92,49.92,0,0,1,20.69-19.2,56.73,56.73,0,0,1,26.23-5.94,57.52,57.52,0,0,1,17.43,2.61,16.5,16.5,0,0,0,3.68,1,24.45,24.45,0,0,0,4.4-1.33l.08,0a12.26,12.26,0,0,1,3.93-.64c3.58,0,6.88,1.92,9.81,5.71a28.08,28.08,0,0,1,6.16,17.48,17.45,17.45,0,0,1-3.67,11.4,12.82,12.82,0,0,1-10.24,4.77,15.9,15.9,0,0,1-9.62-3.47c-.78-.59-2-1.81-6.11-6.81-4.22-5.18-8.84-7.7-14.13-7.7a13.29,13.29,0,0,0-11,5c-2.87,3.55-4.32,8.54-4.32,14.83,0,9.78,2.5,18.19,7.44,25a20.59,20.59,0,0,0,6.22,5.51,13.56,13.56,0,0,0,6.73,2,4.2,4.2,0,0,0,3.21-1.25,4.7,4.7,0,0,0,1.25-3.48c0-.88-.16-1.54-.42-1.72l-.06,0c-.31,0-1.14,0-3.12,0a10.07,10.07,0,0,1-7.13-2.79,9.59,9.59,0,0,1-2.93-7.08c0-3.65,1.68-8.54,9.68-11.09a65.59,65.59,0,0,1,19.55-2.68,69.21,69.21,0,0,1,19.84,2.47c8.41,2.62,9.66,8.29,9.66,11.44a9.31,9.31,0,0,1-2.59,6.49,10.21,10.21,0,0,1-6.38,3.14,8.83,8.83,0,0,0-1,.2,17.76,17.76,0,0,0-.55,1.73A38.15,38.15,0,0,1,1468,930.41a45.16,45.16,0,0,1-14.9,8.2A56.12,56.12,0,0,1,1435.09,941.51Z"/><path class="cls-2" d="M1594.6,922.59a9.77,9.77,0,0,0-5.13-2.22,3.52,3.52,0,0,1-1.81-.63,16.45,16.45,0,0,1-2.26-3.87L1572.86,889a.69.69,0,0,0,0-.13c-11.09-23.65-19.43-37.65-25.49-42.76-4.71-4-9.76-6.06-15-6.06a19.14,19.14,0,0,0-14.1,5.63,13.65,13.65,0,0,0-3.71,5.85,37.23,37.23,0,0,0-.82,8.83,34.78,34.78,0,0,1-1.67,10,153.14,153.14,0,0,1-6.78,16.48l-.65,1.44-8.71,19.06c-3.24,7.13-5,9.94-5.87,11a11.05,11.05,0,0,1-5,3.19,12.46,12.46,0,0,0-5.08,3,7.93,7.93,0,0,0-1.93,5.5c0,4.68,2.53,8,7.13,9.39,3.71,1.08,9.19,1.59,16.74,1.59,14.82,0,22.34-3.81,22.34-11.31,0-3.9-2.36-6.83-6.46-8.05l-1.79-.6a5.13,5.13,0,0,1,.43-1.33,4.42,4.42,0,0,1,.52-.87c.46-.14,2.39-.58,8.77-.58,2.06,0,4,0,5.75.06a98.19,98.19,0,0,1,10,.69c2.36.36,2.44,1.06,2.44,1.82a2.89,2.89,0,0,1-.77.36,14.37,14.37,0,0,0-4.36,2.16,5.87,5.87,0,0,0-.86.78,7.57,7.57,0,0,0-2,5.42,9.24,9.24,0,0,0,3,6.92,13.58,13.58,0,0,0,7,3.3c5.07.87,12.54,1.3,22.82,1.3,9.32,0,16-.75,20.28-2.33a13.21,13.21,0,0,0,5.77-3.78,9.79,9.79,0,0,0,2.31-6.4A7.7,7.7,0,0,0,1594.6,922.59Zm-68.11-32.25c1.43-3.52,1.79-4.39,1.89-4.6s0-.15.09-.24a8.47,8.47,0,0,1,.85-1.83,35.18,35.18,0,0,1,2.91,4.53,74.92,74.92,0,0,1,3.81,7.19h-11.51C1524.91,894.33,1525.51,892.73,1526.49,890.34Z"/><path class="cls-2" d="M1677.29,942.31c-9.67,0-16.79-2.72-21.17-8.1a30.28,30.28,0,0,1-4.83-8.65A135.33,135.33,0,0,1,1647,910.7c-1.09-4.51-2.28-6.51-3.08-7.39a5.94,5.94,0,0,0-4.27-1.67h-.14a33.68,33.68,0,0,0-.28,5.19,60.54,60.54,0,0,0,1,12.34,1.91,1.91,0,0,0,.21.56h0a9.46,9.46,0,0,0,1.67,1.1c4.71,2.59,5.71,6.19,5.71,8.75s-1,7.2-7.89,9.46c-4.08,1.35-10.56,2-19.82,2-6.91,0-28,0-28-12.72a7.42,7.42,0,0,1,1.43-4.62,16.76,16.76,0,0,1,4.14-3.47,6.42,6.42,0,0,0,2.66-3c.31-.79.88-2.88,1.2-8,.21-3.07.32-14.35.32-33.55,0-7.23-.43-10.31-.8-11.62a4,4,0,0,0-2.21-2.7,14.87,14.87,0,0,1-5-3.39,7.83,7.83,0,0,1-1.82-5.25A9.22,9.22,0,0,1,1595,846a14.93,14.93,0,0,1,6.81-3.54,35.5,35.5,0,0,1,8.67-.84c1.57,0,5.13.21,11.21.67,1,.08,2.69.13,5,.13,3.87,0,9.14-.27,15.65-.79,4.35-.32,7.32-.47,9.1-.47,10.16,0,18.74,2.52,25.51,7.5,6.48,4.77,9.76,11.46,9.76,19.87a25.12,25.12,0,0,1-3.39,12.84,22.17,22.17,0,0,1-8.41,8.32,22.71,22.71,0,0,1,11.66,8.91c2.46,3.87,4.14,9.45,5.15,17a12.6,12.6,0,0,0,.92,3.87,12.2,12.2,0,0,0,3.6,1.44l.08,0a7.42,7.42,0,0,1,3.94,3.05,8.48,8.48,0,0,1,1.44,4.79,10.17,10.17,0,0,1-2.3,6.23,14.41,14.41,0,0,1-5.37,4.3C1689.78,941.36,1684.31,942.31,1677.29,942.31ZM1638.68,881c2.84,0,4.83-.63,5.91-1.85s1.8-3.9,1.8-7.39c0-9.38-3.82-9.38-5.66-9.38a3.82,3.82,0,0,0-1.09.12,6.32,6.32,0,0,0-.32,2l-.73,15.39v.52c0,.21,0,.39,0,.55Z"/><path class="cls-8" d="M499.61,862.47q-4.89,0-6,2.48a30.16,30.16,0,0,0-1.59,7.24,71.48,71.48,0,0,0-.75,9.79,3.82,3.82,0,0,0,1.7,3.61q1.71,1,6.39,1a7.57,7.57,0,0,0,4.61-1.14,6.22,6.22,0,0,0,2.06-3.83q1.63-7.73,6.67-7.73,8.66,0,8.65,20.71,0,13.14-3.76,19.3a7,7,0,0,1-6.24,3.76q-4.19,0-4.83-5.6a23.9,23.9,0,0,0-.88-5.11,7.24,7.24,0,0,0-2-2.84c-1.56-1.46-3.83-2.2-6.81-2.2-2.13,0-3.58.38-4.33,1.14s-1.09,2.2-1,4.32q0,.57-.07,6.6,0,12.27,2.56,15a4.1,4.1,0,0,0,1.74,1.38,33.4,33.4,0,0,0,4.64.89,4.81,4.81,0,0,1,3.12,1.92,5.87,5.87,0,0,1,1.28,3.76q0,5.46-6.38,7-9.22,2.19-25.9,2.2-14.61,0-20.14-1.7a8,8,0,0,1-4.05-2.84,7.35,7.35,0,0,1-1.56-4.54,6.29,6.29,0,0,1,2.27-5,27.69,27.69,0,0,1,3.9-1.77c2.65-1,4.24-3.46,4.76-7.24q1.28-8.73,1.27-39.8,0-13.39-.92-17.38a7.54,7.54,0,0,0-4.47-5.53,15.42,15.42,0,0,1-4.64-2.73,4.7,4.7,0,0,1-1.1-3.37,6.14,6.14,0,0,1,3.05-5.21,12.94,12.94,0,0,1,7.52-2.1c1.89,0,4.65.14,8.3.43q11.55.91,27.66.92,25.75,0,34.69-1.42a18.34,18.34,0,0,1,1.85-.14c1.65,0,3.24,1,4.75,2.84a27.8,27.8,0,0,1,6.24,17.59,11.08,11.08,0,0,1-2.05,7,6.55,6.55,0,0,1-5.4,2.63,6.09,6.09,0,0,1-3.76-1,82.05,82.05,0,0,1-6.52-7,14.81,14.81,0,0,0-7.7-4.82Q511.89,862.82,499.61,862.47Z"/><path class="cls-8" d="M624.61,895.67,638,924.4a20.23,20.23,0,0,0,3.19,5.21,7.06,7.06,0,0,0,3.9,1.67q5.11.78,5.11,5.18,0,5.17-6.24,7.45t-20.43,2.27q-16,0-23.77-1.35a10.88,10.88,0,0,1-5.64-2.59,6.23,6.23,0,0,1-2.09-4.72,4.59,4.59,0,0,1,1.1-3.29,10,10,0,0,1,4.08-2.17q3.33-1.12,3.33-3.83,0-4.76-5.74-5.6a134.69,134.69,0,0,0-17.38-.86q-9.45,0-11.28,1.14a5.7,5.7,0,0,0-2,2.55,8.45,8.45,0,0,0-.85,3.55c0,1,.2,1.72.6,2a18.41,18.41,0,0,0,3.94,1.53c2.88.85,4.33,2.55,4.33,5.11q0,8.43-20.22,8.44-11.49,0-16.89-1.56c-3.31-1-5-3.17-5-6.53a4.83,4.83,0,0,1,1.1-3.4,9.59,9.59,0,0,1,3.93-2.2,15.24,15.24,0,0,0,7-4.58q2.39-2.94,6.78-12.59l10-21.92a170,170,0,0,0,7.41-18.06,40.3,40.3,0,0,0,1.95-11.74,37.55,37.55,0,0,1,.75-8.48,10.65,10.65,0,0,1,3-4.64,16.81,16.81,0,0,1,12.49-5q7.17,0,13.69,5.61Q607.31,858.71,624.61,895.67Zm-49.37,8.94h13.9c2.55,0,3.83-.57,3.83-1.7q0-2.35-5.32-11.5a37.31,37.31,0,0,0-3.69-5.6,3.64,3.64,0,0,0-2.69-1.42q-2.57,0-4.26,4.75-.28.65-2.06,5c-2,4.82-3,7.71-3,8.65C572,904,573.06,904.61,575.24,904.61Z"/><path class="cls-8" d="M723.29,915.32l-8.51,19.08a34,34,0,0,1-3.55,6.49,3.84,3.84,0,0,1-3,1.67,3.64,3.64,0,0,1-2.77-1.35A45.23,45.23,0,0,1,701.9,935q-2.8-5.38-4.65-9.58l-9.36-21.07c-1.28-2.93-2.62-4.39-4-4.39s-2.34,1.25-2.49,3.76q-.5,8.37-.49,15.46c0,4.92.23,8.25.71,10a4.85,4.85,0,0,0,1.31,2.27,27.94,27.94,0,0,0,4.43,2.56,4.31,4.31,0,0,1,2.34,4.18q0,8-20.36,8-17.16,0-17.17-7.73a4,4,0,0,1,.89-2.88,20.29,20.29,0,0,1,4.58-2.66,5.94,5.94,0,0,0,3.16-2.91,28.37,28.37,0,0,0,1.38-7.16q.63-5.68,1.2-18.62t.57-22.17q0-11.57-1.77-15.68a6.11,6.11,0,0,0-1.46-2.13,16,16,0,0,0-3.08-1.84q-5-2.42-5-6.25a6.63,6.63,0,0,1,1.88-4.54,10.16,10.16,0,0,1,5-2.9,55.11,55.11,0,0,1,8.34-1.6,70.64,70.64,0,0,1,8.83-.68q9.07,0,12.84,1.49a7.4,7.4,0,0,1,2.91,1.92,29.42,29.42,0,0,1,3,5l14.75,27.17a34.19,34.19,0,0,0,3.34,5.46,3.3,3.3,0,0,0,2.55,1,3.51,3.51,0,0,0,2.52-1.06,16.12,16.12,0,0,0,2.59-4l10-19.5,2.41-4.9q3.48-7.09,6.89-9.43,4.32-3.06,15.75-3,20.07,0,20.07,9.15a6.15,6.15,0,0,1-.78,3.3,12.87,12.87,0,0,1-3.19,3,11.12,11.12,0,0,0-4.12,7.17,148.71,148.71,0,0,0-1.63,23.83,257.83,257.83,0,0,0,1.71,31.71,10.41,10.41,0,0,0,1.31,4.54,20,20,0,0,0,4.57,3.62,5.24,5.24,0,0,1,2.56,4.54q0,5-6.6,7a31.59,31.59,0,0,1-7.17,1.49c-2.5.24-6.36.36-11.56.36q-12,0-17.87-1.7Q727,942.56,727,938a4.41,4.41,0,0,1,.85-2.8,34.49,34.49,0,0,1,4.4-4q1.85-1.49,2.52-5.75a107.68,107.68,0,0,0,.67-14.47,32.7,32.7,0,0,0-.53-7.45,2.19,2.19,0,0,0-2.24-1.77q-2,0-3.83,2.73A86.85,86.85,0,0,0,723.29,915.32Z"/><path class="cls-8" d="M811.82,846.36a79,79,0,0,1,15.26,1.42q9.64,1.92,9.64,8.16a4.4,4.4,0,0,1-1,3.09,20.89,20.89,0,0,1-4.86,3q-3.27,1.63-4.3,7.17t-1,21.56q0,27.11,1.34,33.56a6.93,6.93,0,0,0,1.53,3.16,13,13,0,0,0,3.58,2.37q4.68,2.13,4.68,6.17,0,5.69-8.65,7.81a99,99,0,0,1-22.91,2.27q-23.13,0-23.13-8.8c0-2.13,1.51-4.11,4.54-6a8.29,8.29,0,0,0,4.11-5.82Q792,917.45,792,891.2q0-18.16-1.84-23.27c-.67-1.94-2.25-3.69-4.76-5.25a17.19,17.19,0,0,1-3.9-3.19,5.17,5.17,0,0,1-1-3.26,5.48,5.48,0,0,1,2.94-4.86q3-1.82,10.4-3.23A91.41,91.41,0,0,1,811.82,846.36Z"/><path class="cls-8" d="M1195,843.75q20.7,0,20.7,8.56a6.25,6.25,0,0,1-1.07,3.78,13.81,13.81,0,0,1-4,3.25,7,7,0,0,0-3.29,4.18c-.46,1.72-.69,5.22-.69,10.48q0,4.65,1.72,5.71a6.31,6.31,0,0,0,3,.79q2,.13,9.52.13c4.55,0,7.39-.24,8.49-.73s1.66-1.7,1.66-3.64q0-8.76-.8-12.21a6.71,6.71,0,0,0-3.11-4.71,14.35,14.35,0,0,1-3.85-2.82,4.77,4.77,0,0,1-.93-3.08,7.1,7.1,0,0,1,2.06-5,10.41,10.41,0,0,1,5.37-3,75.44,75.44,0,0,1,17.31-1.66q12.21,0,18,2.22t5.81,6.93q0,4-4.11,6a8.89,8.89,0,0,0-3.39,2.29,10.14,10.14,0,0,0-1.26,4.08q-.27,1.65-.66,14.73t-.4,20.76q0,13.47,1,17.12a6.2,6.2,0,0,0,1.19,2.65,26.37,26.37,0,0,0,4.18,2.65,4.56,4.56,0,0,1,2.52,4.25q0,5-6,7.33t-19.47,2.29q-11.82,0-17.45-2.32-5.11-2.13-5.11-6.57c0-2.52,1.31-4.49,3.91-5.91a7.24,7.24,0,0,0,2.63-2.12,13.76,13.76,0,0,0,1.36-3.91,67,67,0,0,0,1.19-13.67c0-2.78-.41-4.51-1.23-5.17s-3-1-6.4-1q-11.88,0-15.12,1.33c-.89.35-1.44,1.39-1.66,3.12a63.55,63.55,0,0,0-.4,7.82q0,7.57,2.12,10.88a12.1,12.1,0,0,0,3.45,2.72,5.58,5.58,0,0,1,2.79,5.25q0,4.63-6.44,7.09t-18.37,2.46q-10.89,0-17.78-2.26a10.91,10.91,0,0,1-4.68-2.82,5.75,5.75,0,0,1-1.69-4,4.89,4.89,0,0,1,1.06-3.38,17.78,17.78,0,0,1,4.65-3.06,5.68,5.68,0,0,0,2.62-2.38,15.66,15.66,0,0,0,1.16-4.91,167,167,0,0,0,1-20.3c0-1.55,0-3.38-.07-5.51q-.26-15.91-.26-18.18.06-5.7-1-7.52t-5.41-4a4.47,4.47,0,0,1-2.92-4.18q0-6.69,13-9.28A78,78,0,0,1,1195,843.75Z"/><path class="cls-8" d="M1326.37,843.35q17,0,29.78,9.75a50.13,50.13,0,0,1,14,17.38,47.67,47.67,0,0,1,5.24,21.23,42.39,42.39,0,0,1-10.35,28,48.64,48.64,0,0,1-22.88,15.06,57.11,57.11,0,0,1-17.45,2.78,52.44,52.44,0,0,1-22-4.77,44.23,44.23,0,0,1-19.83-17.45,46.37,46.37,0,0,1-7-24.88,45.53,45.53,0,0,1,9-27.86,46,46,0,0,1,21.42-15.79A55.75,55.75,0,0,1,1326.37,843.35Zm-6.3,19a10.06,10.06,0,0,0-8.83,5,15.3,15.3,0,0,0-2.52,8.82,59.82,59.82,0,0,0,3,17.35,78,78,0,0,0,7.7,17.48,16.48,16.48,0,0,0,5.07,5.17,11.32,11.32,0,0,0,6.14,1.92,10,10,0,0,0,8.13-3.78q3.07-3.78,3.08-10a64.52,64.52,0,0,0-2.59-17.31,60.23,60.23,0,0,0-6.7-15.86,21.56,21.56,0,0,0-5.83-6.36A12.53,12.53,0,0,0,1320.07,862.39Z"/><path class="cls-8" d="M1432.18,843.35a53.48,53.48,0,0,1,16.38,2.46,18.8,18.8,0,0,0,4.71,1.12,21.77,21.77,0,0,0,5.57-1.52,9,9,0,0,1,2.86-.47q3.71,0,7.1,4.38a24.65,24.65,0,0,1,5.44,15.39,14.07,14.07,0,0,1-2.89,9.22,9.34,9.34,0,0,1-7.6,3.52,12.51,12.51,0,0,1-7.56-2.79,55,55,0,0,1-5.5-6.23q-7.31-9-16.79-9a16.68,16.68,0,0,0-13.7,6.3q-5.07,6.32-5.07,17,0,15.86,8.09,27a23.9,23.9,0,0,0,7.3,6.46,16.86,16.86,0,0,0,8.42,2.43,7.62,7.62,0,0,0,5.68-2.29,8.1,8.1,0,0,0,2.22-5.87q0-3.19-1.86-4.51a3.25,3.25,0,0,0-1.36-.64q-.63-.09-3.81-.09a6.55,6.55,0,0,1-4.75-1.83,6.14,6.14,0,0,1-1.89-4.61q0-5.5,7.3-7.83a61.84,61.84,0,0,1,18.51-2.52,65.88,65.88,0,0,1,18.84,2.32q7.23,2.26,7.23,8.16a5.83,5.83,0,0,1-1.66,4.15,6.9,6.9,0,0,1-4.31,2.09,5.6,5.6,0,0,0-3,1,8.72,8.72,0,0,0-1.43,3.41,34.56,34.56,0,0,1-11.14,17.65,41.45,41.45,0,0,1-13.77,7.56,52.71,52.71,0,0,1-17,2.72,54.21,54.21,0,0,1-26.66-6.7,46.51,46.51,0,0,1-24.42-41.19,43.55,43.55,0,0,1,6.51-22.82,46.37,46.37,0,0,1,19.3-17.92A53.15,53.15,0,0,1,1432.18,843.35Z"/><path class="cls-8" d="M1567.44,889.92,1580,916.79a18.88,18.88,0,0,0,3,4.87,6.58,6.58,0,0,0,3.65,1.56c3.19.49,4.78,2.1,4.78,4.85,0,3.22-2,5.55-5.84,7s-10.26,2.12-19.11,2.12q-15,0-22.22-1.26a10.06,10.06,0,0,1-5.27-2.42,5.78,5.78,0,0,1-2-4.41,4.3,4.3,0,0,1,1-3.08,9.45,9.45,0,0,1,3.81-2c2.08-.7,3.12-1.9,3.12-3.58q0-4.44-5.37-5.24a126.63,126.63,0,0,0-16.25-.8c-5.89,0-9.4.36-10.55,1.06a5.39,5.39,0,0,0-1.86,2.39,7.94,7.94,0,0,0-.8,3.32,2.33,2.33,0,0,0,.57,1.89,17.54,17.54,0,0,0,3.68,1.43c2.7.79,4.05,2.39,4.05,4.77q0,7.9-18.91,7.9-10.74,0-15.79-1.46-4.63-1.39-4.64-6.1a4.55,4.55,0,0,1,1-3.19,9.08,9.08,0,0,1,3.68-2.06,14.23,14.23,0,0,0,6.53-4.27q2.22-2.76,6.34-11.78l9.35-20.5a159.61,159.61,0,0,0,6.93-16.88,38.48,38.48,0,0,0,1.83-11,34.87,34.87,0,0,1,.69-7.93,9.93,9.93,0,0,1,2.82-4.34A15.71,15.71,0,0,1,1530,843q6.7,0,12.8,5.24Q1551.25,855.36,1567.44,889.92Zm-46.17,8.36h13c2.39,0,3.58-.53,3.58-1.59q0-2.19-5-10.75a36.33,36.33,0,0,0-3.45-5.24,3.45,3.45,0,0,0-2.52-1.33c-1.59,0-2.92,1.49-4,4.45q-.27.6-1.93,4.71-2.77,6.76-2.78,8.09C1518.22,897.73,1519.23,898.28,1521.27,898.28Z"/><path class="cls-8" d="M1637.43,897.68c-1.68,0-2.76.51-3.22,1.53s-.7,3.38-.7,7.1a63.48,63.48,0,0,0,1.06,13.13,4.73,4.73,0,0,0,1,2.06,10.87,10.87,0,0,0,2.52,1.79q4,2.19,4,5.77,0,4.38-5.54,6.2t-18.74,1.83q-24.54,0-24.54-9.29a4.09,4.09,0,0,1,.73-2.55,15,15,0,0,1,3.31-2.69,9.84,9.84,0,0,0,4-4.54q1-2.62,1.43-9.06.33-4.71.33-33.77,0-9.21-.93-12.53a7.46,7.46,0,0,0-4-4.85,12.59,12.59,0,0,1-3.92-2.55,4.48,4.48,0,0,1-1-3,5.78,5.78,0,0,1,1.89-4.28,11.56,11.56,0,0,1,5.27-2.68,32.82,32.82,0,0,1,7.83-.73q2.19,0,10.95.66c1.1.09,2.85.13,5.24.13q6,0,15.92-.79,6.3-.46,8.82-.47,14.2,0,23.49,6.83,8.36,6.18,8.35,17.12a21.71,21.71,0,0,1-2.91,11.11,18.75,18.75,0,0,1-8,7.53c-1.42.71-2.12,1.55-2.12,2.52q0,1.92,3.25,3.12,7,2.52,10.21,7.63t4.65,15.65c.39,2.92,1,4.81,1.72,5.68s2.5,1.69,5.24,2.48a4.06,4.06,0,0,1,2.13,1.69,5.16,5.16,0,0,1,.86,2.89,6.88,6.88,0,0,1-1.59,4.15,11.14,11.14,0,0,1-4.12,3.28q-5.57,2.6-15.26,2.59-12.93,0-18.5-6.83a27,27,0,0,1-4.28-7.7,132.11,132.11,0,0,1-4.15-14.46q-1.53-6.3-3.88-8.89A9.25,9.25,0,0,0,1637.43,897.68Zm-3.85-33.83-.73,15.46v.59a5.06,5.06,0,0,0,.7,3.19c.46.53,1.4.79,2.82.79q5.84,0,8.49-3c1.77-2,2.65-5.23,2.65-9.66q0-12.8-9.09-12.8a4.73,4.73,0,0,0-3.65,1.19C1634.07,860.4,1633.67,861.82,1633.58,863.85Z"/><path class="cls-2" d="M1015.33,932a13,13,0,0,0,4.3-4.68,3.7,3.7,0,0,0-1.45-2.58,9.52,9.52,0,0,1-4.2-5.84c-1.29,0-6.6,2-9.41,3.42a29.52,29.52,0,0,0,.38,7.2,2.47,2.47,0,0,1-.26,1.72c-.55,1-1,2.1-1.52,3.26-1.42,0-2.79,0-4.16,0-.14,0-.28-.36-.57-.76a15.55,15.55,0,0,1,1.78-.57c1.47-.31,2.13-.93,2-2.47a31.13,31.13,0,0,0-.7-4.48,22.91,22.91,0,0,0-.92-3.1c-.13-.35-.49-.61-.88-1.09l-.29,1.29c-.31.18-.63.4-1,.58-1.77.92-3.5,1.91-5.31,2.73a4.18,4.18,0,0,0-2.65,3.77,4.53,4.53,0,0,1-1.91,3.35c-1.31-.29-1.64-.79-1-1.85a20.54,20.54,0,0,0,2-5.58,2.93,2.93,0,0,1,1-1.43c.83-.69,1.77-1.24,2.64-1.88.41-.3.77-.66,1.14-1a3.42,3.42,0,0,0-1.29-2.53A6.64,6.64,0,0,1,991.9,918a2.62,2.62,0,0,0-2.78-1.17,9.45,9.45,0,0,1-3.4-.36c-.73.27-1.43.6-2.18.8-1,.26-1.5,0-2.09-1a6.32,6.32,0,0,0-.94-.93l-.27,1.47A13.34,13.34,0,0,1,983,924.6a4.08,4.08,0,0,0,.74,2.52,6.79,6.79,0,0,1,.7,2.41c-2.22,3.37-5.12,4.49-7.74,3.11a2,2,0,0,1,.87-1.76,5.28,5.28,0,0,0,1.79-4.14,9,9,0,0,0-2-5.37,7.51,7.51,0,0,1-2-3.5,27.07,27.07,0,0,0-1.54-4.25,5.07,5.07,0,0,0-.5-.72,6.3,6.3,0,0,0-.4.93,39.74,39.74,0,0,1-1.19,4.21c-1.09,2.6-1.27,5.37-1.7,8.09a3.49,3.49,0,0,1,0,.65,16.62,16.62,0,0,0-.74,6.21c-2.49,1.08-5.69.79-6.94-.69.28-.33.55-.71.87-1s.84-.75,1.27-1.11a3.07,3.07,0,0,0,1.45-2.95c0-.7,0-1.4,0-2.1.07-1.51.1-3,.27-4.52s.5-3.14.7-4.71a20.37,20.37,0,0,0,0-2.07q.14-3.22.28-6.45a2.38,2.38,0,0,1,.16-.89c1-2,.71-4.17.61-6.3-.09-1.81-.12-3.63-.17-5.44,0-.16,0-.33,0-.72a10.4,10.4,0,0,0-2.53.51c-1.49.73-2.94.39-4.41.12-1.69-.31-3.36-.75-5.06-1a10.34,10.34,0,0,0-2.43.23l-.42-1.46-1.06.5c-.08-.07-.24-.15-.25-.24-.29-2.12-1-4.25.48-6.25a2.11,2.11,0,0,0,.25-1.25c-.14-2.28-.32-4.57-.5-6.85-.08-1-.18-2-.29-3a4.93,4.93,0,0,0-.41-1.57c-.12,4.27.66,8.53,0,12.82l-1.08.63c-.37,2.32-.77,4.71-1.11,7.1a103.81,103.81,0,0,1-2.76,13.06c-.58,2.08-1.17,4.15-1.74,6.23a1.92,1.92,0,0,0-.08,1c.65,2.14,1.36,4.27,2,6.4.36,1.1.7,2.21,1,3.33s.59,2.07.82,2.9l-.65,3.29c-.84.22-1.62.44-2.42.62a8.38,8.38,0,0,0-2.82.86,3.49,3.49,0,0,1-1.51.21c-.48,0-1,0-1.47,0l-.5.9a21.2,21.2,0,0,1-8.83.2v-1.58l2.27-1.75a7.17,7.17,0,0,1,.45-4c.68-1.87,1.45-3.71,2.13-5.58.58-1.58,1.08-3.18,1.62-4.78-1.16-1-1.63-2.07-.81-3.33a76.5,76.5,0,0,1-4.78-26.64l-1.54-.6c-.3-1.76.51-3.43.6-5.17s.35-3.61.56-5.4a48.63,48.63,0,0,0,.46-5.34,14.46,14.46,0,0,0-1,2.66c-.62,3.55-2.26,6.67-3.91,9.8-.25.45-.48.91-.76,1.45,1.12,2.27-.18,4.6.31,7.2l-1.38-.93-.11.12,1.18,1.45c-.32.86-.94.74-1.48.46a4.39,4.39,0,0,1-2.08-5.4c.4-1.36.73-2.74,1-4.12.42-1.94.77-3.9,1.15-5.85a4,4,0,0,0,.15-.75,18.3,18.3,0,0,1,1.75-7c.49-1.15.92-2.33,1.34-3.51a8.13,8.13,0,0,0,.24-1.3l-1.87-1.16c1.38-2.93,2.55-5.91,4.61-8.41a5.61,5.61,0,0,1,3.86-2.17c.8-.08,1.6-.31,2.45-.48a3.74,3.74,0,0,1,1.92-3.44,12.36,12.36,0,0,0-.43-2,5,5,0,0,1-.26-3.41,6.15,6.15,0,0,0,.17-2.06c-.1-1.88,1.1-2.91,2.56-3.51a4.58,4.58,0,0,1,4.25.18,6.29,6.29,0,0,1,2.1,1.67,3.62,3.62,0,0,1,.84,2.51c-.05.47,0,1,0,1.43a1.49,1.49,0,0,0,1,1.65,13.19,13.19,0,0,0-1.69,4.86l.26,2.83,5.52,3a3,3,0,0,1,1.58,2c.77,2.66,1.58,5.3,2.36,8a5.21,5.21,0,0,1,.1.94l-1.3.84c.1,1.58.09,3.23.31,4.85a42.73,42.73,0,0,1,.1,10.6,14.28,14.28,0,0,0,.33,6.56c.24.68.5,1.36.75,2a12.45,12.45,0,0,0,5.82-.47,10.51,10.51,0,0,0,2.93-1.87,11.41,11.41,0,0,1,6-3.25c-2.19-1.37-2.63-3.25-2.79-5.28a36.23,36.23,0,0,1-.4-3.71c0-1.31,1-2.17,2-2.89a6,6,0,0,1,2.31-1.13c1.65-.33,4.17.45,4.81,2.48a13.68,13.68,0,0,1,.31,5.13,8.08,8.08,0,0,1-1.06,2.25,2.7,2.7,0,0,0,1.74,2.66,8.11,8.11,0,0,0,1,.61c2.83,1,3.74,3.64,5,6a9.09,9.09,0,0,0,1.44,2.1,5.83,5.83,0,0,1,1.44,2.26c.45,1.24,1,2.46,1.45,3.7.23.6.31,1.27.6,1.85a12.54,12.54,0,0,0,1.45,2.41c1,1.28,1.07,1.77,0,3a5.52,5.52,0,0,0-.34.49,2.6,2.6,0,0,0,2.72,2l8.27.27a5,5,0,0,1,.78,0c3.13.6,6.2-.09,9.29-.34,2.88-.23,5.75-.77,8.65-.25a3,3,0,0,0,2.33-.5,25.23,25.23,0,0,1,2.6-1.38l1.3.83c-.67.73-1.24,1.37-1.83,2-1.34,1.4-1.49,2.22-.31,3.74a3.26,3.26,0,0,1,.64,3.14c-.18.62-.26,1.27-.4,1.9-.66,2.88,0,4.54,2.37,6.28l.93.68c.33.93.29,6.08-.06,8.17a7.8,7.8,0,0,1-3.87,0c-.11-1.53,1.28-1.26,1.91-1.83a5,5,0,0,0-2.64-6.15c-1.53,2.18-3,4.37-4.58,6.53a2.22,2.22,0,0,1-2.43.92ZM987.42,906.6l-.47-.11c.06-.88.08-1.77.18-2.64a3.12,3.12,0,0,0-.85-2.73,14.19,14.19,0,0,1-1.18-1.67,2.4,2.4,0,0,1-1.56-1.61,2.54,2.54,0,0,0-1.61-1.46c0,.73,0,1.32,0,1.91a16.82,16.82,0,0,1-.6,5.51,4.26,4.26,0,0,0-.05,1.78,11.64,11.64,0,0,1,0,4.12,24.56,24.56,0,0,0-.4,2.52c1.22-.28.55-1.1.65-1.64.61-2.28,2.73-2.56,4.44-3.15a6.53,6.53,0,0,0,2.87-1.5l-.66-1.3Z"/><path class="cls-2" d="M1075.71,901.67a1.53,1.53,0,0,1,.34-1.8,2,2,0,0,0,0-2.7c-.6.79.28,1.93-.7,2.68a3.3,3.3,0,0,1-.27-.7,9.94,9.94,0,0,1,.45-5.47c.66-1.6.22-3.25-.1-4.86s-.79-3.37-1.14-5.06c-.53-2.57-1-5.14-1.57-7.92-.28,1.17-.53,2.2-.78,3.23-.83,3.39-.29,6.68.6,10,.43,1.63.77,3.28,1.1,4.93.19.94.15,1.85-.78,2.07-.66,2.23-1.25,4.27-1.89,6.3s-1.32,4-2,6a4.12,4.12,0,0,0-.19,1.4,32.53,32.53,0,0,0,.55,5.89,14.45,14.45,0,0,1,0,3.48c0,.85-.11,1.71-.17,2.57.84.42,1.59.74,2.3,1.14a1.67,1.67,0,0,1,1,2.27,10.19,10.19,0,0,1-1.08,2.32,3.73,3.73,0,0,0-.56,2.07,14.27,14.27,0,0,1-.38,3.32c-.33,1.46-1,1.91-2.53,1.85-.51,0-1-.12-1.64-.19-.22,1-1,1.36-1.9,1.69a16.19,16.19,0,0,0-2.42,1.23,2.89,2.89,0,0,1-4.08-1,22,22,0,0,0,4.2-6.65c1-2.61.61-5.3,1-7.76-1.89-2.3-3.64-4.5-5.47-6.62a5.06,5.06,0,0,1-1.26-2.92,98.49,98.49,0,0,1-.78-12.39,13.91,13.91,0,0,0-.49-4.53c-.89-2.95-.54-6-.17-9,0-.12,0-.25,0-.63a6.87,6.87,0,0,0-.6.75c-.61,1.09-1.2,2.2-1.79,3.3a1.28,1.28,0,0,0-.2.47c-.13,1.62-.26,3.23-.35,4.85,0,.53.27,1.11-.5,1.42-.14.06-.12.55-.18.91h-.64l-.27.62-.84-.19c-.37,1.16-.7,2.27-1.07,3.37a4.52,4.52,0,0,1-1.73,2.36,4.33,4.33,0,0,0-1.84,1.94,2,2,0,0,1-1.14.76,1.46,1.46,0,0,0-1.08,1.57c0,1-.11,1.9-.14,2.85a2.43,2.43,0,0,0,.15,1,4.59,4.59,0,0,1,.16,3l1.77,4.1a5.89,5.89,0,0,0-.27,4.24,2,2,0,0,0,.39.93,9.74,9.74,0,0,1,2.32,3.7,5,5,0,0,0,1.83,2.11c.86.59,1,1,.61,1.94a11.16,11.16,0,0,1-1.44,2.29,4,4,0,0,1-4.37.75l1.31-2.56c-.43-.58-.77-1.43-1.39-1.83-1.85-1.15-3-3-4.55-4.4-.16-.14-.31-.29-.5-.47a10,10,0,0,1-1,1.51c-1.33,1.49-1.23,3.23-.95,5,.1.64.22,1.27.33,1.88-1.06,1.46-3.93,2.37-6,1.91-.28-.74.13-1.29.52-1.86s.86-1.34,1.29-2l-.32-.09c-.13-.66-.29-1.32-.36-2a7.07,7.07,0,0,1-.15-2.57c.5-1.78-.25-3.75.91-5.41.19-.27.1-.75.09-1.14,0-.63-.06-1.27-.09-1.88,1-1,1.73-1.95,1.28-3.39-1.78,1.8-1.75,4.09-1.82,6.34-1.33-.1-1.78-.46-1.69-1.62a35.62,35.62,0,0,1,.62-4c.32-1.64.7-3.26,1.09-5.06l-.66-.61,1.43-5.06,2.53-1.62c-.38-1-.9-.12-1.52-.34l-.53-1.75-1.43.44c-.52-.67-.92-1.12-1.25-1.62-.76-1.14-.81-2.34,1-2.65.3,0,.59-.13,1-.22,0-1.27-.29-2.73,1-3.64a5.11,5.11,0,0,1,2-.9c1.94-.33,3.1.47,4.17,2.55l1.8,1.62.59,0,.4,1.26-1.92,2,1.85.16a2.32,2.32,0,0,1-2.26,1.07h4.94c.72-1.27,1.44-2.45,2.06-3.69a2,2,0,0,0,.17-1.37,3.17,3.17,0,0,1,.31-2.36c2-4.29,3-8.9,4.23-13.46a16.33,16.33,0,0,1,1.37-3.49,26.8,26.8,0,0,0,2.2-6.54,2.8,2.8,0,0,1-.4-3c.64-1.78,1.36-3.54,2-5.15,1.62-1,3.46-.95,4.83-2.16a1,1,0,0,0-1.26-.36,1,1,0,0,1-1.27-.56c-.43-.83-.87-1.65-1.41-2.66l-.91-.4c.4-1.28.49-2.49-.72-3.31-.91-3.87,2.42-6.79,5.52-7.4,2.65-.53,3.81,0,5.41,2.2a7.63,7.63,0,0,1,1.45,4.34,5.54,5.54,0,0,0,.7,2,21.43,21.43,0,0,0,1.13,1.89,1.88,1.88,0,0,1,.28,1.72,2.08,2.08,0,0,0,.37,1.83,9.25,9.25,0,0,1,.61,1.7l-.29.25c1,.37,1.89.76,2.84,1.1a2.08,2.08,0,0,1,1.43,1.22c.5,1.38,1,2.76,1.39,4.18a2.85,2.85,0,0,1-.16,1.89,4.63,4.63,0,0,0-.28,2,35.38,35.38,0,0,0,1.19,9.49,15,15,0,0,1,.25,3.61,49.21,49.21,0,0,0,.36,10.36,4.36,4.36,0,0,1-.75,3.82A21.3,21.3,0,0,1,1075.71,901.67Z"/></g></g></svg>